SplineFontDB: 3.0
FontName: Oxygen-Bold
FullName: Oxygen Bold
FamilyName: Oxygen
Weight: Bold
Copyright: Copyright (c) 2011 by vernon adams. All rights reserved.
Version: 001.001
ItalicAngle: 0
UnderlinePosition: -119
UnderlineWidth: 119
Ascent: 1638
Descent: 410
sfntRevision: 0x00010000
LayerCount: 2
Layer: 0 0 "Back"  1
Layer: 1 0 "Fore"  0
NeedsXUIDChange: 1
XUID: [1021 14 500265001 7648098]
FSType: 0
OS2Version: 3
OS2_WeightWidthSlopeOnly: 0
OS2_UseTypoMetrics: 1
CreationTime: 1325757060
ModificationTime: 1325972409
PfmFamily: 17
TTFWeight: 700
TTFWidth: 5
LineGap: 0
VLineGap: 0
Panose: 2 0 8 3 0 0 0 9 0 4
OS2TypoAscent: 317
OS2TypoAOffset: 1
OS2TypoDescent: -215
OS2TypoDOffset: 1
OS2TypoLinegap: 0
OS2WinAscent: 36
OS2WinAOffset: 1
OS2WinDescent: 0
OS2WinDOffset: 1
HheadAscent: 36
HheadAOffset: 1
HheadDescent: 50
HheadDOffset: 1
OS2SubXSize: 1331
OS2SubYSize: 1228
OS2SubXOff: 0
OS2SubYOff: 153
OS2SupXSize: 1331
OS2SupYSize: 1228
OS2SupXOff: 0
OS2SupYOff: 716
OS2StrikeYSize: 119
OS2StrikeYPos: 639
OS2Vendor: 'newt'
OS2CodePages: 20000007.00000000
MarkAttachClasses: 1
DEI: 91125
LangName: 1033 "Copyright (c) 2012 by vernon adams. All rights reserved." "" "" "vernonadams: Oxygen Bold: 2012" "Oxygen-Bold" "Version 1.000" "" "Oxygen Bold is a trademark of vernon adams." "vernon adams" "vernon adams" "Copyright (c) 2011 by vernon adams. All rights reserved." 
GaspTable: 1 65535 15
Encoding: iso8859-5
UnicodeInterp: none
NameList: Adobe Glyph List
DisplaySize: -36
AntiAlias: 1
FitToEm: 1
WinInfo: 36 36 12
BeginPrivate: 9
BlueValues 37 [-23 2 1064 1098 1444 1474 1487 1506]
OtherBlues 11 [-430 -323]
BlueScale 8 0.039625
BlueShift 1 7
StdHW 5 [208]
StdVW 5 [241]
StemSnapH 28 [20 173 181 188 198 208 215]
StemSnapV 29 [207 224 233 241 249 268 275]
ForceBold 4 true
EndPrivate
Grid
-2048 910 m 0
 4096 910 l 0
-2048 165 m 0
 4096 165 l 0
-2048 1098.10058594 m 0
 4096 1098.10058594 l 0
  Named: "x-overshoot" 
-2048 1066.042899 m 0
 4096 1066.042899 l 0
  Named: "x-height" 

StartChar: exclam
Encoding: 33 33 2
Width: 750
Flags: W
HStem: -23 256<248 492> 1425 20G<248 492>
VStem: 248 244<-23 233 1020.57 1445>
LayerCount: 2
Fore
SplineSet
248 1445 m 1
 492 1445 l 1
 492 1194 l 1
 428 323 l 1
 320 323 l 1
 248 1194 l 1
 248 1445 l 1
492 -23 m 1
 248 -23 l 1
 248 233 l 1
 492 233 l 1
 492 -23 l 1
EndSplineSet
EndChar

StartChar: quotedbl
Encoding: 34 34 3
Width: 719
Flags: W
HStem: 937 506<120 290 436 605>
VStem: 82 208<1252.1 1443> 120 170<937 1127.9> 399 206<1246.95 1443> 436 169<937 1133.05>
LayerCount: 2
Fore
SplineSet
605 937 m 1x88
 436 937 l 1x88
 399 1443 l 1
 605 1443 l 1x90
 605 937 l 1x88
290 937 m 1xa0
 120 937 l 1xa0
 82 1443 l 1
 290 1443 l 1xc0
 290 937 l 1xa0
EndSplineSet
EndChar

StartChar: numbersign
Encoding: 35 35 4
Width: 1124
Flags: W
HStem: -23 21G<144 342.268 518 730.268> 380 176<56 223 456 602 843 983> 895 175<139 317 562 708 941 1067> 1425 20G<429.467 641 818.787 1014>
VStem: 144 194<-23 171> 434 207<1238 1445> 518 208<-23 185> 823 191<1254 1445>
DStem2: 144 -23 338 -23 0.202142 0.979356<39.2156 410.65 630.116 934.02 1154.93 1496.32> 518 -23 726 -23 0.203422 0.979091<42.3117 411.661 633.006 939.414 1156.19 1156.19>
LayerCount: 2
Fore
SplineSet
941 1070 m 1xfd
 1087 1070 l 1
 1067 897 l 1
 908 897 l 1
 843 556 l 1
 1001 556 l 1
 983 380 l 1
 812 380 l 1
 726 -23 l 1
 518 -23 l 1xfb
 602 380 l 1
 424 380 l 1
 338 -23 l 1
 144 -23 l 1
 223 380 l 1
 41 380 l 1
 56 556 l 1
 255 556 l 1
 317 895 l 1
 124 895 l 1
 139 1070 l 1
 349 1070 l 1
 434 1445 l 1
 641 1445 l 1
 562 1070 l 1
 744 1070 l 1
 823 1445 l 1
 1014 1445 l 1
 941 1070 l 1xfd
639 556 m 1
 708 897 l 1
 525 897 l 1
 456 556 l 1
 639 556 l 1
EndSplineSet
EndChar

StartChar: dollar
Encoding: 36 36 5
Width: 1294
Flags: W
HStem: -23 219<376.242 865.024> 1258 216<457.414 948.302>
VStem: 135 239<965.231 1184.06> 623 103<-201 1634> 962 243<279.395 520.639>
LayerCount: 2
Fore
SplineSet
623 -201 m 1
 623 1634 l 1
 726 1634 l 1
 726 -201 l 1
 623 -201 l 1
587 888 m 1
 785 832 l 1
 998 769 1205 674 1205 406 c 0
 1205 114 970 -23 653 -23 c 0
 432 -23 267 30 141 106 c 2
 123 117 l 1
 207 329 l 1
 233 310 l 1
 330 241 477 196 661 196 c 0
 843 196 962 258 962 405 c 0
 962 543 837 588 694 627 c 2
 500 681 l 2
 313 734 135 832 135 1064 c 0
 135 1340 368 1474 669 1474 c 0
 863 1474 1027 1433 1137 1358 c 1
 1154 1346 l 1
 1071 1152 l 1
 1046 1168 l 1
 964 1222 821 1258 669 1258 c 0
 495 1258 374 1205 374 1070 c 0
 374 957 471 922 587 888 c 1
EndSplineSet
EndChar

StartChar: percent
Encoding: 37 37 6
Width: 1985
Flags: W
HStem: -32 163<1330.29 1562.81> 597 163<1335.2 1568.77> 660 163<409.752 642.63> 1284 163<414.462 648.02>
VStem: 160 187<888.173 1216.04> 400 213<-46 167> 711 194<891.253 1219> 1072 195<196.811 527.329> 1328 215<1230 1445> 1630 186<200.813 533.062>
DStem2: 400 -46 613 -46 0.529231 0.848478<112.726 1756.21>
LayerCount: 2
Fore
SplineSet
1267 360 m 0xdfc0
 1267 227 1322 131 1450 131 c 0
 1577 131 1630 235 1630 367 c 0
 1630 500 1579 597 1452 597 c 0
 1323 597 1267 494 1267 360 c 0xdfc0
1816 366 m 0
 1816 146 1683 -32 1447 -32 c 0
 1204 -32 1072 141 1072 361 c 0
 1072 583 1210 760 1453 760 c 0
 1694 760 1816 589 1816 366 c 0
905 1056 m 2
 905 1054 l 2
 905 835 766 660 525 660 c 0xbfc0
 286 660 160 831 160 1051 c 0
 160 1272 292 1447 530 1447 c 0
 777 1447 905 1278 905 1056 c 2
613 -46 m 1
 400 -46 l 1
 1328 1445 l 1
 1543 1445 l 1
 613 -46 l 1
347 1052 m 0
 347 920 400 823 528 823 c 0
 655 823 711 925 711 1055 c 0
 711 1187 656 1284 529 1284 c 0
 402 1284 347 1183 347 1052 c 0
EndSplineSet
EndChar

StartChar: ampersand
Encoding: 38 38 7
Width: 1665
Flags: W
HStem: -23 207<463.583 870.618> 1283 190<562.102 818.706>
VStem: 111 239<288.76 574.549> 286 233<998.1 1240.95> 857 237<1022.29 1245.47>
DStem2: 642 907 439 834 0.69869 -0.715425<-216.323 -89.608 673.449 673.449 893.623 1090.73>
LayerCount: 2
Fore
SplineSet
286 1140 m 0xd8
 286 1374 479 1473 689 1473 c 0
 886 1473 1094 1384 1094 1158 c 0
 1094 966 934 860 779 786 c 1
 1126 420 l 1
 1184 483 1230 557 1269 633 c 1
 1442 518 l 1
 1396 428 1340 344 1272 269 c 1
 1477 52 l 1
 1258 -16 l 1
 1117 131 l 1
 982 27 824 -23 654 -23 c 0
 379 -23 111 87 111 402 c 0xe8
 111 620 260 743 439 834 c 1
 353 924 286 1009 286 1140 c 0xd8
662 184 m 0
 774 184 880 220 970 286 c 1
 571 715 l 1
 452 654 350 574 350 428 c 0
 350 243 500 184 662 184 c 0
691 1283 m 0
 592 1283 519 1237 519 1131 c 0xd8
 519 1036 578 969 642 907 c 1
 737 955 857 1013 857 1137 c 0
 857 1238 785 1283 691 1283 c 0
EndSplineSet
EndChar

StartChar: quoteright
Encoding: 257 8217 8
Width: 575
Flags: W
HStem: 983 490<244 307>
VStem: 133 337
LayerCount: 2
Fore
SplineSet
307 983 m 1
 133 983 l 1
 244 1473 l 1
 470 1473 l 1
 307 983 l 1
EndSplineSet
EndChar

StartChar: parenleft
Encoding: 40 40 9
Width: 645
Flags: W
HStem: 1470 20G<332.5 629>
VStem: 133 229<289.12 980.422>
LayerCount: 2
Fore
SplineSet
133 625 m 2
 133 626 l 2
 133 991 262 1259 403 1490 c 1
 629 1490 l 1
 604 1463 l 1
 466 1235 362 965 362 629 c 0
 362 296 474 20 605 -194 c 1
 630 -221 l 1
 406 -221 l 1
 267 -1 133 274 133 625 c 2
EndSplineSet
EndChar

StartChar: parenright
Encoding: 41 41 10
Width: 645
Flags: W
HStem: -221 27<129 136.172> 1470 20G<106 402.5>
VStem: 373 228<290.747 982.236>
LayerCount: 2
Fore
SplineSet
129 -194 m 1
 130 -194 l 1
 262 22 373 295 373 628 c 0
 373 964 268 1236 131 1463 c 1
 106 1490 l 1
 332 1490 l 1
 473 1258 601 991 601 626 c 0
 601 274 467 -1 328 -221 c 1
 104 -221 l 1
 129 -194 l 1
EndSplineSet
EndChar

StartChar: asterisk
Encoding: 42 42 11
Width: 1124
Flags: W
LayerCount: 2
Fore
SplineSet
962 529 m 1
 961 529 l 1
 911 498 864 472 813 441 c 1
 790 428 l 1
 571 734 l 1
 356 428 l 1
 159 544 l 1
 424 837 l 1
 61 960 l 1
 159 1139 l 1
 485 990 l 1
 456 1339 l 1
 691 1339 l 1
 665 990 l 1
 986 1138 l 1
 998 1126 l 1
 1025 1077 1046 1034 1073 986 c 1
 1086 960 l 1
 721 837 l 1
 808 744 888 650 967 562 c 1
 987 545 l 1
 962 529 l 1
EndSplineSet
EndChar

StartChar: plus
Encoding: 43 43 12
Width: 1485
Flags: W
HStem: 460 189<187 628 839 1282>
VStem: 628 209<62 460 649 1047>
LayerCount: 2
Fore
SplineSet
187 460 m 1
 186 649 l 1
 631 649 l 1
 631 1047 l 1
 839 1047 l 1
 839 649 l 1
 1282 649 l 1
 1282 460 l 1
 837 460 l 1
 837 62 l 1
 628 62 l 1
 628 460 l 1
 187 460 l 1
EndSplineSet
EndChar

StartChar: comma
Encoding: 44 44 13
Width: 559
Flags: W
HStem: -306 520<186 245>
VStem: 74 341
LayerCount: 2
Fore
SplineSet
186 214 m 1
 415 214 l 1
 245 -306 l 1
 74 -306 l 1
 186 214 l 1
EndSplineSet
EndChar

StartChar: hyphen
Encoding: 45 45 14
Width: 883
Flags: W
HStem: 433 184<168 716>
VStem: 168 548<433 617>
LayerCount: 2
Fore
SplineSet
716 433 m 1
 168 433 l 1
 168 617 l 1
 716 617 l 1
 716 433 l 1
EndSplineSet
EndChar

StartChar: period
Encoding: 46 46 15
Width: 559
Flags: W
HStem: -51 279<141 417>
VStem: 141 276<-51 228>
LayerCount: 2
Fore
SplineSet
417 -51 m 1
 141 -51 l 1
 141 228 l 1
 417 228 l 1
 417 -51 l 1
EndSplineSet
EndChar

StartChar: slash
Encoding: 47 47 16
Width: 780
Flags: W
HStem: 1431 20G<621.921 842>
DStem2: -43 -215 165 -215 0.376467 0.92643<78.305 1796.79>
LayerCount: 2
Fore
SplineSet
842 1451 m 1
 165 -215 l 1
 -43 -215 l 1
 630 1451 l 1
 842 1451 l 1
EndSplineSet
EndChar

StartChar: zero
Encoding: 48 48 17
Width: 1204
Flags: W
HStem: -23 215<479.925 748.869> 1259 215<480.234 747.972>
VStem: 66 257<398.888 1047.04> 907 255<397.374 1048.21>
LayerCount: 2
Fore
SplineSet
66 722 m 0
 66 1098 188 1474 614 1474 c 0
 1040 1474 1162 1097 1162 722 c 0
 1162 347 1042 -23 614 -23 c 0
 186 -23 66 347 66 722 c 0
321 730 m 1
 323 730 l 1
 323 475 375 192 615 192 c 0
 854 192 907 477 907 730 c 0
 907 982 852 1259 614 1259 c 0
 377 1259 321 980 321 730 c 1
EndSplineSet
EndChar

StartChar: one
Encoding: 49 49 18
Width: 1206
Flags: W
HStem: 0 21G<527 795> 1095 21G<272 313.463> 1432 20G<513 795>
VStem: 527 268<0 1218>
LayerCount: 2
Fore
SplineSet
272 1298 m 1
 272 1298 465 1397 561 1452 c 1
 795 1452 l 1
 795 0 l 1
 527 0 l 1
 527 1218 l 1
 442 1170 272 1095 272 1095 c 1
 272 1298 l 1
EndSplineSet
EndChar

StartChar: two
Encoding: 50 50 19
Width: 1223
Flags: W
HStem: 0 202<446 1069> 1258 216<348.878 737.921>
VStem: 826 255<886.418 1173.69>
DStem2: 121 214 446 202 0.714975 0.69915<223.977 1010.15>
LayerCount: 2
Fore
SplineSet
119 1322 m 1
 233 1416 363 1474 564 1474 c 0
 867 1474 1081 1327 1081 1057 c 0
 1081 820 926 672 795 548 c 1
 446 202 l 1
 1069 202 l 1
 1069 0 l 1
 121 0 l 1
 121 214 l 1
 618 700 l 2
 714 794 826 897 826 1032 c 0
 826 1180 732 1258 558 1258 c 0
 413 1258 303 1207 202 1116 c 1
 119 1322 l 1
EndSplineSet
EndChar

StartChar: three
Encoding: 51 51 20
Width: 1217
Flags: W
HStem: -23 215<311.606 754.973> 638 215<338 687.879> 1258 214<308.143 739.037>
VStem: 800 261<942.867 1199.81> 856 254<282.573 536.567>
LayerCount: 2
Fore
SplineSet
1061 1093 m 0xf0
 1061 923 974 813 851 754 c 1
 1001 704 1110 588 1110 406 c 0
 1110 125 855 -23 544 -23 c 0
 362 -23 202 17 96 110 c 1
 178 311 l 1
 280 237 395 192 543 192 c 0
 730 192 856 257 856 405 c 0xe8
 856 617 640 634 365 638 c 1
 338 638 l 1
 338 853 l 1
 365 853 l 2
 620 853 800 880 800 1072 c 0
 800 1209 718 1258 546 1258 c 0
 398 1258 282 1216 179 1140 c 1
 96 1344 l 1
 223 1431 376 1472 583 1472 c 0
 848 1472 1061 1334 1061 1093 c 0xf0
EndSplineSet
EndChar

StartChar: four
Encoding: 52 52 21
Width: 1366
Flags: W
HStem: 0 21G<842 1075> 341 206<382 829 1075 1259> 1452 20G<807.863 1075>
VStem: 829 246<0 341 547 1161>
DStem2: 104 522 382 547 0.603486 0.797374<187.703 947.049>
LayerCount: 2
Fore
SplineSet
1259 547 m 1
 1259 341 l 1
 1075 341 l 1
 1075 0 l 1
 842 0 l 1
 842 341 l 1
 104 341 l 1
 104 522 l 1
 823 1472 l 1
 1075 1472 l 1
 1075 547 l 1
 1259 547 l 1
382 547 m 1
 829 546 l 1
 829 1161 l 1
 682 953 529 750 382 547 c 1
EndSplineSet
EndChar

StartChar: five
Encoding: 53 53 22
Width: 1272
Flags: W
HStem: -23 208<388.925 789.169> 745 203<448.916 811.79> 1242 210<478 1103>
VStem: 925 242<316.455 638.121>
DStem2: 211 689 446 909 0.0822888 0.996609<238.592 573.096>
LayerCount: 2
Fore
SplineSet
236 304 m 1
 255 294 l 2
 352 244 448 185 600 185 c 0
 807 185 925 299 925 480 c 0
 925 646 824 745 636 745 c 0
 534 745 460 717 402 674 c 1
 393 667 l 1
 211 689 l 1
 274 1452 l 1
 1103 1452 l 1
 1103 1242 l 1
 478 1242 l 1
 446 909 l 1
 513 933 586 948 672 948 c 0
 982 948 1167 760 1167 482 c 0
 1167 171 942 -23 596 -23 c 0
 395 -23 245 39 145 126 c 1
 129 139 l 1
 236 304 l 1
EndSplineSet
EndChar

StartChar: six
Encoding: 54 54 23
Width: 1217
Flags: W
HStem: -23 206<420.509 782.351> 715 198<513.298 788.393> 1432 20G<626 1026>
VStem: 70 233<293.124 598.954> 908 244<300.841 602.895>
LayerCount: 2
Fore
SplineSet
664 913 m 0
 966 913 1152 730 1152 456 c 0
 1152 163 932 -23 609 -23 c 0
 275 -23 70 159 70 458 c 0
 70 643 137 764 217 878 c 1
 361 1076 535 1248 717 1452 c 1
 1026 1452 l 1
 509 890 l 1
 559 904 609 913 664 913 c 0
303 444 m 0
 303 282 415 183 600 183 c 0
 787 183 908 287 908 448 c 0
 908 615 799 715 607 715 c 0
 415 715 303 611 303 444 c 0
EndSplineSet
EndChar

StartChar: seven
Encoding: 55 55 24
Width: 1227
Flags: W
HStem: 0 21G<255 539.81> 1246 206<94 812>
DStem2: 255 0 531 0 0.403118 0.915148<111.261 1364.81>
LayerCount: 2
Fore
SplineSet
531 0 m 1
 255 0 l 1
 812 1246 l 1
 94 1246 l 1
 94 1452 l 1
 1101 1452 l 1
 1101 1294 l 1
 531 0 l 1
EndSplineSet
EndChar

StartChar: eight
Encoding: 56 56 25
Width: 1234
Flags: W
HStem: -23 215<438.479 795.321> 1258 215<442.057 792.143>
VStem: 97 255<275.871 553.232> 124 236<939.127 1185.02> 874 236<940.267 1184.88> 882 255<275.242 549.948>
LayerCount: 2
Fore
SplineSet
97 383 m 0xe4
 97 571 200 691 345 755 c 1
 216 815 124 923 124 1095 c 0
 124 1349 341 1473 617 1473 c 0
 894 1473 1110 1348 1110 1095 c 0xd8
 1110 926 1024 816 904 755 c 1
 1044 689 1137 567 1137 382 c 0
 1137 114 907 -23 617 -23 c 0
 326 -23 97 116 97 383 c 0xe4
617 676 m 1
 468 639 352 566 352 411 c 0
 352 266 451 192 617 192 c 0
 783 192 882 266 882 411 c 0xe4
 882 567 763 640 617 676 c 1
617 834 m 1
 771 867 874 929 874 1076 c 0
 874 1195 763 1258 617 1258 c 0
 471 1258 360 1195 360 1076 c 0xd8
 360 928 465 866 617 834 c 1
EndSplineSet
EndChar

StartChar: nine
Encoding: 57 57 26
Width: 1165
Flags: W
HStem: 0 21G<124 524> 540 198<361.438 636.225> 1269 204<370.036 729.047>
VStem: -2 243<849.651 1151.07> 847 233<854.399 1153.71>
LayerCount: 2
Fore
SplineSet
486 540 m 0
 184 540 -2 722 -2 996 c 0
 -2 1289 218 1473 541 1473 c 0
 875 1473 1080 1294 1080 995 c 0
 1080 811 1014 688 933 575 c 0
 790 376 615 204 433 0 c 1
 124 0 l 1
 640 563 l 1
 591 549 541 540 486 540 c 0
548 1269 m 0
 362 1268 241 1165 241 1005 c 0
 241 838 351 738 543 738 c 0
 735 738 847 843 847 1009 c 0
 847 1171 734 1269 548 1269 c 0
EndSplineSet
EndChar

StartChar: colon
Encoding: 58 58 27
Width: 551
Flags: W
HStem: -22 254<149.422 400.578> 789 254<149.422 400.594>
VStem: 149 261<-8.4902 232 789 1029.53>
LayerCount: 2
Fore
SplineSet
401 -34 m 1
 374 -32 l 2
 305 -26 237 -22 165 -22 c 2
 135 -22 l 1
 140 -12 l 1
 146 63 149 130 149 197 c 2
 149 244 l 1
 176 242 l 2
 245 236 313 232 385 232 c 2
 412 232 l 1
 410 187 l 1
 404 113 401 42 401 -27 c 2
 401 -34 l 1
401 776 m 1
 375 779 l 1
 305 784 236 789 165 789 c 2
 138 789 l 1
 140 834 l 1
 146 908 149 979 149 1048 c 2
 149 1055 l 1
 176 1053 l 2
 245 1047 313 1043 385 1043 c 2
 415 1043 l 1
 410 1033 l 1
 404 959 401 889 401 823 c 2
 401 776 l 1
EndSplineSet
EndChar

StartChar: semicolon
Encoding: 59 59 28
Width: 559
Flags: W
HStem: 780 254<157.422 407.578>
VStem: 157 251<780 1034>
LayerCount: 2
Fore
SplineSet
408 794 m 2
 408 768 l 1
 381 770 l 2
 312 776 244 780 172 780 c 2
 145 780 l 1
 147 807 l 2
 153 878 157 945 157 1019 c 2
 157 1046 l 1
 184 1044 l 2
 253 1038 320 1034 392 1034 c 2
 419 1034 l 1
 417 1007 l 2
 411 932 408 861 408 794 c 2
208 234 m 1
 438 234 l 1
 267 -286 l 1
 96 -286 l 1
 208 234 l 1
EndSplineSet
EndChar

StartChar: less
Encoding: 60 60 29
Width: 1485
Flags: W
HStem: 1064 20G<1221.4 1266>
DStem2: 209 610 504 552 0.912454 0.40918<245.441 1072.9> 504 552 209 492 0.916197 -0.400728<0 820.821>
LayerCount: 2
Fore
SplineSet
504 552 m 1
 1263 239 l 1
 1263 31 l 1
 209 492 l 1
 209 610 l 1
 1266 1084 l 1
 1266 875 l 1
 504 552 l 1
EndSplineSet
EndChar

StartChar: equal
Encoding: 61 61 30
Width: 1485
Flags: W
HStem: 283 187<187 1283> 639 188<186 1282>
LayerCount: 2
Fore
SplineSet
187 283 m 1
 187 470 l 1
 1283 470 l 1
 1283 283 l 1
 187 283 l 1
186 639 m 1
 186 827 l 1
 1282 827 l 1
 1282 639 l 1
 186 639 l 1
EndSplineSet
EndChar

StartChar: greater
Encoding: 62 62 31
Width: 1485
Flags: W
HStem: 1077 20G<210 253.326>
DStem2: 205 251 205 42 0.921423 0.388562<0 821.557>
LayerCount: 2
Fore
SplineSet
968 556 m 1
 210 889 l 1
 210 1097 l 1
 1265 610 l 1
 1265 489 l 1
 205 42 l 1
 205 251 l 1
 968 556 l 1
EndSplineSet
EndChar

StartChar: question
Encoding: 63 63 32
Width: 1079
Flags: W
HStem: 1285 193<286.279 664.847>
VStem: 346 232<382 641.516> 738 215<978.289 1218.38>
LayerCount: 2
Fore
SplineSet
131 1359 m 1
 146 1368 l 1
 231 1428 346 1478 501 1478 c 0
 766 1478 953 1355 953 1113 c 0
 953 909 807 810 710 721 c 1
 659 681 606 639 588 591 c 1
 588 589 l 1
 578 568 578 550 578 515 c 2
 578 382 l 1
 359 382 l 1
 357 405 l 2
 352 459 346 519 346 580 c 0
 346 669 402 729 454 773 c 0
 570 871 738 947 738 1107 c 0
 738 1226 635 1285 480 1285 c 0
 357 1285 290 1245 219 1204 c 2
 193 1189 l 1
 131 1359 l 1
574 201 m 1
 368 201 l 1
 368 22 l 1
 574 22 l 1
 574 201 l 1
EndSplineSet
EndChar

StartChar: at
Encoding: 64 64 33
Width: 1901
Flags: W
HStem: -230 169<715.692 1285.85> 122 169<1246.27 1437.05> 139 175<743.855 965.443> 837 163<876.288 1146.07> 1192 167<724.456 969 972 1228.37>
VStem: 135 187<318.29 804.916> 509 201<344.133 653.247> 1563 185<451.875 894.45>
LayerCount: 2
Fore
SplineSet
972 1189 m 1xdf
 969 1192 l 1
 760 1192 612 1113 507 1012 c 0
 400 908 322 764 322 566 c 0
 322 182 580 -61 995 -61 c 0
 1200 -61 1363 -3 1480 82 c 2
 1499 96 l 1
 1609 -25 l 1
 1589 -42 l 1
 1451 -156 1246 -230 993 -230 c 0
 726 -230 514 -140 372 -12 c 1
 234 118 135 313 135 566 c 0
 135 808 239 999 371 1128 c 1
 508 1256 712 1359 973 1359 c 0
 1205 1359 1395 1281 1524 1172 c 1
 1651 1061 1748 893 1748 669 c 0
 1748 432 1634 250 1471 165 c 0
 1414 136 1354 122 1291 122 c 0xdf
 1181 122 1105 167 1073 250 c 1
 1010 184 929 139 815 139 c 0xbf
 613 139 509 290 509 476 c 0
 509 760 724 1000 1024 1000 c 0
 1149 1000 1253 969 1345 941 c 2
 1368 934 l 1
 1363 912 l 1
 1326 761 1282 602 1253 452 c 0
 1246 414 1243 386 1243 369 c 0
 1243 310 1262 291 1317 291 c 0
 1480 291 1563 490 1563 672 c 0
 1563 1001 1329 1189 972 1189 c 1xdf
840 314 m 1xbf
 840 313 l 1
 1053 313 1107 612 1148 828 c 1
 1112 835 1066 837 1024 837 c 0
 837 837 710 657 710 467 c 0
 710 372 752 314 840 314 c 1xbf
EndSplineSet
EndChar

StartChar: A
Encoding: 65 65 34
Width: 1382
Flags: W
HStem: 0 21G<18 273.477 1130.48 1388> 444 195<508 896> 1425 20G<573.208 832.792>
DStem2: 18 0 266 0 0.363037 0.931775<90.0333 564.005 773.292 1358.22> 825 1445 705 1190 0.363037 -0.931775<194.038 776.786 985.71 1427.95> 825 1445 896 639 0.363037 -0.931775<194.038 776.786 985.71 1460.04>
LayerCount: 2
Fore
SplineSet
266 0 m 1
 18 0 l 1
 581 1445 l 1
 825 1445 l 1
 1388 0 l 1
 1138 0 l 1
 971 444 l 1
 432 444 l 1
 266 0 l 1
508 639 m 1
 896 639 l 1
 705 1190 l 1
 508 639 l 1
EndSplineSet
EndChar

StartChar: B
Encoding: 66 66 35
Width: 1409
Flags: W
HStem: 0 192<439 951.044> 674 188<440 936.578> 1251 193<440 913.425>
VStem: 172 267<192 674 862 1251> 1004 255<923.631 1171.35> 1069 245<287.873 585.015>
LayerCount: 2
Fore
SplineSet
172 0 m 1xf4
 172 1444 l 1
 636 1444 l 2
 966 1444 1259 1373 1259 1061 c 0xf8
 1259 929 1183 834 1065 783 c 1
 1227 724 1314 593 1314 419 c 0
 1314 116 1078 0 722 0 c 2
 172 0 l 1xf4
440 862 m 1
 720 863 l 2
 895 863 1004 902 1004 1041 c 0
 1004 1235 850 1251 605 1251 c 2
 440 1251 l 1
 440 862 l 1
439 192 m 1
 690 192 l 2
 928 192 1069 241 1069 428 c 0xf4
 1069 615 964 674 743 674 c 2
 439 674 l 1
 439 192 l 1
EndSplineSet
EndChar

StartChar: C
Encoding: 67 67 36
Width: 1430
Flags: W
HStem: -23 215<652.294 1091.99> 1258 215<661.961 1084.74>
VStem: 96 275<486.535 954.496>
LayerCount: 2
Fore
SplineSet
1238 1130 m 1
 1118 1218 985 1258 860 1258 c 0
 600 1258 371 1052 371 727 c 0
 371 376 598 192 863 192 c 0
 986 192 1119 231 1237 311 c 1
 1320 108 l 1
 1158 17 991 -23 836 -23 c 0
 430 -23 96 274 96 728 c 0
 96 1190 444 1473 843 1473 c 0
 1000 1473 1166 1433 1321 1336 c 1
 1238 1130 l 1
EndSplineSet
EndChar

StartChar: D
Encoding: 68 68 37
Width: 1606
Flags: W
HStem: 0 212<440 925.868> 1230 215<440 923.369>
VStem: 172 268<212 1230> 1229 275<492.568 961.73>
LayerCount: 2
Fore
SplineSet
172 1445 m 1
 560 1445 l 2
 1137 1445 1504 1250 1504 720 c 0
 1504 248 1172 0 656 0 c 2
 172 0 l 1
 172 1445 l 1
440 212 m 1
 675 212 l 2
 1030 212 1229 391 1229 716 c 0
 1229 1102 1013 1230 583 1230 c 2
 440 1230 l 1
 440 212 l 1
EndSplineSet
EndChar

StartChar: E
Encoding: 69 69 38
Width: 1257
Flags: W
HStem: 0 208<440 1138> 651 208<440 1080> 1237 208<440 1108>
VStem: 172 268<208 651 859 1237>
LayerCount: 2
Fore
SplineSet
440 859 m 5
 1080 859 l 5
 1080 651 l 5
 440 651 l 5
 440 208 l 1
 1156 208 l 1
 1138 0 l 1
 172 0 l 1
 172 1445 l 1
 1126 1445 l 1
 1108 1237 l 1
 440 1237 l 1
 440 859 l 5
EndSplineSet
EndChar

StartChar: F
Encoding: 70 70 39
Width: 1155
Flags: W
HStem: 0 21G<172 412> 636 207<412 1060> 1237 208<411 1081>
VStem: 172 240<0 636 843 1237>
LayerCount: 2
Fore
SplineSet
411 843 m 1
 1060 843 l 1
 1060 636 l 1
 412 636 l 1
 412 0 l 1
 172 0 l 1
 172 1445 l 1
 1101 1445 l 1
 1081 1237 l 1
 411 1237 l 1
 411 843 l 1
EndSplineSet
EndChar

StartChar: G
Encoding: 71 71 40
Width: 1559
Flags: W
HStem: -23 215<637.601 1106.33> 583 198<795 1156> 1258 215<655.647 1112.69>
VStem: 100 275<479.334 974.34> 1156 215<238.602 583>
LayerCount: 2
Fore
SplineSet
1250 1127 m 1
 1155 1210 1036 1258 894 1258 c 0
 540 1258 375 1037 375 727 c 0
 375 417 530 192 854 192 c 0
 973 192 1080 221 1156 256 c 1
 1156 583 l 1
 795 583 l 1
 795 781 l 1
 1371 781 l 1
 1371 135 l 1
 1225 48 1073 -23 846 -23 c 0
 387 -23 100 299 100 728 c 0
 100 1154 397 1473 867 1473 c 0
 1059 1473 1217 1424 1333 1322 c 1
 1250 1127 l 1
EndSplineSet
EndChar

StartChar: H
Encoding: 72 72 41
Width: 1571
Flags: W
HStem: 0 21G<174 442 1126 1394> 645 200<442 1126> 1432 20G<174 442 1126 1394>
VStem: 174 268<0 645 845 1452> 1126 268<0 645 845 1452>
LayerCount: 2
Fore
SplineSet
1126 0 m 1
 1126 645 l 1
 442 645 l 1
 442 0 l 1
 174 0 l 1
 174 1452 l 1
 442 1452 l 1
 442 845 l 1
 1126 845 l 1
 1126 1452 l 1
 1394 1452 l 1
 1394 0 l 1
 1126 0 l 1
EndSplineSet
EndChar

StartChar: I
Encoding: 73 73 42
Width: 608
Flags: W
HStem: 0 21G<170 438> 1425 20G<170 438>
VStem: 170 268<0 1445>
LayerCount: 2
Fore
SplineSet
170 1445 m 5
 438 1445 l 5
 438 0 l 5
 170 0 l 5
 170 1445 l 5
EndSplineSet
EndChar

StartChar: J
Encoding: 74 74 43
Width: 725
Flags: W
HStem: -23 196<55 267.74> 1426 20G<311 552>
VStem: 311 241<217.994 1445>
LayerCount: 2
Fore
SplineSet
311 1445 m 1
 552 1446 l 1
 552 439 l 2
 552 112 458 -23 110 -23 c 2
 55 -23 l 1
 55 173 l 1
 129 174 l 1
 283 178 311 230 311 389 c 2
 311 1445 l 1
EndSplineSet
EndChar

StartChar: K
Encoding: 75 75 44
Width: 1321
Flags: W
HStem: 0 21G<172 413 1062.47 1386> 1425 20G<172 413 1001 1313>
VStem: 172 241<0 590 802 1444> 1080 306<0 306>
DStem2: 413 802 681 769 0.682934 0.73048<158.92 876.727> 681 769 499 663 0.675768 -0.737114<0 836.472>
LayerCount: 2
Fore
SplineSet
172 1445 m 1
 413 1444 l 1
 413 802 l 1
 1001 1436 l 1
 1009 1445 l 1
 1313 1445 l 1
 681 769 l 1
 1386 0 l 1
 1080 0 l 1
 499 663 l 1
 413 590 l 1
 413 0 l 1
 172 0 l 1
 172 1445 l 1
EndSplineSet
EndChar

StartChar: L
Encoding: 76 76 45
Width: 1135
Flags: W
HStem: 0 208<412 1094> 1425 20G<172 412>
VStem: 172 240<208 1445>
LayerCount: 2
Fore
SplineSet
172 0 m 1
 172 1445 l 1
 412 1445 l 1
 412 208 l 1
 1094 208 l 1
 1094 0 l 1
 172 0 l 1
EndSplineSet
EndChar

StartChar: M
Encoding: 77 77 46
Width: 1860
Flags: W
HStem: 0 21G<172 402 1456 1688> 1425 20G<172 443.757 1423.34 1688>
VStem: 172 230<0 1025> 1456 232<0 1017>
DStem2: 434 1445 402 1025 0.438458 -0.898752<363.445 1144.92> 936 416 1047 161 0.43492 0.900469<0 767.34>
LayerCount: 2
Fore
SplineSet
821 161 m 1
 402 1025 l 1
 402 0 l 1
 172 0 l 1
 172 1445 l 1
 434 1445 l 1
 936 416 l 1
 1433 1445 l 1
 1688 1445 l 1
 1688 0 l 1
 1456 0 l 1
 1456 1017 l 1
 1047 161 l 1
 821 161 l 1
EndSplineSet
EndChar

StartChar: N
Encoding: 78 78 47
Width: 1589
Flags: W
HStem: 0 21G<172 397 1156.05 1417> 1425 20G<172 426.934 1191 1416.01>
VStem: 172 225<0 1115> 1191 226<323 1445>
DStem2: 413 1445 436 1052 0.569819 -0.82177<262.067 1365.35>
LayerCount: 2
Fore
SplineSet
1416 1445 m 1
 1417 0 l 1
 1170 0 l 1
 436 1052 l 1
 397 1115 l 1
 397 0 l 1
 172 0 l 1
 172 1445 l 1
 413 1445 l 1
 1148 390 l 1
 1191 323 l 1
 1191 1445 l 1
 1416 1445 l 1
EndSplineSet
EndChar

StartChar: O
Encoding: 79 79 48
Width: 1698
Flags: W
HStem: -23 215<646.424 1051.58> 1258 215<651.487 1046.51>
VStem: 96 275<490.175 951.507> 1327 275<490.175 951.507>
LayerCount: 2
Fore
SplineSet
849 192 m 0
 1164 192 1327 447 1327 717 c 0
 1327 986 1166 1258 849 1258 c 0
 532 1258 371 986 371 717 c 0
 371 447 534 192 849 192 c 0
849 -23 m 0
 405 -23 96 292 96 722 c 0
 96 1157 404 1473 849 1473 c 0
 1294 1473 1602 1157 1602 722 c 0
 1602 292 1293 -23 849 -23 c 0
EndSplineSet
EndChar

StartChar: P
Encoding: 80 80 49
Width: 1325
Flags: W
HStem: 0 21G<172 412> 563 202<413 929.544> 1237 208<412 927.676>
VStem: 172 240<0 563 765 1237> 1053 232<878.968 1133.56>
LayerCount: 2
Fore
SplineSet
172 1445 m 1
 666 1445 l 2
 1024 1445 1285 1322 1285 1009 c 0
 1285 715 1034 563 694 563 c 2
 412 563 l 1
 412 0 l 1
 172 0 l 1
 172 1445 l 1
412 1237 m 1
 413 765 l 1
 714 765 l 2
 916 765 1053 851 1053 1006 c 0
 1053 1170 908 1237 688 1237 c 2
 412 1237 l 1
EndSplineSet
EndChar

StartChar: Q
Encoding: 81 81 50
Width: 1698
Flags: W
HStem: -22 215<628.281 953.1> 1258 216<618.695 1078.05>
VStem: 100 256<475.654 977.019> 1342 254<480.485 975.68>
DStem2: 1383 -259 1237 -414 0.725953 -0.687745<-346.238 24.7588>
LayerCount: 2
Fore
SplineSet
1256 -432 m 1
 1237 -414 l 1
 1125 -304 1017 -170 941 -18 c 1
 910 -21 880 -22 848 -22 c 0
 364 -22 100 283 100 723 c 0
 100 1168 363 1474 848 1474 c 0
 1334 1474 1596 1165 1596 720 c 0
 1596 382 1442 124 1156 21 c 1
 1216 -88 1296 -181 1383 -259 c 1
 1401 -276 l 1
 1256 -432 l 1
849 1258 m 0
 515 1258 356 1040 356 730 c 0
 356 417 514 193 849 193 c 0
 1185 193 1342 417 1342 730 c 0
 1342 1040 1181 1258 849 1258 c 0
EndSplineSet
EndChar

StartChar: R
Encoding: 82 82 51
Width: 1425
Flags: W
HStem: 0 19G<172 413 1107.7 1368> 615 205<414 767.938> 1236 207<414 971.498>
VStem: 172 241<0 615 820 1236> 1054 245<909.182 1159.81>
LayerCount: 2
Fore
SplineSet
172 1445 m 1
 647 1443 l 1
 1007 1443 1299 1378 1299 1045 c 0
 1299 843 1184 722 1010 672 c 1
 1061 625 1108 574 1139 509 c 1
 1368 -1 l 1
 1118 -2 l 1
 895 431 l 2
 859 501 819 559 770 607 c 1
 726 613 683 615 632 615 c 2
 413 615 l 1
 413 0 l 1
 172 0 l 1
 172 1445 l 1
414 820 m 1
 690 820 l 2
 914 820 1054 872 1054 1040 c 0
 1054 1185 941 1236 734 1236 c 2
 414 1236 l 1
 414 820 l 1
EndSplineSet
EndChar

StartChar: S
Encoding: 83 83 52
Width: 1294
Flags: W
HStem: -23 219<376.242 865.024> 1258 216<457.414 948.302>
VStem: 135 239<965.231 1184.06> 962 243<279.395 520.639>
DStem2: 587 888 500 681 0.962254 -0.272153<-206.425 419.873>
LayerCount: 2
Fore
SplineSet
587 888 m 1
 785 832 l 1
 998 769 1205 674 1205 406 c 0
 1205 114 970 -23 653 -23 c 0
 432 -23 267 30 141 106 c 2
 123 117 l 1
 207 329 l 1
 233 310 l 1
 330 241 477 196 661 196 c 0
 843 196 962 258 962 405 c 0
 962 543 837 588 694 627 c 2
 500 681 l 2
 313 734 135 832 135 1064 c 0
 135 1340 368 1474 669 1474 c 0
 863 1474 1027 1433 1137 1358 c 1
 1154 1346 l 1
 1071 1152 l 1
 1046 1168 l 1
 964 1222 821 1258 669 1258 c 0
 495 1258 374 1205 374 1070 c 0
 374 957 471 922 587 888 c 1
EndSplineSet
EndChar

StartChar: T
Encoding: 84 84 53
Width: 1202
Flags: W
HStem: 0 21G<473 741> 1237 208<35 473 741 1179>
VStem: 473 268<0 1237>
LayerCount: 2
Fore
SplineSet
473 1237 m 1
 35 1237 l 1
 35 1445 l 1
 1179 1445 l 1
 1179 1237 l 1
 741 1237 l 1
 741 0 l 1
 473 0 l 1
 473 1237 l 1
EndSplineSet
EndChar

StartChar: U
Encoding: 85 85 54
Width: 1513
Flags: W
HStem: -23 215<543.404 977.957> 1425 20G<164 405 1109 1350>
VStem: 164 241<329.744 1445> 1109 241<329.744 1445>
LayerCount: 2
Fore
SplineSet
1109 1445 m 1
 1350 1445 l 1
 1350 540 l 2
 1350 176 1164 -23 757 -23 c 0
 349 -23 164 175 164 540 c 2
 164 1445 l 1
 405 1445 l 1
 405 551 l 2
 405 306 492 192 757 192 c 0
 1022 192 1109 306 1109 551 c 2
 1109 1445 l 1
EndSplineSet
EndChar

StartChar: V
Encoding: 86 86 55
Width: 1368
Flags: W
HStem: 0 21G<554.111 817.945> 1425 20G<-8 259.417 1129 1384>
DStem2: 252 1445 -8 1445 0.366947 -0.930242<0 1250.67> 689 258 562 0 0.366947 -0.930242<-1172.83 0> 689 258 810 0 0.369172 0.929361<0 1267.8>
LayerCount: 2
Fore
SplineSet
252 1445 m 1
 634 415 l 1
 689 258 l 1
 1129 1428 l 1
 1135 1445 l 1
 1384 1445 l 1
 810 0 l 1
 562 0 l 1
 -8 1445 l 1
 252 1445 l 1
EndSplineSet
EndChar

StartChar: W
Encoding: 87 87 56
Width: 2167
Flags: W
HStem: 0 21G<430.242 702.912 1426.98 1702.45> 1425 20G<20 276.364 975 1211 1909 2162>
VStem: 20 251<1194 1445>
DStem2: 271 1445 20 1445 0.276653 -0.96097<0 1165.6> 575 309 696 0 0.336546 0.941667<0 955.847> 1211 1444 1090 1140 0.293851 -0.955851<255.023 1197.89> 1563 299 1696 0 0.306926 0.951733<0 1198.42>
LayerCount: 2
Fore
SplineSet
981 1445 m 1
 1211 1444 l 1
 1563 299 l 1
 1661 680 1804 1050 1909 1426 c 1
 1914 1445 l 1
 2162 1445 l 1
 1696 0 l 1
 1433 0 l 1
 1090 1140 l 1
 696 0 l 1
 436 0 l 1
 20 1445 l 1
 271 1445 l 1
 573 319 l 1
 575 309 l 1
 691 689 851 1053 975 1427 c 2
 981 1445 l 1
EndSplineSet
EndChar

StartChar: X
Encoding: 88 88 57
Width: 1337
Flags: W
HStem: 0 21G<-6 280.054 1079.11 1375> 1425 20G<31 328.63 1086.66 1367>
VStem: -6 272<0 272> 31 284<1161 1445> 1093 282<0 282 1163 1445>
DStem2: -6 0 266 0 0.595983 0.802997<162.107 885.411> 315 1445 31 1445 0.592209 -0.805784<0 679.667 1510.07 1625.1> 698 883 845 737 0.593432 0.804884<0 691.498>
LayerCount: 2
Fore
SplineSet
266 0 m 1xe8
 -6 0 l 1xe8
 541 737 l 1
 31 1445 l 1
 315 1445 l 1xd8
 698 883 l 1
 1101 1445 l 1
 1367 1445 l 1
 845 737 l 1
 1375 0 l 1
 1093 0 l 1
 682 592 l 1
 266 0 l 1xe8
EndSplineSet
EndChar

StartChar: Y
Encoding: 89 89 58
Width: 1311
Flags: W
HStem: 0 21G<538 794> 1425 20G<-6 267.047 1071.81 1351>
VStem: -6 261<1184 1445> 538 256<0 571> 1084 267<1178 1445>
DStem2: 255 1445 -6 1445 0.528426 -0.848979<0 798.413> 667 761 794 571 0.537437 0.843304<0 800.931>
LayerCount: 2
Fore
SplineSet
1084 1445 m 1
 1351 1445 l 1
 794 571 l 1
 794 0 l 1
 538 0 l 1
 538 571 l 1
 -6 1445 l 1
 255 1445 l 1
 667 761 l 1
 1084 1445 l 1
EndSplineSet
EndChar

StartChar: Z
Encoding: 90 90 59
Width: 1257
Flags: W
HStem: 0 208<359 1189> 1237 208<76 864>
DStem2: 43 165 359 208 0.610555 0.791973<226.99 1350.26>
LayerCount: 2
Fore
SplineSet
76 1445 m 1
 1197 1445 l 1
 1197 1295 l 1
 359 208 l 1
 1189 208 l 1
 1189 0 l 1
 43 0 l 1
 43 165 l 1
 864 1237 l 1
 76 1237 l 1
 76 1445 l 1
EndSplineSet
EndChar

StartChar: bracketleft
Encoding: 91 91 60
Width: 645
Flags: W
HStem: -259 172<419 574> 1317 172<419 574>
VStem: 178 396<-259 -87 1317 1489> 178 241<-87 1317>
LayerCount: 2
Fore
SplineSet
419 -87 m 1xd0
 574 -87 l 1
 574 -259 l 1
 178 -259 l 1
 178 1489 l 1
 574 1489 l 1
 574 1317 l 1xe0
 419 1317 l 1
 419 -87 l 1xd0
EndSplineSet
EndChar

StartChar: backslash
Encoding: 92 92 61
Width: 770
Flags: W
HStem: 1431 20G<-68 155.197>
DStem2: 146 1451 -68 1451 0.418765 -0.908095<0 1639.28>
LayerCount: 2
Fore
SplineSet
146 1451 m 1
 868 -119 l 1
 656 -119 l 1
 -68 1451 l 1
 146 1451 l 1
EndSplineSet
EndChar

StartChar: bracketright
Encoding: 93 93 62
Width: 645
Flags: W
HStem: -259 172<178 333> 1317 172<178 333>
VStem: 178 396<-259 -87 1317 1489> 333 241<-87 1317>
LayerCount: 2
Fore
SplineSet
574 -259 m 1xe0
 178 -259 l 1
 178 -87 l 1xe0
 333 -87 l 1
 333 1317 l 1xd0
 178 1317 l 1
 178 1489 l 1
 574 1489 l 1
 574 -259 l 1xe0
EndSplineSet
EndChar

StartChar: asciicircum
Encoding: 94 94 63
Width: 1485
Flags: W
VStem: 1121 204<550 754>
DStem2: 174 550 379 550 0.496139 0.868243<101.708 843.684> 814 1432 744 1196 0.501307 -0.86527<169.112 917.069>
LayerCount: 2
Fore
SplineSet
174 550 m 1
 678 1432 l 1
 814 1432 l 1
 1325 550 l 1
 1121 550 l 1
 744 1196 l 1
 379 550 l 1
 174 550 l 1
EndSplineSet
EndChar

StartChar: underscore
Encoding: 95 95 64
Width: 1049
Flags: W
HStem: -323 178<-4 1049>
LayerCount: 2
Fore
SplineSet
-4 -145 m 1
 1049 -145 l 1
 1049 -323 l 1
 -4 -323 l 1
 -4 -145 l 1
EndSplineSet
EndChar

StartChar: quoteleft
Encoding: 258 8216 65
Width: 575
Flags: W
HStem: 983 490<296 359>
VStem: 133 337
LayerCount: 2
Fore
SplineSet
470 983 m 1
 296 983 l 1
 133 1473 l 1
 359 1473 l 1
 470 983 l 1
EndSplineSet
EndChar

StartChar: a
Encoding: 97 97 66
Width: 1182
Flags: W
HStem: -23 174<393.645 683.137> 0 21G<888.385 1077> 473 144<434.939 828> 910 188<360.086 787.73>
VStem: 119 240<185.853 405.65> 828 249<217.608 473 617 866.436>
LayerCount: 2
Fore
SplineSet
893 0 m 1x7c
 863 130 l 1
 751 47 634 -23 479 -23 c 0xbc
 270 -23 119 86 119 279 c 0
 119 561 320.563139932 617 698 617 c 2
 828 617 l 1
 828 744 l 2
 828 864.451219512 772 910 635 910 c 0
 463 910 336 866.131313131 238 809 c 1
 185 998 l 1
 297 1054.56565657 443 1098 630 1098 c 4
 885 1098 1077 1012.73602484 1077 775 c 2
 1077 0 l 1
 893 0 l 1x7c
530 151 m 0
 652 151 734 194 828 238 c 1
 828 473 l 1
 697 473 l 2
 511.740524781 473 359 451 359 297 c 0
 359 198 412 151 530 151 c 0
EndSplineSet
EndChar

StartChar: b
Encoding: 98 98 67
Width: 1346
Flags: W
HStem: -23 188<572.788 872.674> 1 21G<155 403.244> 910 188<571.752 871.514> 1486 20G<158 407>
VStem: 158 249<1 165 331.729 741.769 910 1506> 1035 243<339.34 729.849>
LayerCount: 2
Fore
SplineSet
407 910 m 1x7c
 490 1025.2261865 607 1098 762 1098 c 0
 1107 1098 1278 799.458984375 1278 546 c 0
 1278 262 1117 -23 762 -23 c 0
 603 -23 487 54.5367231638 405 165 c 1xbc
 403 1 l 1
 155 1 l 1
 157 104 158 196 158 294 c 2
 158 1506 l 1
 407 1506 l 1
 407 910 l 1x7c
404 536 m 0
 404 286.986413043 559 165 716 165 c 0
 875 165 1035 291.019021739 1035 536 c 0
 1035 783.648648649 875 910 717 910 c 0
 560 910 404 786.681081081 404 536 c 0
EndSplineSet
EndChar

StartChar: c
Encoding: 99 99 68
Width: 1123
Flags: W
HStem: -23 188<505.056 845.514> 910 188<508.025 846.072>
VStem: 92 251<332.95 737.006>
LayerCount: 2
Fore
SplineSet
1083 133 m 5
 960 28.0185546875 805 -23 656 -23 c 0
 365 -23 92 170 92 537 c 0
 92 898.64453125 365 1098 657 1098 c 0
 805 1098 957 1046.96875 1081 940 c 1
 960 774 l 1
 890 863 779 910 669 910 c 0
 504 910 343 791.724609375 343 539 c 0
 343 282.946289062 497 165 661 165 c 4
 770 165 882 210 961 297 c 5
 1083 133 l 5
EndSplineSet
EndChar

StartChar: d
Encoding: 100 100 69
Width: 1370
Flags: W
HStem: -23 188<497.326 797.212> 910 188<498.486 798.248>
VStem: 92 243<339.339 729.849> 963 249<331.729 741.769>
LayerCount: 2
Fore
SplineSet
963 910 m 1
 880 1025.2265625 763 1098 608 1098 c 0
 263 1098 92 799.458984375 92 546 c 0
 92 262 253 -23 608 -23 c 0
 767 -23 883 54.537109375 965 165 c 1
 967 1 l 1
 1215 1 l 1
 1213 104 1212 196 1212 294 c 2
 1212 1506 l 1
 963 1506 l 1
 963 910 l 1
966 536 m 0
 966 286.986328125 811 165 654 165 c 0
 495 165 335 291.018554688 335 536 c 0
 335 783.6484375 495 910 653 910 c 0
 810 910 966 786.680664062 966 536 c 0
EndSplineSet
EndChar

StartChar: e
Encoding: 101 101 70
Width: 1213
Flags: W
HStem: -23 188<503.619 903.608> 477 144<350 914> 916 182<495.226 797.758>
VStem: 92 254<330.807 477 621 751.868>
LayerCount: 2
Fore
SplineSet
1152 477 m 1
 346 477 l 1
 374 295.251953125 466 165 677 165 c 4
 838 165 948 219 1020 287 c 5
 1121 124 l 5
 1017 31.8798828125 881 -23 654 -23 c 0
 282 -23 92 250 92 536 c 0
 92 839.540039062 300 1098 651 1098 c 0
 990 1098 1153 856.552734375 1153 558 c 0
 1153 532 1152 504 1152 477 c 1
654 916 m 0
 478 916 377 795 350 621 c 1
 914 621 l 1
 895 795 818 916 654 916 c 0
EndSplineSet
EndChar

StartChar: f
Encoding: 102 102 71
Width: 725
Flags: W
HStem: 0 21G<208 457> 911 155<37 208 457 691> 1330 199<486.79 690>
VStem: 208 249<0 911 1066 1306.83>
LayerCount: 2
Fore
SplineSet
690 1529 m 1
 690 1330 l 1
 589 1330 l 2
 458 1330 457 1255 457 1105 c 2
 457 1066 l 1
 691 1066 l 1
 691 911 l 1
 457 911 l 1
 457 0 l 1
 208 0 l 1
 208 911 l 1
 37 911 l 1
 37 1066 l 1
 208 1066 l 1
 208 1090 l 2
 208 1371 245 1529 589 1529 c 2
 690 1529 l 1
EndSplineSet
EndChar

StartChar: g
Encoding: 103 103 72
Width: 1300
Flags: WO
HStem: -432 188<369 815.441> 0 186<485.621 798.27> 910 188<486.486 797.595> 1046 20G<951 1200>
VStem: 80 243<354.222 735.396> 951 249<-116.002 194 347.177 746.277 910 1066>
LayerCount: 2
Back
SplineSet
632 1121 m 4
 1013 1121 1191 836.496453901 1191 556 c 4
 1191 276 1013 0 632 0 c 4
 251 0 73 276 73 556 c 4
 73 836.496453901 251 1121 632 1121 c 4
316 556 m 4
 316 309.994520548 474 188 632 188 c 4
 790 188 948 309.994520548 948 556 c 4
 948 806.659517426 790 933 632 933 c 4
 474 933 316 806.659517426 316 556 c 4
EndSplineSet
Fore
SplineSet
1200 1066 m 1xdc
 1200 127 l 2
 1200 -274 994 -432 547 -432 c 2
 369 -432 l 1
 369 -244 l 1
 552 -244 l 2
 829.879682384 -244 951 -174.75 951 74.6357421875 c 2
 951 194 l 1
 923.462908012 89.7903225806 766.103857567 0 616 0 c 0
 247 0 80 278 80 556 c 0
 80 804 251 1098 596 1098 c 0
 751 1098 879 1039.15286624 951 910 c 1xec
 951 1066 l 1
 1200 1066 l 1xdc
954 546 m 0
 954 790 798 910 641 910 c 0
 483 910 323 787 323 546 c 0
 323 307 483 186 642 186 c 0
 799 186 954 303 954 546 c 0
EndSplineSet
EndChar

StartChar: h
Encoding: 104 104 73
Width: 1227
Flags: W
HStem: 0 21G<155 388 888 1121> 910 188<525.392 822.141> 1467 20G<155 388>
VStem: 155 233<0 793.103 970 1487> 888 233<0 842.002>
LayerCount: 2
Fore
SplineSet
888 0 m 1
 889 557 l 2
 889 760.053097345 881 910 696 910 c 0
 546 910 419 814.015228426 388 719 c 1
 388 0 l 1
 155 0 l 1
 155 1487 l 1
 388 1487 l 1
 388 970 l 1
 469 1050.62988281 577 1098 731 1098 c 0
 1013 1098 1121 910.577148438 1121 655 c 2
 1121 0 l 1
 888 0 l 1
EndSplineSet
EndChar

StartChar: i
Encoding: 105 105 74
Width: 559
Flags: W
HStem: 0 21G<155 404> 1046 20G<155 404> 1258 248<155 404>
VStem: 155 249<0 1066 1258 1506>
LayerCount: 2
Fore
SplineSet
155 1066 m 5
 404 1066 l 5
 404 0 l 5
 155 0 l 5
 155 1066 l 5
155 1506 m 1
 404 1506 l 1
 404 1258 l 1
 155 1258 l 1
 155 1506 l 1
EndSplineSet
EndChar

StartChar: j
Encoding: 106 106 75
AltUni2: 000458.ffffffff.0
Width: 518
Flags: W
HStem: -323 203<-40 121.383> 1046 20G<162 411> 1258 248<162 411>
VStem: 162 249<-82.1265 1066 1258 1506>
LayerCount: 2
Fore
SplineSet
-40 -323 m 1
 -40 -120 l 1
 -16 -120 l 2
 140 -120 162 -68 162 102 c 2
 162 1066 l 1
 411 1066 l 1
 411 166 l 2
 411 -162 337 -323 -9 -323 c 2
 -40 -323 l 1
162 1506 m 1
 411 1506 l 1
 411 1258 l 1
 162 1258 l 1
 162 1506 l 1
EndSplineSet
EndChar

StartChar: k
Encoding: 107 107 76
Width: 1211
Flags: W
HStem: 0 21G<155 403 880.93 1192> 1046 20G<868.303 1206> 1485 20G<155.987 404>
VStem: 155 249<0 455 670 1505> 897 295<0 295 771 1066>
DStem2: 404 670 681 631 0.770022 0.638018<188.413 629.196> 681 631 484 514 0.62934 -0.77713<0 626.307>
LayerCount: 2
Fore
SplineSet
893 1066 m 1
 1206 1066 l 1
 681 631 l 1
 1192 0 l 1
 897 0 l 1
 484 514 l 1
 403 455 l 1
 403 0 l 1
 155 0 l 1
 156 1505 l 1
 404 1505 l 1
 404 670 l 1
 893 1066 l 1
EndSplineSet
EndChar

StartChar: l
Encoding: 108 108 77
Width: 728
Flags: W
HStem: -23 188<433.79 643> 1486 20G<155 404>
VStem: 155 249<194.787 1506>
LayerCount: 2
Fore
SplineSet
643 165 m 1
 643 -23 l 1
 536 -23 l 2
 192 -23 155 147 155 446 c 2
 155 1506 l 1
 404 1506 l 1
 404 401 l 2
 404 243.666666667 405 165 536 165 c 2
 643 165 l 1
EndSplineSet
EndChar

StartChar: m
Encoding: 109 109 78
Width: 1977
Flags: W
HStem: 0 21G<158 407 890 1139 1622 1871> 910 188<554.336 827.714 1284.13 1558.98> 1046 20G<155 389.019>
VStem: 155 233<909 1066> 158 249<0 769.878> 890 249<0 768.218> 1622 249<0 839.659>
LayerCount: 2
Fore
SplineSet
1139 679 m 1xd6
 1139 0 l 1
 890 0 l 1
 890 530 l 2
 890 749.308510638 889 910 705 910 c 4
 557 910 437 794.991111111 407 681 c 1
 407 0 l 1
 158 0 l 1
 158 795 l 2xce
 158 876 155 1066 155 1066 c 1
 388 1066 l 1xb6
 396 909 l 1
 480 1027.62792969 589 1098 750 1098 c 0
 922 1098 1030 1022.6171875 1087 901 c 1
 1179 1024.62792969 1302 1098 1482 1098 c 0
 1763 1098 1871 900.57421875 1871 634 c 2
 1871 0 l 1
 1622 0 l 1
 1622 530 l 2
 1622 749.308510638 1621 910 1437 910 c 4
 1289 910 1169 792.973568282 1139 679 c 1xd6
EndSplineSet
EndChar

StartChar: n
Encoding: 110 110 79
Width: 1267
Flags: W
HStem: 0 21G<158 407 912 1161> 910 188<571.334 853.233> 1046 20G<155 388.904>
VStem: 155 233<889 1066> 158 249<0 757.663 889 1022.55> 912 249<0 849.966>
LayerCount: 2
Fore
SplineSet
912 0 m 1xd4
 912 610 l 2
 913 783 910 910 717 910 c 0
 563 910 438 785 407 661 c 1
 407 0 l 1
 158 0 l 1
 158 795 l 2xcc
 158 876 155 1066 155 1066 c 1
 388 1066 l 1xb4
 396 889 l 1
 482 1020 595 1098 762 1098 c 0
 1050 1098 1161 901 1161 634 c 2
 1161 0 l 1
 912 0 l 1xd4
EndSplineSet
EndChar

StartChar: o
Encoding: 111 111 80
Width: 1278
Flags: W
HStem: -23 188<498.36 803.64> 910 188<498.36 803.64>
VStem: 92 243<339.463 729.34> 967 243<339.463 729.34>
LayerCount: 2
Back
SplineSet
639 -23 m 4
 1020 -23 1198 262 1198 542 c 4
 1198 822 1020 1098 639 1098 c 4
 258 1098 80 822 80 542 c 4
 80 262 258 -23 639 -23 c 4
323 542 m 4
 323 786 481 907 639 907 c 4
 797 907 955 786 955 542 c 4
 955 291 797 165 639 165 c 4
 481 165 323 291 323 542 c 4
EndSplineSet
Fore
SplineSet
651 1098 m 4
 1032 1098 1210 813.496453901 1210 533 c 4
 1210 253 1032 -23 651 -23 c 4
 270 -23 92 253 92 533 c 4
 92 813.496453901 270 1098 651 1098 c 4
335 533 m 4
 335 286.994520548 493 165 651 165 c 4
 809 165 967 286.994520548 967 533 c 4
 967 783.659517426 809 910 651 910 c 4
 493 910 335 783.659517426 335 533 c 4
EndSplineSet
EndChar

StartChar: p
Encoding: 112 112 81
Width: 1343
Flags: W
HStem: -410 21G<155 403> -23 188<570.055 869.674> 910 188<568.752 868.514> 1046.04 20G<155 404>
VStem: 155 248<-410 165 331.729 741.769 910 1066.04> 1032 243<339.339 729.849>
LayerCount: 2
Fore
SplineSet
404 910 m 1xec
 487 1025.2265625 604 1098 759 1098 c 0
 1104 1098 1275 799.458984375 1275 546 c 0
 1275 262 1114 -23 759 -23 c 0
 600.4453125 -23 484.770507812 54.537109375 403 165 c 5
 403 -410 l 1
 155 -410 l 1
 155 910 l 2xec
 155 1066.04296875 l 1
 404 1066.04296875 l 1xdc
 404 910 l 1xec
401 536 m 0
 401 286.986328125 556 165 713 165 c 0
 872 165 1032 291.018554688 1032 536 c 0
 1032 783.6484375 872 910 714 910 c 0
 557 910 401 786.680664062 401 536 c 0
EndSplineSet
EndChar

StartChar: q
Encoding: 113 113 82
Width: 1367
Flags: W
HStem: -23 188<497.326 796.997> 910 188<498.486 798.248>
VStem: 92 243<339.335 729.833> 964 248<331.735 741.911>
LayerCount: 2
Fore
SplineSet
963 910 m 5
 880 1025 763 1098 608 1098 c 4
 263 1098 92 799 92 546 c 4
 92 262 253 -23 608 -23 c 4
 767 -23 882 55 964 165 c 5
 964 -410 l 5
 1212 -410 l 5
 1212 910 l 6
 1212 1066 l 5
 963 1066 l 5
 963 910 l 5
966 536 m 4
 966 287 811 165 654 165 c 4
 495 165 335 291 335 536 c 4
 335 784 495 910 653 910 c 4
 810 910 966 787 966 536 c 4
EndSplineSet
EndChar

StartChar: r
Encoding: 114 114 83
Width: 770
Flags: W
HStem: 0 21G<158 407> 899 199<517.658 740> 1046 20G<155 388.993>
VStem: 155 233<925 1066> 158 249<0 786.804 925 1031.39>
LayerCount: 2
Fore
SplineSet
740 891 m 1xd0
 706 896.333007812 674 899 644 899 c 0
 494 899 407 774 407 592 c 2
 407 0 l 1
 158 0 l 1
 158 826 l 2xc8
 158 906 155 988 155 1066 c 1
 388 1066 l 1xb0
 395 925 l 1
 457 1026.58691406 545 1098 672 1098 c 0
 701 1098 740 1090 740 1090 c 1
 740 891 l 1xd0
EndSplineSet
EndChar

StartChar: s
Encoding: 115 115 84
Width: 1067
Flags: W
HStem: -23 210<307.884 722.932> 888 210<380.434 790.128>
VStem: 116 238<702.178 853.63> 751 242<220.194 383.647>
DStem2: 520 660 443 469 0.977414 -0.211333<-168.858 270.368>
LayerCount: 2
Fore
SplineSet
568 437 m 2
 443 469 l 2
 277 509 116 581 116 784 c 0
 116 999.686900958 309 1098 549 1098 c 4
 721 1098 842 1059.64150943 942 991 c 1
 872 801 l 1
 796 848 701 888 555 888 c 0
 434 888 354 858 354 782 c 0
 354 699 417 683 520 660 c 2
 668 628 l 2
 836 590 993 518 993 313 c 0
 993 84 809 -23 556 -23 c 0
 349 -23 199 29 97 118 c 1
 170 320 l 1
 253 247 358 187 540 187 c 0
 685 187 751 216 751 309 c 0
 751 380 676 409 568 437 c 2
EndSplineSet
EndChar

StartChar: t
Encoding: 116 116 85
Width: 797
Flags: W
HStem: -23 188<485.79 699> 910 156<43 207 456 700> 1432 20G<367.071 456>
VStem: 207 249<189.666 910 1066 1396>
LayerCount: 2
Fore
SplineSet
699 165 m 5
 699 -23 l 1
 588 -23 l 2
 244 -23 207 135 207 416 c 2
 207 910 l 1
 43 910 l 1
 43 1066 l 1
 207 1066 l 1
 207 1396 l 1
 456 1452 l 1
 456 1066 l 1
 700 1066 l 1
 700 910 l 1
 456 910 l 1
 456 401 l 2
 456 243.666666667 457 165 588 165 c 6
 699 165 l 5
EndSplineSet
EndChar

StartChar: u
Encoding: 117 117 86
Width: 1188
Flags: W
HStem: -23 188<447.507 740.493> 1046 20G<100 349 839 1088>
VStem: 100 249<266.088 1066> 839 249<266.088 1066>
LayerCount: 2
Fore
SplineSet
594 -23 m 0
 293 -23 100 150 100 416 c 2
 100 1066 l 1
 349 1066 l 1
 349 420 l 2
 349 268.318965517 445 165 594 165 c 4
 743 165 839 268.318965517 839 420 c 2
 839 1066 l 1
 1088 1066 l 1
 1088 416 l 2
 1088 150 895 -23 594 -23 c 0
EndSplineSet
EndChar

StartChar: v
Encoding: 118 118 87
Width: 1186
Flags: W
HStem: 0 21G<471.764 732.33> 1046 20G<41 307.788 905.288 1168>
DStem2: 300 1066 41 1066 0.380793 -0.92466<0 848.691> 608 275 724 0 0.384492 0.923128<0 847.465>
LayerCount: 2
Fore
SplineSet
724 0 m 1
 480 0 l 1
 41 1066 l 1
 300 1066 l 1
 608 275 l 1
 913 1066 l 1
 1168 1066 l 1
 724 0 l 1
EndSplineSet
EndChar

StartChar: w
Encoding: 119 119 88
Width: 1806
Flags: W
HStem: 0 21G<400.171 630 1143.03 1373.84> 1046 20G<43 301 806.342 1042.09 1528.85 1784>
VStem: 43 252<814 1066>
DStem2: 523 306 630 17 0.35776 0.933814<0 574.962> 1036 1066 919 770 0.286206 -0.958168<250.132 789.244> 1266 311 1366 0 0.365058 0.930985<0 801.459>
LayerCount: 2
Fore
SplineSet
1366 0 m 1
 1149 0 l 5
 919 770 l 1
 630 17 l 1
 624 0 l 1
 407 0 l 1
 43 1066 l 1
 295 1066 l 1
 523 306 l 1
 814 1066 l 1
 1036 1066 l 1
 1266 311 l 1
 1536 1066 l 1
 1784 1066 l 1
 1366 0 l 1
EndSplineSet
EndChar

StartChar: x
Encoding: 120 120 89
Width: 1149
Flags: W
HStem: 0 21G<39 325.772 868.736 1158> 1046 20G<58 349.747 870.375 1146>
VStem: 39 272<0 272> 58 278<788 1066> 883 275<0 275 791 1066>
DStem2: 39 0 311 0 0.604289 0.796766<164.366 654.14> 336 1066 58 1066 0.587267 -0.809393<0 469.448> 602 679 762 538 0.588172 0.808736<0 479.433> 762 538 602 394 0.59279 -0.805357<21.1249 505.01>
LayerCount: 2
Fore
SplineSet
311 0 m 1xe8
 39 0 l 1xe8
 444 534 l 1
 58 1066 l 1
 336 1066 l 1xd8
 602 679 l 1
 885 1066 l 1
 1146 1066 l 1
 762 538 l 1
 1158 0 l 1
 883 0 l 1
 602 394 l 1
 311 0 l 1xe8
EndSplineSet
EndChar

StartChar: y
Encoding: 121 121 90
Width: 1141
Flags: W
HStem: -388 187<122 371.383> 1046 20G<29 292.599 888.999 1153>
LayerCount: 2
Back
SplineSet
121 -200.299804688 m 5
 121 -388.299804688 l 5
 228 -388.299804688 l 6
 572 -388.299804688 609 -218.299804688 609 80.7001953125 c 6
 609 1140.70019531 l 5
 360 1140.70019531 l 5
 360 35.7001953125 l 6
 360 -121.299804688 359 -200.299804688 228 -200.299804688 c 6
 121 -200.299804688 l 5
EndSplineSet
Fore
SplineSet
285 1066 m 1
 603 229 l 5
 896 1066 l 1
 1153 1066 l 1
 726 6 l 1
 670 -261.679389313 494 -388 144 -388 c 2
 122 -388 l 1
 122 -201 l 1
 164 -201 l 2
 357.477203647 -201 460.790273556 -139 473 36 c 1
 29 1066 l 1
 285 1066 l 1
EndSplineSet
EndChar

StartChar: z
Encoding: 122 122 91
Width: 1012
Flags: W
HStem: 0 193<355 952> 872 194<71 629>
DStem2: 45 155 355 193 0.62693 0.779076<223.953 924.724>
LayerCount: 2
Fore
SplineSet
45 155 m 1
 629 872 l 1
 71 872 l 1
 71 1066 l 1
 936 1066 l 1
 936 915 l 1
 355 193 l 1
 952 193 l 1
 952 0 l 1
 45 0 l 1
 45 155 l 1
EndSplineSet
EndChar

StartChar: braceleft
Encoding: 123 123 92
Width: 733
Flags: W
HStem: -221 176<528.124 666> 547 186<86 256.097> 1325 176<528.124 666>
VStem: 283 224<-26.514 523.463 756.687 1306.51>
CounterMasks: 1 e0
LayerCount: 2
Fore
SplineSet
666 1501 m 1
 666 1325 l 1
 641 1325 l 2
 503 1325 507 1274 507 1118 c 2
 507 908 l 2
 507 786 462 693 379 640 c 1
 464 587 507 494 507 373 c 2
 507 138 l 2
 507 3 508 -45 641 -45 c 2
 666 -45 l 1
 666 -221 l 1
 641 -221 l 2
 426 -221 283 -153 283 65 c 2
 283 320 l 2
 283 449 273 547 175 547 c 2
 86 547 l 1
 86 733 l 1
 175 733 l 2
 273 733 283 831 283 960 c 2
 283 1215 l 2
 283 1433 426 1501 641 1501 c 2
 666 1501 l 1
EndSplineSet
EndChar

StartChar: bar
Encoding: 124 124 93
Width: 516
Flags: W
HStem: 1469 20G<152 366>
VStem: 152 214<-280 1489>
LayerCount: 2
Fore
SplineSet
366 -280 m 1
 152 -280 l 1
 152 1489 l 1
 366 1489 l 1
 366 -280 l 1
EndSplineSet
EndChar

StartChar: braceright
Encoding: 125 125 94
Width: 733
Flags: W
HStem: -221 176<68 205.876> 547 186<477.903 648> 1325 176<68 205.876>
VStem: 227 224<-26.514 523.313 756.537 1306.51>
CounterMasks: 1 e0
LayerCount: 2
Fore
SplineSet
68 -221 m 1
 68 -45 l 1
 93 -45 l 2
 231 -45 227 6 227 162 c 2
 227 372 l 2
 227 494 272 587 355 640 c 1
 270 693 227 786 227 907 c 2
 227 1142 l 2
 227 1277 226 1325 93 1325 c 2
 68 1325 l 1
 68 1501 l 1
 93 1501 l 2
 308 1501 451 1433 451 1215 c 2
 451 960 l 2
 451 831 461 733 559 733 c 2
 648 733 l 1
 648 547 l 1
 559 547 l 2
 461 547 451 449 451 320 c 2
 451 65 l 2
 451 -153 308 -221 93 -221 c 2
 68 -221 l 1
EndSplineSet
EndChar

StartChar: asciitilde
Encoding: 126 126 95
Width: 1485
Flags: W
HStem: 385 184<842.853 1077.5> 525 184<389.169 501 502 673.844>
VStem: 1127 167<619.606 681.957>
LayerCount: 2
Fore
SplineSet
502 526 m 1xa0
 501 525 l 1
 406 525 357 465 340 403 c 1
 334 372 l 1
 178 441 l 1
 182 458 l 1
 210 587 314 709 499 709 c 0x60
 676 709 810 615 931 578 c 0
 952 572 969 569 981 569 c 0
 1064 569 1109 638 1127 704 c 1
 1133 730 l 1
 1299 679 l 1
 1294 658 l 2
 1262 521 1171 385 979 385 c 0
 775 385 672 526 502 526 c 1xa0
EndSplineSet
EndChar

StartChar: exclamdown
Encoding: 259 161 96
Width: 750
Flags: W
HStem: -384 21G<296 493> 834 256<248 501>
VStem: 248 253<834 1090> 296 197<-384 744>
LayerCount: 2
Fore
SplineSet
501 834 m 1xe0
 248 834 l 1
 248 1090 l 1
 501 1090 l 1
 501 834 l 1xe0
296 744 m 1xd0
 493 744 l 1
 493 -384 l 1
 296 -384 l 1
 296 744 l 1xd0
EndSplineSet
EndChar

StartChar: cent
Encoding: 260 162 97
Width: 1229
Flags: W
HStem: -28 176<775 918.485> 880 175<531.605 631>
VStem: 162 216<297.089 710.679> 554 194<-256 -62> 658 194<1067 1261>
DStem2: 554 -256 748 -255 0.0683958 0.997658<14.2664 241.748 418.169 1138.61 1314.02 1520.56>
LayerCount: 2
Fore
SplineSet
748 -255 m 1xf0
 554 -256 l 1xf0
 570 -20 l 1
 302 28 162 228 162 502 c 0
 162 799 327 1028 643 1055 c 1
 658 1261 l 1
 852 1261 l 1xe8
 837 1047 l 1
 943 1026 1026 980 1078 909 c 1
 1088 895 l 1
 988 749 l 1
 967 776 l 1
 932 819 885 850 824 867 c 1
 775 148 l 1
 864 158 937 192 1005 252 c 2
 1034 278 l 1
 1095 93 l 1
 1082 83 l 1
 1000 18 901 -20 763 -28 c 1
 748 -255 l 1xf0
631 880 m 1
 465 839 378 697 378 508 c 0
 378 328 445 203 583 155 c 1
 631 880 l 1
EndSplineSet
EndChar

StartChar: sterling
Encoding: 261 163 98
Width: 1229
Flags: W
HStem: 0 199<453 1160> 0 167<140 204.433> 631 182<102 288 527 946> 1270 200<624.532 947.665>
VStem: 288 239<253.786 630 813 1166.53>
LayerCount: 2
Fore
SplineSet
140 0 m 1x78
 110 159 l 1
 128 167 l 1x78
 241 216 288 279 288 440 c 2
 288 630 l 1
 102 630 l 1
 102 812 l 1
 288 812 l 1
 288 901 l 2
 288 1230 388 1470 780 1470 c 0
 972 1470 1091 1394 1166 1287 c 1
 1177 1271 l 1
 1056 1137 l 1
 1037 1156 l 2
 973 1220 902 1270 779 1270 c 0
 594 1270 526 1157 526 983 c 2
 526 813 l 1
 946 813 l 1
 946 631 l 1
 527 631 l 1
 527 498 l 2
 527 379 511 273 453 198 c 1
 469 199 482 199 498 199 c 2
 1160 199 l 1
 1160 0 l 1xb8
 140 0 l 1x78
EndSplineSet
EndChar

StartChar: fraction
Encoding: 262 8260 99
Width: 451
Flags: W
HStem: 0 21G<-319 -103.936>
VStem: -319 202<0 202> 622 199<1237 1436>
DStem2: -319 0 -117 0 0.548097 0.836415<110.715 1716.85>
LayerCount: 2
Fore
SplineSet
-319 0 m 1
 622 1436 l 1
 821 1436 l 1
 -117 0 l 1
 -319 0 l 1
EndSplineSet
EndChar

StartChar: yen
Encoding: 263 165 100
Width: 1229
Flags: W
HStem: 0 21G<552 766> 258 190<125 548 766 1186> 549 192<117 461 793 1133>
VStem: 552 214<0 258> 1004 236<1184 1420>
LayerCount: 2
Fore
SplineSet
1186 258 m 1
 766 258 l 1
 766 0 l 1
 552 0 l 1
 552 258 l 1
 125 258 l 1
 111 448 l 1
 548 448 l 1
 518 549 l 1
 117 549 l 1
 117 741 l 1
 461 741 l 1
 25 1420 l 1
 279 1420 l 1
 286 1407 l 1
 404 1213 527 1018 642 822 c 1
 1004 1420 l 1
 1240 1420 l 1
 793 741 l 1
 1133 741 l 1
 1133 549 l 1
 745 549 l 1
 761 448 l 1
 1186 448 l 1
 1186 258 l 1
EndSplineSet
EndChar

StartChar: florin
Encoding: 264 402 101
Width: 1231
Flags: W
HStem: -334 189<82.2109 261.195> 762 184<330 476 748 928> 1241 195<812.38 1051.18>
DStem2: 319 30 582 122 0.197073 0.980389<-166.3 751.526 982.58 1271.85>
LayerCount: 2
Fore
SplineSet
1062 1411 m 1
 1049 1208 l 1
 1016 1221 l 2
 986 1233 958 1241 922 1241 c 0
 826 1241 796 1197 780 1107 c 1
 748 946 l 1
 942 946 l 1
 928 762 l 1
 713 762 l 1
 582 122 l 2
 540 -80 482 -334 194 -334 c 0
 163 -334 128 -328 88 -317 c 2
 68 -311 l 1
 85 -119 l 1
 116 -131 l 2
 141 -141 163 -145 181 -145 c 0
 266 -145 296 -59 319 30 c 1
 384 263 425 520 476 765 c 1
 315 765 l 1
 330 948 l 1
 511 948 l 1
 530 1072 l 2
 559 1265 651 1436 899 1436 c 0
 950 1436 1000 1427 1042 1416 c 2
 1062 1411 l 1
EndSplineSet
EndChar

StartChar: section
Encoding: 253 167 102
Width: 1143
Flags: W
HStem: -48 184<269.794 679.642> 1304 186<452.742 841.707>
VStem: 174 218<653.244 832.593> 208 214<1116.64 1272.23> 727 216<181.594 333.908> 744 220<631.266 797.901>
LayerCount: 2
Fore
SplineSet
199 218 m 1xc8
 234 197 l 1
 309 161 382 136 487 136 c 0
 625 136 727 176 727 261 c 0
 727 343 613 370 508 407 c 1
 413 442 l 1
 298 491 174 572 174 729 c 0xe8
 174 849 254 922 331 968 c 1
 262 1018 208 1086 208 1200 c 0
 208 1408 396 1490 632 1490 c 0
 738 1490 800 1471 871 1448 c 1
 888 1443 l 1
 891 1237 l 1
 855 1254 l 2
 801 1280 727 1304 639 1304 c 0
 510 1304 422 1277 422 1199 c 0
 422 1135 469 1107 536 1076 c 0
 684 1007 964 951 964 732 c 0xd4
 964 612 883 536 810 486 c 1
 882 442 943 377 943 265 c 0
 943 51 741 -48 494 -48 c 0
 381 -48 290 -27 215 6 c 1
 200 12 l 1
 199 218 l 1xc8
744 720 m 0xe4
 744 814 617 835 508 880 c 1
 442 847 392 806 392 738 c 0
 392 645 505 610 614 572 c 1
 683 610 744 653 744 720 c 0xe4
EndSplineSet
EndChar

StartChar: currency
Encoding: 265 164 103
Width: 1276
Flags: W
HStem: 270 100<464.259 746.212> 954 123<425.626 721.113>
VStem: 178 139<481.715 840.15> 850 140<479.637 843.226>
DStem2: 284 1308 200 1274 0.496139 -0.868243<0 299.456 1111.6 1419.58> 294 67 374 32 0.376579 0.926384<0 254.597 1068.29 1346.01>
LayerCount: 2
Fore
SplineSet
294 67 m 1
 383 302 l 1
 255 363 178 488 178 659 c 0
 178 815 242 936 345 1002 c 1
 200 1274 l 1
 284 1308 l 1
 426 1055 l 1
 475 1070 527 1077 587 1077 c 0
 628 1077 671 1072 710 1064 c 1
 813 1309 l 1
 899 1276 l 1
 800 1017 l 1
 921 952 990 829 990 664 c 0
 990 522 933 408 847 342 c 1
 992 69 l 1
 914 33 l 1
 772 304 l 1
 720 282 659 270 581 270 c 0
 542 270 505 273 474 278 c 1
 374 32 l 1
 294 67 l 1
851 660 m 1
 850 660 l 1
 850 834 772 954 582 954 c 0
 399 954 317 828 317 660 c 0
 317 491 400 370 586 370 c 0
 770 370 851 492 851 660 c 1
EndSplineSet
EndChar

StartChar: quotesingle
Encoding: 39 39 104
Width: 573
Flags: W
HStem: 937 506<205 375>
VStem: 168 207<1246.95 1443> 205 170<937 1133.05>
LayerCount: 2
Fore
SplineSet
375 937 m 1xa0
 205 937 l 1xa0
 168 1443 l 1
 375 1443 l 1xc0
 375 937 l 1xa0
EndSplineSet
EndChar

StartChar: quotedblleft
Encoding: 266 8220 105
Width: 1024
Flags: W
HStem: 983 490<445 509 754 821>
VStem: 197 650
LayerCount: 2
Fore
SplineSet
536 983 m 1
 361 983 l 1
 197 1473 l 1
 425 1473 l 1
 536 983 l 1
847 983 m 1
 670 983 l 1
 509 1473 l 1
 737 1473 l 1
 847 983 l 1
EndSplineSet
EndChar

StartChar: guillemotleft
Encoding: 267 171 106
Width: 1198
Flags: W
VStem: 510 239<171 410 675 914>
DStem2: 456 541 233 541 0.620811 -0.78396<0 323.589>
LayerCount: 2
Fore
SplineSet
517 914 m 1
 760 914 l 1
 456 541 l 1
 749 171 l 1
 510 171 l 1
 233 541 l 1
 517 914 l 1
913 914 m 1
 1125 914 l 1
 855 541 l 1
 1117 171 l 1
 908 171 l 1
 601 541 l 1
 913 914 l 1
EndSplineSet
EndChar

StartChar: guilsinglleft
Encoding: 268 8249 107
Width: 659
Flags: W
VStem: 372 209<171 380 705 914>
DStem2: 321 541 100 541 0.592307 -0.805712<0 328.321> 100 541 321 541 0.59759 0.801802<132.067 465.202>
LayerCount: 2
Fore
SplineSet
378 914 m 1
 588 914 l 1
 321 541 l 1
 581 171 l 1
 372 171 l 1
 100 541 l 1
 378 914 l 1
EndSplineSet
EndChar

StartChar: guilsinglright
Encoding: 269 8250 108
Width: 659
Flags: W
VStem: 98 209<171 380 705 914>
DStem2: 98 171 307 171 0.603775 0.797155<126.189 456.349>
LayerCount: 2
Fore
SplineSet
307 171 m 1
 98 171 l 1
 364 542 l 1
 106 914 l 1
 313 914 l 1
 588 542 l 1
 307 171 l 1
EndSplineSet
EndChar

StartChar: fi
Encoding: 270 64257 109
Width: 1245
Flags: W
HStem: 0 21G<234 440 876 1082> 869 157<43 234 440 876> 1257 205<883 1079> 1329 185<469.886 729.812>
VStem: 234 206<0 869 1026 1302.16> 876 206<0 869 1257 1462>
LayerCount: 2
Fore
SplineSet
733 1302 m 1xdc
 694 1316 l 2
 671 1324 625 1329 586 1329 c 0
 460 1329 441 1268 441 1137 c 1
 440 1026 l 1
 1082 1026 l 1
 1082 0 l 1
 876 0 l 1
 876 869 l 1
 440 869 l 1
 440 0 l 1
 234 0 l 1
 234 869 l 1
 43 869 l 1
 43 1026 l 1
 234 1026 l 1
 236 1113 l 1
 239 1330 307 1514 557 1514 c 0
 621 1514 663 1501 709 1492 c 2
 730 1488 l 1
 733 1302 l 1xdc
883 1257 m 1xec
 883 1462 l 1
 1079 1462 l 1
 1079 1257 l 1
 883 1257 l 1xec
EndSplineSet
EndChar

StartChar: fl
Encoding: 271 64258 110
Width: 1194
Flags: W
HStem: -23 199<1063.91 1197> 0 21G<208 449.023> 865 155<37 208 450 691> 1286 203<480.125 706>
VStem: 208 242<0 865 1020 1256.46> 808 232<204.732 1492>
LayerCount: 2
Fore
SplineSet
707 1489 m 1x7c
 706 1286 l 1
 652 1286 l 2
 463 1286 450 1250 450 1058 c 2
 450 1020 l 1
 691 1020 l 1
 691 865 l 1
 450 865 l 1
 449 0 l 1
 208 0 l 1
 208 865 l 1
 37 865 l 1
 37 1020 l 1
 208 1020 l 1
 208 1200 208 1368 350 1439 c 0
 433 1480 534 1489 653 1489 c 2
 707 1489 l 1x7c
1197 176 m 1xbc
 1197 -23 l 1
 1172 -23 l 2
 846 -23 808 147 808 446 c 2
 808 1492 l 1
 1041 1492 l 1
 1040 401 l 2
 1040 251 1041 176 1172 176 c 2
 1197 176 l 1xbc
EndSplineSet
EndChar

StartChar: endash
Encoding: 272 8211 111
Width: 1130
Flags: W
HStem: 439 187<-6 1130>
LayerCount: 2
Fore
SplineSet
-6 626 m 1
 1130 626 l 1
 1130 439 l 1
 -6 439 l 1
 -6 626 l 1
EndSplineSet
EndChar

StartChar: dagger
Encoding: 273 8224 112
Width: 1071
Flags: W
HStem: 909 182<100 420 632 972> 1431 20G<420 632>
VStem: 420 212<1091 1451> 420 197<113 909>
LayerCount: 2
Fore
SplineSet
617 113 m 1xd0
 420 113 l 1
 420 909 l 1xd0
 100 909 l 1
 100 1091 l 1
 420 1091 l 1
 420 1451 l 1
 632 1451 l 1
 632 1091 l 1xe0
 972 1091 l 1
 972 909 l 1
 617 909 l 1
 617 113 l 1xd0
EndSplineSet
EndChar

StartChar: daggerdbl
Encoding: 274 8225 113
Width: 1069
Flags: W
HStem: 410 177<92 429 623 961> 958 182<97 431 629 968> 1431 20G<407 629>
VStem: 407 222<1291.77 1451> 431 190<587 958>
LayerCount: 2
Fore
SplineSet
92 587 m 1xe8
 431 587 l 1
 431 958 l 1xe8
 97 958 l 1
 97 1140 l 1
 435 1140 l 1
 407 1451 l 1
 629 1451 l 1
 629 1140 l 1xf0
 968 1140 l 1
 968 958 l 1
 621 958 l 1
 621 587 l 1
 961 587 l 1
 961 410 l 1
 623 410 l 1
 652 113 l 1
 405 113 l 1
 429 410 l 1
 92 410 l 1
 92 587 l 1xe8
EndSplineSet
EndChar

StartChar: periodcentered
Encoding: 275 -1 114
Width: 471
Flags: W
HStem: 463 260<72 328>
VStem: 72 256<463 723>
LayerCount: 2
Fore
SplineSet
72 723 m 1
 328 723 l 1
 328 463 l 1
 72 463 l 1
 72 723 l 1
EndSplineSet
EndChar

StartChar: paragraph
Encoding: 276 182 115
Width: 1253
Flags: W
HStem: 1277 174<636 803 976 1058>
VStem: 102 534<936.263 1275.1> 430 206<-147 764.185> 803 173<-148 1277>
LayerCount: 2
Fore
SplineSet
636 -148 m 1xb0
 430 -147 l 1
 430 760 l 1xb0
 228 774 102 923 102 1116 c 0xd0
 102 1389 360 1451 649 1451 c 2
 1058 1451 l 1
 1058 1277 l 1
 976 1277 l 1
 976 -148 l 1
 803 -148 l 1
 803 1277 l 1
 636 1277 l 1
 636 -148 l 1xb0
EndSplineSet
EndChar

StartChar: bullet
Encoding: 277 8226 116
Width: 1038
Flags: W
HStem: 335 675<336.492 705.833>
VStem: 150 742<510.06 831.813>
LayerCount: 2
Fore
SplineSet
518 335 m 0
 301 335 150 476 150 669 c 0
 150 863 307 1010 525 1010 c 0
 741 1010 892 869 892 676 c 0
 892 480 737 335 518 335 c 0
EndSplineSet
EndChar

StartChar: quotesinglbase
Encoding: 278 8218 117
Width: 575
Flags: W
HStem: -288 489<230 294>
VStem: 119 338
LayerCount: 2
Fore
SplineSet
294 -288 m 1
 119 -288 l 1
 230 201 l 1
 457 201 l 1
 294 -288 l 1
EndSplineSet
EndChar

StartChar: quotedblbase
Encoding: 279 8222 118
Width: 1071
Flags: W
HStem: -288 489<531 596 921 986>
LayerCount: 2
Fore
SplineSet
346 -288 m 1
 170 -288 l 1
 281 201 l 1
 531 201 l 1
 346 -288 l 1
736 -288 m 1
 537 -288 l 1
 671 201 l 1
 899 201 l 1
 736 -288 l 1
EndSplineSet
EndChar

StartChar: quotedblright
Encoding: 280 8221 119
Width: 1024
Flags: W
HStem: 983 490<307 374 619 683>
VStem: 197 650
LayerCount: 2
Fore
SplineSet
683 983 m 1
 508 983 l 1
 619 1473 l 1
 847 1473 l 1
 683 983 l 1
374 983 m 1
 197 983 l 1
 307 1473 l 1
 535 1473 l 1
 374 983 l 1
EndSplineSet
EndChar

StartChar: guillemotright
Encoding: 281 187 120
Width: 1198
Flags: W
VStem: 553 237<171 408 677 914>
DStem2: 553 171 790 171 0.624952 0.780663<148.114 475.237> 797 914 562 914 0.612173 -0.790724<0 326.594>
LayerCount: 2
Fore
SplineSet
790 171 m 1
 553 171 l 1
 850 542 l 1
 562 914 l 1
 797 914 l 1
 1074 542 l 1
 790 171 l 1
369 171 m 1
 156 171 l 1
 428 542 l 1
 163 914 l 1
 374 914 l 1
 680 542 l 1
 369 171 l 1
EndSplineSet
EndChar

StartChar: ellipsis
Encoding: 282 8230 121
Width: 1638
Flags: W
HStem: -61 260<152 408 682 954 1228 1484>
VStem: 152 256<-61 199> 682 272<-61 199> 1228 256<-61 199>
CounterMasks: 1 70
LayerCount: 2
Fore
SplineSet
152 199 m 1
 408 199 l 1
 408 -61 l 1
 152 -61 l 1
 152 199 l 1
682 199 m 1
 954 199 l 1
 954 -61 l 1
 682 -61 l 1
 682 199 l 1
1228 199 m 1
 1484 199 l 1
 1484 -61 l 1
 1228 -61 l 1
 1228 199 l 1
EndSplineSet
EndChar

StartChar: perthousand
Encoding: 283 8240 122
Width: 2365
Flags: W
HStem: -27 163<1052.93 1274.54 1823.66 2043.92> 542 164<1055.14 1279.35 1826.43 2049> 715 163<309.361 528.573> 1064 20G<259 260> 1285 163<310.43 532.178>
VStem: 70 189<935.219 1229.05> 216 207<-25 182> 583 192<933.531 1229.05> 808 194<193.219 487.469> 1162 205<1237 1442> 1330 191<190.877 488.904> 1580 193<190.034 489.449> 2099 186<189.891 489.202>
DStem2: 216 -25 423 -25 0.541944 0.840414<112.182 1745.57>
LayerCount: 2
Fore
SplineSet
1521 337 m 1xf9b8
 1520 126 1392 -27 1164 -27 c 0
 930 -27 808 127 808 341 c 0
 808 553 937 706 1167 706 c 0
 1403 706 1521 553 1521 337 c 1xf9b8
775 1080 m 2
 775 1079 l 2
 775 869 646 715 418 715 c 0
 188 715 70 869 70 1083 c 0xfd98
 70 1294 194 1448 420 1448 c 0
 656 1448 775 1297 775 1080 c 2
2285 338 m 0
 2285 127 2159 -27 1934 -27 c 0
 1702 -27 1580 128 1580 341 c 0
 1580 553 1709 706 1939 706 c 0
 2171 706 2285 554 2285 338 c 0
1367 1442 m 1xfbd8
 423 -25 l 1
 216 -25 l 1
 1162 1442 l 1
 1367 1442 l 1xfbd8
1002 341 m 2
 1002 340 l 2
 1002 221 1053 136 1167 136 c 0
 1278 136 1330 223 1330 339 c 0xf9b8
 1330 459 1281 542 1166 542 c 0
 1054 542 1002 457 1002 341 c 2
1773 340 m 0
 1773 220 1823 136 1938 136 c 0
 2049 136 2099 224 2099 340 c 0
 2099 458 2050 542 1937 542 c 0
 1824 542 1773 457 1773 340 c 0
259 1083 m 1xfd98
 260 1084 l 1
 260 964 309 878 423 878 c 0xfb98
 532 878 583 966 583 1081 c 0
 583 1200 533 1285 419 1285 c 0
 309 1285 259 1199 259 1083 c 1xfd98
EndSplineSet
EndChar

StartChar: questiondown
Encoding: 284 191 123
Width: 1030
Flags: W
HStem: -11 193<364.153 742.721> 1065 20G<451 671.739> 1266 179<455 661>
VStem: 76 215<248.623 488.711> 441 242<812.043 1085> 455 206<1266 1445>
LayerCount: 2
Fore
SplineSet
898 108 m 1xf8
 883 99 l 1
 798 39 683 -11 528 -11 c 0
 263 -11 76 112 76 354 c 0
 76 558 222 657 319 746 c 1
 370 786 423 828 441 876 c 1
 441 878 l 1
 451 899 451 917 451 952 c 2
 451 1085 l 1
 670 1085 l 1
 672 1062 l 2
 677 1008 683 948 683 887 c 0
 683 798 627 738 575 694 c 0
 459 596 291 520 291 360 c 0
 291 241 394 182 549 182 c 0
 672 182 739 222 810 263 c 2
 836 278 l 1
 898 108 l 1xf8
661 1266 m 1xf4
 455 1266 l 1
 455 1445 l 1
 661 1445 l 1
 661 1266 l 1xf4
EndSplineSet
EndChar

StartChar: grave
Encoding: 96 96 124
Width: 612
Flags: W
HStem: 1176 330
VStem: -51 522
LayerCount: 2
Fore
SplineSet
-51 1506 m 1
 248 1506 l 1
 471 1176 l 1
 273 1176 l 1
 -51 1506 l 1
EndSplineSet
EndChar

StartChar: acute
Encoding: 285 180 125
Width: 612
Flags: W
HStem: 1176 330
VStem: 181 522
LayerCount: 2
Fore
SplineSet
404 1506 m 1
 703 1506 l 1
 379 1176 l 1
 181 1176 l 1
 404 1506 l 1
EndSplineSet
EndChar

StartChar: circumflex
Encoding: 286 710 126
Width: 772
Flags: W
HStem: 1133 372
LayerCount: 2
Fore
SplineSet
212 1133 m 1
 35 1133 l 1
 294 1505 l 1
 511 1505 l 1
 770 1133 l 1
 587 1133 l 1
 398 1336 l 1
 212 1133 l 1
EndSplineSet
EndChar

StartChar: tilde
Encoding: 287 732 127
Width: 772
Flags: W
HStem: 1206 181<346.437 593.075> 1264 181<158.866 414.492>
LayerCount: 2
Fore
SplineSet
766 1445 m 1x40
 763 1421 l 1
 757 1305 689 1206 538 1206 c 0x80
 384 1206 312 1264 211 1264 c 0
 170 1264 159 1251 157 1225 c 2
 156 1209 l 1
 -10 1209 l 1
 -9 1231 l 1
 -6 1351 70 1445 220 1445 c 0x40
 385 1445 440 1387 551 1387 c 0x80
 583 1387 592 1401 595 1429 c 2
 597 1445 l 1
 766 1445 l 1x40
EndSplineSet
EndChar

StartChar: macron
Encoding: 288 -1 128
Width: 788
Flags: W
HStem: 1258 187<76 669>
VStem: 76 593<1258 1445>
LayerCount: 2
Fore
SplineSet
669 1445 m 1
 669 1258 l 1
 76 1258 l 1
 76 1445 l 1
 669 1445 l 1
EndSplineSet
EndChar

StartChar: breve
Encoding: 289 728 129
Width: 688
Flags: W
HStem: 1206 158<221.993 454.007> 1425 20G<43 217 459 633>
VStem: 43 174<1377.93 1445> 459 174<1377.67 1445>
LayerCount: 2
Fore
SplineSet
217 1445 m 1
 217 1423 l 2
 217 1386 261 1364 338 1364 c 0
 415 1364 459 1386 459 1423 c 2
 459 1445 l 1
 633 1445 l 1
 633 1421 l 2
 633 1282 498 1206 338 1206 c 0
 178 1206 43 1283 43 1421 c 2
 43 1445 l 1
 217 1445 l 1
EndSplineSet
EndChar

StartChar: dotaccent
Encoding: 290 729 130
Width: 582
Flags: W
HStem: 1232 213<174 376>
VStem: 174 202<1232 1445>
LayerCount: 2
Fore
SplineSet
376 1445 m 1
 376 1232 l 1
 174 1232 l 1
 174 1445 l 1
 376 1445 l 1
EndSplineSet
EndChar

StartChar: dieresis
Encoding: 291 168 131
Width: 766
Flags: W
HStem: 1230 215<86 302 460 676>
VStem: 86 216<1230 1445> 460 216<1230 1445>
LayerCount: 2
Fore
SplineSet
676 1445 m 1
 676 1230 l 1
 460 1230 l 1
 460 1445 l 1
 676 1445 l 1
302 1445 m 1
 302 1230 l 1
 86 1230 l 1
 86 1445 l 1
 302 1445 l 1
EndSplineSet
EndChar

StartChar: ring
Encoding: 292 730 132
Width: 664
Flags: W
HStem: 1149 136<232.61 388.33> 1395 135<232.647 388.533>
VStem: 86 144<1291.51 1389.54> 390 145<1290.46 1389.76>
LayerCount: 2
Fore
SplineSet
310 1395 m 0
 264 1395 230 1370 230 1340 c 0
 230 1307 258 1285 310 1285 c 0
 356 1285 390 1310 390 1340 c 0
 390 1371 358 1395 310 1395 c 0
311 1530 m 0
 436 1530 535 1452 535 1340 c 0
 535 1229 434 1149 312 1149 c 0
 187 1149 86 1226 86 1339 c 0
 86 1453 187 1530 311 1530 c 0
EndSplineSet
EndChar

StartChar: cedilla
Encoding: 293 184 133
Width: 586
Flags: W
HStem: -397 134<58.8125 307.636> -198 215<176 301.673>
VStem: 49 447<-337.332 -233>
LayerCount: 2
Fore
SplineSet
302 -79 m 1
 404 -84 496 -130 496 -234 c 0
 496 -359 363 -397 243 -397 c 0
 182 -397 123 -385 71 -374 c 1
 49 -370 l 1
 62 -233 l 1
 90 -240 l 2
 136 -252 180 -263 226 -263 c 0
 290 -263 310 -253 310 -231 c 0
 310 -207 288 -198 231 -198 c 0
 226 -198 209 -200 198 -201 c 2
 136 -205 l 1
 176 17 l 1
 319 17 l 1
 302 -79 l 1
EndSplineSet
EndChar

StartChar: hungarumlaut
Encoding: 294 733 134
Width: 1044
Flags: W
HStem: 1120 360
VStem: 414 208<1120 1328> 716 230<1250 1480>
LayerCount: 2
Fore
SplineSet
411 1480 m 1
 690 1480 l 1
 331 1120 l 1
 162 1120 l 1
 411 1480 l 1
716 1480 m 1
 946 1480 l 1
 622 1120 l 1
 414 1120 l 1
 716 1480 l 1
EndSplineSet
EndChar

StartChar: ogonek
Encoding: 295 731 135
Width: 565
Flags: W
HStem: -383 158<231.443 468.709> -346 164<308 472>
VStem: 45 185<-220.8 -116.251>
LayerCount: 2
Fore
SplineSet
270 19 m 1xa0
 475 0 l 1
 342 -70 230 -121 230 -179 c 0
 230 -204 259 -225 300 -225 c 0xa0
 358 -225 395 -213 472 -182 c 1
 472 -346 l 1x60
 408 -373 341 -383 277 -383 c 0
 158 -383 45 -331 45 -214 c 0
 45 -89 181 -22 270 19 c 1xa0
EndSplineSet
EndChar

StartChar: caron
Encoding: 296 711 136
Width: 770
Flags: W
HStem: 1174 331
LayerCount: 2
Fore
SplineSet
511 1174 m 1
 301 1174 l 1
 27 1505 l 1
 228 1505 l 1
 400 1345 l 1
 578 1505 l 1
 785 1505 l 1
 511 1174 l 1
EndSplineSet
EndChar

StartChar: emdash
Encoding: 297 8212 137
Width: 2163
Flags: W
HStem: 439 187<-2 2153>
LayerCount: 2
Fore
SplineSet
-2 626 m 1
 2153 626 l 1
 2153 439 l 1
 -2 439 l 1
 -2 626 l 1
EndSplineSet
EndChar

StartChar: AE
Encoding: 298 198 138
Width: 2025
Flags: W
HStem: 0 198<1294 1921> 373 198<575 1043> 647 198<1257 1860> 1258 198<978 988 1202 1900>
VStem: 4 243<0 243>
DStem2: 4 0 247 0 0.498382 0.866958<121.107 555.123 779.609 1576.06> 1202 1258 988 1258 0.0855359 -0.996335<0 414.309 613.465 670.882 870.038 1063.98>
LayerCount: 2
Fore
SplineSet
1043 571 m 1
 988 1258 l 1
 978 1258 l 1
 575 571 l 1
 1043 571 l 1
247 0 m 1
 4 0 l 1
 841 1456 l 1
 1900 1456 l 1
 1900 1258 l 1
 1202 1258 l 1
 1235 845 l 1
 1860 845 l 1
 1860 647 l 1
 1257 647 l 1
 1294 198 l 1
 1921 198 l 1
 1921 0 l 1
 1096 0 l 1
 1065 373 l 1
 469 373 l 1
 247 0 l 1
EndSplineSet
EndChar

StartChar: ordfeminine
Encoding: 299 170 139
Width: 758
Flags: W
HStem: 718 152<247.164 457.496> 1319 158<249.227 495.262>
VStem: 61 179<881.552 1013.89> 508 175<736 778 920.875 1055 1203.26 1306.68>
LayerCount: 2
Fore
SplineSet
325 718 m 1
 325 717 l 1
 181 717 61 798 61 949 c 0
 61 1194 324 1186 508 1208 c 1
 504 1297 485 1319 392 1319 c 0
 299 1319 249 1290 214 1236 c 2
 196 1208 l 1
 99 1322 l 1
 107 1337 l 1
 160 1434 264 1477 397 1477 c 0
 567 1477 683 1386 683 1210 c 1
 681 889 l 2
 681 846 683 823 688 763 c 2
 690 736 l 1
 515 736 l 1
 512 778 l 1
 464 740 402 718 325 718 c 1
345 870 m 0
 453 870 501 944 508 1055 c 1
 376 1036 240 1044 240 951 c 0
 240 894 276 870 345 870 c 0
EndSplineSet
EndChar

StartChar: Lslash
Encoding: 300 321 140
Width: 1163
Flags: W
HStem: 1 197<417 1119> 453 190<14 204> 874 189<523 712> 1436 20G<192 417>
VStem: 192 225<198 565 892 1456>
DStem2: 14 643 14 453 0.8563 0.516479<0 112.136 473.692 717.004>
LayerCount: 2
Fore
SplineSet
417 198 m 1
 1119 199 l 1
 1119 1 l 1
 192 1 l 1
 192 565 l 1
 14 453 l 1
 14 643 l 1
 192 755 l 1
 192 1456 l 1
 417 1456 l 1
 417 892 l 1
 712 1063 l 1
 712 874 l 1
 417 703 l 1
 417 198 l 1
EndSplineSet
EndChar

StartChar: Oslash
Encoding: 301 216 141
Width: 1698
Flags: W
HStem: -23 215<646.424 1051.58> 1258 215<651.487 1046.51>
VStem: 96 275<490.175 951.507> 1327 275<490.175 951.507>
DStem2: 397 -117 567 -173 0.39811 0.917338<16.3078 1896.98>
LayerCount: 2
Fore
SplineSet
397 -117 m 1
 1148 1625 l 1
 1323 1569 l 1
 567 -173 l 1
 397 -117 l 1
EndSplineSet
Refer: 48 79 N 1 0 0 1 0 0 2
EndChar

StartChar: OE
Encoding: 302 338 142
Width: 2326
Flags: W
HStem: -23 215<646.424 1103.47> 0 208<1509 2207> 651 208<1509 2149> 1237 208<1509 2177> 1258 215<651.487 1094.93>
VStem: 96 275<490.175 951.507> 1241 268<287.775 651 859 1158.2>
LayerCount: 2
Fore
SplineSet
1509 859 m 1x36
 2149 859 l 1
 2149 651 l 1
 1509 651 l 1
 1509 208 l 1
 2225 208 l 1
 2207 0 l 1
 1241 0 l 1x76
 1241 83 l 1
 1136 14 1002 -23 849 -23 c 0
 405 -23 96 292 96 722 c 0
 96 1157 404 1473 849 1473 c 0xae
 1002 1473 1136 1436 1241 1367 c 1
 1241 1445 l 1
 2195 1445 l 1
 2177 1237 l 1
 1509 1237 l 1
 1509 859 l 1x36
849 192 m 0xae
 1031 192 1162 245 1241 322 c 1
 1241 1119 l 1
 1163 1199 1032 1258 849 1258 c 0
 532 1258 371 986 371 717 c 0
 371 447 534 192 849 192 c 0xae
EndSplineSet
EndChar

StartChar: ordmasculine
Encoding: 303 186 143
Width: 883
Flags: W
HStem: 717 158<302.33 585.765> 1319 157<304.977 585.706>
VStem: 51 182<943.757 1243.74> 654 181<943.129 1245.57>
LayerCount: 2
Fore
SplineSet
835 1096 m 0
 835 873 696 717 446 717 c 0
 188 717 51 870 51 1099 c 0
 51 1323 194 1476 445 1476 c 0
 699 1476 835 1322 835 1096 c 0
233 1098 m 1
 234 1098 l 1
 234 964 295 875 446 875 c 0
 591 875 654 965 654 1094 c 0
 654 1228 591 1319 442 1319 c 0
 297 1319 233 1226 233 1098 c 1
EndSplineSet
EndChar

StartChar: ae
Encoding: 304 230 144
Width: 1914
Flags: W
HStem: -23 179<393.645 684.497 1242.51 1590.61> 0 21G<837 1046> 445 152<429.57 828> 472 173<1078 1632> 905 189<357.24 789.718 1218.44 1518.2>
VStem: 119 240<192.214 387.687> 828 250<323.061 445> 837 209<0 106>
LayerCount: 2
Fore
SplineSet
837 0 m 1x4d
 837 106 l 1x4d
 734 39 622 -23 479 -23 c 0
 270 -23 119 86 119 279 c 0
 119 574 443 597 755 597 c 2
 828 597 l 1xae
 828 741 l 2
 828 860 772 905 635 905 c 0
 463 905 336 862 238 806 c 1
 185 995 l 1
 297 1051 443 1094 630 1094 c 0
 788 1094 929 1059 992 937 c 1
 1088 1034 1214 1094 1369 1094 c 0
 1708 1094 1871 854 1871 558 c 0
 1871 530 1870 501 1870 472 c 1
 1078 472 l 1
 1105 295 1190 168 1395 168 c 0
 1556 168 1666 222 1738 290 c 1
 1839 127 l 1
 1735 33 1599 -23 1372 -23 c 0x9e
 1238 -23 1128 29 1046 114 c 1
 1046 0 l 1
 837 0 l 1x4d
530 156 m 0xae
 652 156 734 191 828 226 c 1
 828 445 l 1
 752 445 l 2
 537 445 359 427 359 302 c 0
 359 203 412 156 530 156 c 0xae
1372 903 m 0
 1205 903 1102 779 1077 645 c 1
 1632 645 l 1x1c
 1613 797 1536 903 1372 903 c 0
EndSplineSet
EndChar

StartChar: dotlessi
Encoding: 305 305 145
Width: 557
Flags: W
HStem: 0 21G<187 436> 1046 20G<187 436>
VStem: 187 249<0 1066>
LayerCount: 2
Fore
SplineSet
187 1066 m 1
 436 1066 l 1
 436 0 l 1
 187 0 l 1
 187 1066 l 1
EndSplineSet
EndChar

StartChar: lslash
Encoding: 306 322 146
Width: 528
Flags: W
HStem: 0 21G<159 366> 1471 20G<159 366>
VStem: 159 207<0 647 944 1491>
LayerCount: 2
Fore
SplineSet
159 837 m 1
 159 1491 l 1
 366 1491 l 1
 366 944 l 1
 529 1046 l 1
 529 859 l 1
 366 762 l 1
 366 0 l 1
 159 0 l 1
 159 647 l 1
 0 550 l 1
 0 740 l 1
 159 837 l 1
EndSplineSet
EndChar

StartChar: oslash
Encoding: 307 248 147
Width: 1247
Flags: W
HStem: -23 188<498.36 803.64> 910 188<498.36 803.64>
VStem: 92 243<339.463 729.34> 967 243<339.463 729.34>
DStem2: 238 -151 375 -210 0.41648 0.909145<3.41818 1574.84>
LayerCount: 2
Fore
SplineSet
889 1283 m 1
 1031 1222 l 1
 375 -210 l 1
 238 -151 l 1
 889 1283 l 1
EndSplineSet
Refer: 80 111 N 1 0 0 1 0 0 2
EndChar

StartChar: oe
Encoding: 308 339 148
Width: 2042
Flags: W
HStem: -23 191<486.36 795.327 1343.38 1749.61> 472 173<1201 1760> 903 191<486.36 794.916 1341.5 1648.58>
VStem: 80 243<338.667 725.115>
LayerCount: 2
Fore
SplineSet
639 1094 m 0
 839 1094 982 1012 1072 894 c 1
 1164 1015 1309 1094 1497 1094 c 0
 1836 1094 1999 854 1999 558 c 0
 1999 530 1998 501 1998 472 c 1
 1192 472 l 1
 1220 295 1312 168 1523 168 c 0
 1684 168 1794 222 1866 290 c 1
 1967 127 l 1
 1863 33 1727 -23 1500 -23 c 0
 1307 -23 1164 56 1074 174 c 1
 984 57 840 -23 639 -23 c 0
 258 -23 80 252 80 530 c 0
 80 810 258 1094 639 1094 c 0
323 530 m 0
 323 288 481 168 639 168 c 0
 797 168 955 288 955 530 c 0
 955 778 797 903 639 903 c 0
 481 903 323 778 323 530 c 0
1500 903 m 0
 1327 903 1227 779 1201 645 c 1
 1760 645 l 1
 1741 797 1664 903 1500 903 c 0
EndSplineSet
EndChar

StartChar: germandbls
Encoding: 309 223 149
Width: 1343
Flags: W
HStem: -22 202<674.263 989.671> 1 21G<172 409> 1279 194<502.974 810.88>
VStem: 172 237<1 1181.9> 859 251<1018.62 1231.67> 1036 256<225.055 438.647>
LayerCount: 2
Fore
SplineSet
840 781 m 1x78
 844 783 l 1
 1002 696 1189 619 1267 451 c 0
 1284 415 1292 376 1292 335 c 0x74
 1292 105 1123 -22 877 -22 c 0
 735 -22 602 15 517 77 c 1
 500 89 l 1
 509 107 l 2
 532 153 553 197 575 244 c 1
 587 271 l 1
 613 256 l 2
 678 218 766 180 859 180 c 0xb8
 973 180 1036 239 1036 338 c 0xb4
 1036 388 1006 426 972 459 c 0
 893 535 768 586 661 648 c 0
 622 670 571 710 571 771 c 0
 571 825 610 861 645 886 c 0
 737 952 859 1014 859 1131 c 0
 859 1228 774 1279 656 1279 c 0
 476 1279 409 1168 409 997 c 2
 409 1 l 1
 172 1 l 1
 172 1007 l 2
 172 1301 341 1473 657 1473 c 0
 901 1473 1110 1366 1110 1131 c 0
 1110 952 951 854 840 781 c 1x78
EndSplineSet
EndChar

StartChar: onesuperior
Encoding: 310 185 150
Width: 1180
Flags: W
HStem: 604 157<255 370 536 652>
VStem: 370 166<773 1219>
LayerCount: 2
Fore
SplineSet
255 773 m 1
 370 773 l 1
 370 1014 l 2
 370 1069 369 1113 369 1162 c 2
 369 1219 l 1
 332 1201 296 1186 259 1173 c 1
 225 1160 l 1
 226 1332 l 1
 243 1337 l 1
 303 1356 351 1380 397 1408 c 2
 402 1411 l 1
 536 1431 l 1
 536 761 l 1
 652 761 l 1
 652 604 l 1
 255 604 l 1
 255 773 l 1
EndSplineSet
EndChar

StartChar: logicalnot
Encoding: 311 172 151
Width: 1485
Flags: W
HStem: 609 189<190 1093>
VStem: 1093 192<238 609>
LayerCount: 2
Fore
SplineSet
1285 798 m 1
 1285 238 l 1
 1093 238 l 1
 1093 609 l 1
 190 609 l 1
 190 798 l 1
 1285 798 l 1
EndSplineSet
EndChar

StartChar: mu
Encoding: 312 956 152
Width: 1208
Flags: W
HStem: -23 204<448.692 755.229>
VStem: 131 233<265.499 1021> 131 207<-201 54> 842 233<265.72 1020>
LayerCount: 2
Fore
SplineSet
842 1020 m 1xd0
 1075 1020 l 1
 1075 397 l 2
 1075 141 890 -23 603 -23 c 0
 493 -23 401 5 338 54 c 1
 338 -201 l 1
 131 -201 l 1xb0
 131 1021 l 1
 364 1021 l 1
 364 402 l 2
 364 270 455 181 603 181 c 0
 751 181 842 271 842 401 c 2
 842 1020 l 1xd0
EndSplineSet
EndChar

StartChar: trademark
Encoding: 313 8482 153
Width: 1876
Flags: W
HStem: 1300 151<67 308 482 740>
VStem: 308 174<686 1300> 801 172<686 1180> 1526 166<686 1187>
DStem2: 1033 1451 973 1180 0.393269 -0.919423<225.568 556.871> 1252 939 1301 686 0.406801 0.913517<0 338.016>
LayerCount: 2
Fore
SplineSet
801 686 m 1
 801 1451 l 1
 1033 1451 l 1
 1252 939 l 1
 1480 1451 l 1
 1692 1451 l 1
 1692 686 l 1
 1526 686 l 1
 1526 1187 l 1
 1301 686 l 1
 1187 686 l 1
 973 1180 l 1
 973 686 l 1
 801 686 l 1
67 1300 m 1
 66 1451 l 1
 740 1451 l 1
 740 1300 l 1
 482 1300 l 1
 482 686 l 1
 308 686 l 1
 308 1300 l 1
 67 1300 l 1
EndSplineSet
EndChar

StartChar: Eth
Encoding: 314 208 154
Width: 1606
Flags: W
HStem: 0 212<440 925.868> 433 184<529 1077> 1230 215<440 923.369>
VStem: 172 268<212 1230> 1229 275<492.568 961.73>
LayerCount: 2
Fore
SplineSet
172 1445 m 1
 560 1445 l 2
 1137 1445 1504 1250 1504 720 c 0
 1504 248 1172 0 656 0 c 2
 172 0 l 1
 172 1445 l 1
440 212 m 1
 675 212 l 2
 1030 212 1229 391 1229 716 c 0
 1229 1102 1013 1230 583 1230 c 2
 440 1230 l 1
 440 212 l 1
1077 433 m 1
 529 433 l 1
 529 617 l 1
 1077 617 l 1
 1077 433 l 1
EndSplineSet
EndChar

StartChar: onehalf
Encoding: 315 189 155
Width: 1815
Flags: W
HStem: -25 168<1271 1576> 0 21G<358 573.064> 604 157<255 370 536 652> 644 167<1193.09 1395.41>
VStem: 358 202<0 202> 370 166<773 1219> 1299 199<1237 1436> 1406 170<462.578 630.336>
DStem2: 358 0 560 0 0.548097 0.836415<110.715 1716.85>
LayerCount: 2
Fore
SplineSet
255 773 m 1x24
 370 773 l 1
 370 1014 l 2
 370 1069 369 1113 369 1162 c 2
 369 1219 l 1
 332 1201 296 1186 259 1173 c 1
 225 1160 l 1
 226 1332 l 1
 243 1337 l 1
 303 1356 351 1380 397 1408 c 2
 402 1411 l 1
 536 1431 l 1
 536 761 l 1
 652 761 l 1
 652 604 l 1
 255 604 l 1
 255 773 l 1x24
358 0 m 1x4a
 1299 1436 l 1
 1498 1436 l 1
 560 0 l 1
 358 0 l 1x4a
1012 610 m 1
 1017 625 l 1
 1061 732 1162 811 1304 811 c 0
 1458 811 1578 724 1578 576 c 0
 1578 471 1524 396 1472 334 c 0
 1414 265 1341 202 1271 143 c 1
 1576 143 l 1
 1576 -25 l 1
 1008 -25 l 1
 1008 112 l 1
 1016 119 l 1
 1149 238 1294 351 1380 489 c 0
 1398 518 1406 543 1406 563 c 0
 1406 615 1367 644 1298 644 c 0x91
 1220 644 1174 593 1145 528 c 1
 1131 495 l 1
 1012 610 l 1
EndSplineSet
EndChar

StartChar: plusminus
Encoding: 316 177 156
Width: 1485
Flags: W
HStem: 0 188<192 1288> 570 188<194 631 844 1284>
VStem: 633 211<198 570 758 1107>
LayerCount: 2
Fore
SplineSet
1288 188 m 1
 1288 0 l 1
 192 0 l 1
 192 188 l 1
 1288 188 l 1
194 570 m 1
 178 758 l 1
 631 758 l 1
 631 1107 l 1
 839 1107 l 1
 839 758 l 1
 1284 758 l 1
 1284 570 l 1
 844 570 l 1
 844 198 l 1
 633 198 l 1
 633 570 l 1
 194 570 l 1
EndSplineSet
EndChar

StartChar: Thorn
Encoding: 317 222 157
Width: 1325
Flags: W
HStem: 0 21G<172 399> 321 203<400 935.524> 1012 188<399 936.305> 1425 20G<172 399>
VStem: 172 227<0 321 524 1012 1200 1445> 1053 232<631.868 907.048>
LayerCount: 2
Fore
SplineSet
399 1200 m 1
 689 1200 l 2
 1028 1200 1285 1077 1285 760 c 0
 1285 468 1029 321 715 321 c 2
 399 321 l 1
 399 0 l 1
 172 0 l 1
 172 1445 l 1
 399 1445 l 1
 399 1200 l 1
399 1012 m 1
 400 524 l 1
 734 524 l 2
 921 524 1053 608 1053 767 c 0
 1053 944 919 1012 710 1012 c 2
 399 1012 l 1
EndSplineSet
EndChar

StartChar: onequarter
Encoding: 318 188 158
Width: 1935
Flags: W
HStem: 0 21G<413 628.064> 200 157<1213 1366 1534 1635> 604 157<255 370 536 652>
VStem: 370 166<773 1219> 413 202<0 202> 1354 199<1237 1436> 1366 168<37 200 357 582>
DStem2: 413 0 615 0 0.548097 0.836415<110.715 1716.85> 1009 319 1213 357 0.571858 0.820353<147.832 419.906>
LayerCount: 2
Fore
SplineSet
413 0 m 1xec
 1354 1436 l 1
 1553 1436 l 1
 615 0 l 1
 413 0 l 1xec
1533 200 m 1
 1532 37 l 1
 1368 37 l 1
 1368 200 l 1
 1009 200 l 1
 1009 319 l 1
 1368 834 l 1
 1534 834 l 1
 1534 357 l 1xe2
 1635 357 l 1
 1650 200 l 1
 1533 200 l 1
255 773 m 1
 370 773 l 1
 370 1014 l 2
 370 1069 369 1113 369 1162 c 2
 369 1219 l 1
 332 1201 296 1186 259 1173 c 1
 225 1160 l 1
 226 1332 l 1
 243 1337 l 1
 303 1356 351 1380 397 1408 c 2
 402 1411 l 1
 536 1431 l 1
 536 761 l 1xf0
 652 761 l 1
 652 604 l 1
 255 604 l 1
 255 773 l 1
1366 582 m 1xe2
 1213 357 l 1
 1366 357 l 1
 1366 582 l 1xe2
EndSplineSet
EndChar

StartChar: divide
Encoding: 319 247 159
Width: 1485
Flags: W
HStem: 21 260<602 881> 460 189<188 1283> 823 260<602 881>
VStem: 602 279<21 281 823 1083>
LayerCount: 2
Fore
SplineSet
1283 649 m 1
 1283 460 l 1
 188 460 l 1
 188 649 l 1
 1283 649 l 1
602 1083 m 1
 881 1083 l 1
 881 823 l 1
 602 823 l 1
 602 1083 l 1
602 281 m 1
 881 281 l 1
 881 21 l 1
 602 21 l 1
 602 281 l 1
EndSplineSet
EndChar

StartChar: brokenbar
Encoding: 320 166 160
Width: 524
Flags: W
HStem: 1469 20G<152 366>
VStem: 152 214<-279 341 869 1489>
LayerCount: 2
Fore
SplineSet
366 869 m 1
 152 869 l 1
 152 1489 l 1
 366 1489 l 1
 366 869 l 1
366 -279 m 1
 152 -279 l 1
 152 341 l 1
 366 341 l 1
 366 -279 l 1
EndSplineSet
EndChar

StartChar: degree
Encoding: 321 176 161
Width: 862
Flags: W
HStem: 854 166<298.057 548.19> 1278 165<299.624 546.788>
VStem: 90 169<1058.85 1239.19> 588 168<1058.67 1239.62>
LayerCount: 2
Fore
SplineSet
423 1278 m 1
 423 1277 l 1
 326 1277 259 1224 259 1150 c 0
 259 1074 325 1020 423 1020 c 0
 522 1020 588 1074 588 1150 c 0
 588 1225 520 1278 423 1278 c 1
90 1149 m 0
 90 1319 236 1443 423 1443 c 0
 611 1443 756 1319 756 1149 c 0
 756 979 609 854 423 854 c 0
 236 854 90 980 90 1149 c 0
EndSplineSet
EndChar

StartChar: thorn
Encoding: 322 254 162
Width: 1298
Flags: W
HStem: -427 21G<157 390> -22 204<518.833 863.983> 846 201<520.417 862.045> 1469 20G<150 390>
VStem: 157 233<-427 105 315.438 712.127 925 1489> 988 239<316.853 713.751>
LayerCount: 2
Fore
SplineSet
390 925 m 1
 392 927 l 1
 471 1000 577 1047 723 1047 c 0
 1071 1047 1227 802 1227 501 c 0
 1227 209 1081 -22 744 -22 c 0
 591 -22 472 27 390 105 c 1
 390 -427 l 1
 157 -427 l 1
 157 1202 l 2
 157 1290 151 1371 150 1464 c 1
 150 1489 l 1
 390 1489 l 1
 390 925 l 1
389 514 m 0
 389 316 482 182 703 182 c 0
 909 182 988 327 988 514 c 0
 988 701 907 846 703 846 c 0
 481 846 389 711 389 514 c 0
EndSplineSet
EndChar

StartChar: threequarters
Encoding: 323 190 163
Width: 1876
Flags: W
HStem: -2 21G<402 617.064> 202 157<1185 1338 1506 1607> 585 165<308.071 552.779> 945 169<315 537.569> 1272 169<310.43 541.047>
VStem: 402 202<-2 200> 549 175<1132.5 1200 1202 1262.21> 572 171<775.087 924.263> 1338 168<39 202 359 584> 1343 199<1235 1434>
DStem2: 402 -2 604 -2 0.548097 0.836415<110.715 1716.85> 981 321 1185 359 0.571858 0.820353<147.832 419.906>
LayerCount: 2
Fore
SplineSet
402 -2 m 1xfc40
 1343 1434 l 1
 1542 1434 l 1
 604 -2 l 1
 402 -2 l 1xfc40
725 1202 m 1
 724 1200 l 1xfa
 724 1126 691 1068 644 1031 c 1
 704 992 743 930 743 843 c 0
 743 678 600 585 434 585 c 0
 324 585 241 629 183 690 c 2
 170 704 l 1
 253 843 l 1
 276 821 l 2
 327 772 378 750 431 750 c 0
 516 750 572 785 572 849 c 0xf9
 572 925 504 946 393 946 c 0
 388 946 376 945 365 945 c 2
 315 945 l 1
 315 1114 l 1
 387 1114 l 2
 487 1114 549 1133 549 1197 c 0xfa
 549 1250 512 1272 440 1272 c 0
 370 1272 319 1238 273 1199 c 2
 250 1180 l 1
 171 1318 l 1
 184 1332 l 1
 240 1390 333 1441 442 1441 c 0
 596 1441 725 1354 725 1202 c 1
1505 202 m 1
 1504 39 l 1
 1340 39 l 1
 1340 202 l 1
 981 202 l 1
 981 321 l 1
 1340 836 l 1
 1506 836 l 1
 1506 359 l 1xf880
 1607 359 l 1
 1622 202 l 1
 1505 202 l 1
1338 584 m 1
 1185 359 l 1
 1338 359 l 1
 1338 584 l 1
EndSplineSet
EndChar

StartChar: twosuperior
Encoding: 324 178 164
Width: 1180
Flags: W
HStem: 604 168<529 834> 1273 167<451.09 653.414>
VStem: 664 170<1091.58 1259.34>
LayerCount: 2
Fore
SplineSet
270 1239 m 1
 275 1254 l 1
 319 1361 420 1440 562 1440 c 0
 716 1440 836 1353 836 1205 c 0
 836 1100 782 1025 730 963 c 0
 672 894 599 831 529 772 c 1
 834 772 l 1
 834 604 l 1
 266 604 l 1
 266 741 l 1
 274 748 l 1
 407 867 552 980 638 1118 c 0
 656 1147 664 1172 664 1192 c 0
 664 1244 625 1273 556 1273 c 0
 478 1273 432 1222 403 1157 c 1
 389 1124 l 1
 270 1239 l 1
EndSplineSet
EndChar

StartChar: registered
Encoding: 325 174 165
Width: 1837
Flags: W
HStem: -23 160<656.64 1184.23> 638 168<783 930.105> 1042 167<782 1095.09> 1312 161<656.234 1174.54>
VStem: 111 182<485.227 967.571> 584 199<251 638 806 1042> 1124 204<839.582 1015.12> 1541 185<469.529 963.339>
DStem2: 1343 290 1012 480 0.513316 -0.8582<-446.362 -83.6063>
LayerCount: 2
Fore
SplineSet
916 1473 m 1
 916 1472 l 1
 1158 1472 1345 1393 1479 1285 c 1
 1624 1164 1726 981 1726 725 c 0
 1726 388 1556 172 1314 60 c 0
 1206 10 1073 -23 922 -23 c 0
 680 -23 493 56 358 164 c 1
 213 286 111 469 111 726 c 0
 111 1063 281 1278 524 1390 c 0
 633 1440 764 1473 916 1473 c 1
1351 277 m 1
 1357 267 l 1
 1476 374 1541 531 1541 721 c 0
 1541 1076 1301 1312 916 1312 c 0
 531 1312 293 1078 293 726 c 0
 293 370 534 137 920 137 c 0
 1091 137 1233 184 1339 266 c 1
 1140 266 l 1
 1012 480 l 2
 966 556 921 609 882 638 c 1
 783 638 l 1
 783 251 l 1
 584 251 l 1
 584 1209 l 1
 878 1209 l 2
 1111 1209 1328 1151 1328 931 c 0
 1328 778 1220 694 1087 665 c 1
 1195 559 1263 415 1343 290 c 1
 1351 277 l 1
782 806 m 1
 877 806 l 2
 1025 806 1124 819 1124 926 c 0
 1124 1042 1028 1042 868 1042 c 2
 782 1042 l 1
 782 806 l 1
EndSplineSet
EndChar

StartChar: minus
Encoding: 326 8722 166
Width: 1485
Flags: W
HStem: 446 187<188 1284>
LayerCount: 2
Fore
SplineSet
188 446 m 1
 188 633 l 1
 1284 633 l 1
 1284 446 l 1
 188 446 l 1
EndSplineSet
EndChar

StartChar: eth
Encoding: 327 240 167
Width: 1217
Flags: W
HStem: -24 208<447.822 808.936> 749 160<440.888 716.359> 1453 20G<197 527.164 844.381 903.558>
VStem: 70 247<312.754 631.714> 932 236<304.433 460 461 623.585>
DStem2: 214 1177 277 1004 0.931082 0.36481<0 187.91 509.754 730.175>
LayerCount: 2
Fore
SplineSet
1166 461 m 1
 1168 460 l 1
 1168 159 958 -24 621 -24 c 0
 292 -24 70 162 70 454 c 0
 70 729 259 909 564 909 c 0
 620 909 673 900 720 887 c 1
 521 1100 l 1
 277 1004 l 1
 214 1177 l 1
 388 1248 l 1
 197 1473 l 1
 510 1473 l 1
 625 1339 l 1
 896 1444 l 1
 961 1272 l 1
 756 1191 l 1
 872 1065 977 951 1063 811 c 0
 1122 715 1166 611 1166 461 c 1
622 749 m 0
 426 748 317 643 317 465 c 0
 317 294 441 184 629 184 c 0
 818 184 932 291 932 462 c 0
 932 639 816 749 622 749 c 0
EndSplineSet
EndChar

StartChar: multiply
Encoding: 328 215 168
Width: 1485
Flags: W
VStem: 593 305<401.5 706.5>
DStem2: 439 973 307 834 0.730208 -0.683224<0 398.723 621.437 1020.16> 307 274 439 135 0.730208 0.683224<1.41931 400.142 622.856 1021.58>
LayerCount: 2
Fore
SplineSet
898 554 m 1
 1185 275 l 1
 1052 135 l 1
 746 414 l 1
 439 135 l 1
 307 274 l 1
 593 554 l 1
 307 834 l 1
 439 973 l 1
 746 693 l 1
 1052 973 l 1
 1185 833 l 1
 898 554 l 1
EndSplineSet
EndChar

StartChar: threesuperior
Encoding: 329 179 169
Width: 1182
Flags: W
HStem: 585 165<359.071 603.779> 945 169<366 588.569> 1272 169<361.43 592.047>
VStem: 600 175<1132.5 1200 1202 1262.21> 623 171<775.087 924.263>
LayerCount: 2
Fore
SplineSet
776 1202 m 1xf0
 775 1200 l 1xf0
 775 1126 742 1068 695 1031 c 1
 755 992 794 930 794 843 c 0
 794 678 651 585 485 585 c 0
 375 585 292 629 234 690 c 2
 221 704 l 1
 304 843 l 1
 327 821 l 2
 378 772 429 750 482 750 c 0
 567 750 623 785 623 849 c 0xe8
 623 925 555 946 444 946 c 0
 439 946 427 945 416 945 c 2
 366 945 l 1
 366 1114 l 1
 438 1114 l 2
 538 1114 600 1133 600 1197 c 0
 600 1250 563 1272 491 1272 c 0
 421 1272 370 1238 324 1199 c 2
 301 1180 l 1
 222 1318 l 1
 235 1332 l 1
 291 1390 384 1441 493 1441 c 0
 647 1441 776 1354 776 1202 c 1xf0
EndSplineSet
EndChar

StartChar: copyright
Encoding: 330 169 170
Width: 1837
Flags: W
HStem: -28 165<661.829 1168.53> 225 181<794.438 1151.96> 1056 178<785.73 1136.65> 1318 168<664.429 913 914 1168.86>
VStem: 98 170<504.924 950.642> 441 204<553.668 911.607> 1560 170<505.763 729>
LayerCount: 2
Fore
SplineSet
1198 967 m 1
 1200 968 l 1
 1139 1021 1060 1056 949 1056 c 0
 757 1056 645 922 645 734 c 0
 645 531 765 406 976 406 c 0
 1072 406 1141 435 1195 480 c 2
 1225 505 l 1
 1281 330 l 1
 1266 319 l 1
 1176 256 1068 225 944 225 c 0
 640 225 441 443 441 730 c 0
 441 1028 642 1234 954 1234 c 0
 1074 1234 1178 1197 1264 1124 c 1
 1276 1114 l 1
 1230 939 l 1
 1198 967 l 1
914 1317 m 1
 913 1318 l 1
 713 1318 557 1244 452 1149 c 0
 347 1054 268 912 268 730 c 0
 268 541 346 404 452 308 c 0
 559 211 709 137 917 137 c 0
 1116 137 1274 212 1378 307 c 0
 1482 402 1560 543 1560 725 c 0
 1560 914 1482 1050 1377 1146 c 0
 1271 1243 1121 1317 914 1317 c 1
1731 727 m 1
 1730 729 l 1
 1730 491 1624 317 1497 195 c 1
 1364 73 1174 -28 917 -28 c 0
 658 -28 463 72 330 195 c 1
 203 317 98 491 98 729 c 0
 98 1118 367 1373 695 1459 c 0
 765 1477 838 1486 913 1486 c 0
 1336 1486 1612 1233 1703 927 c 0
 1722 863 1731 796 1731 727 c 1
EndSplineSet
EndChar

StartChar: Aacute
Encoding: 331 193 171
Width: 1382
Flags: W
HStem: 0 21G<18 273.477 1130.48 1388> 444 195<508 896> 1425 20G<573.208 832.792>
DStem2: 18 0 266 0 0.363037 0.931775<90.0333 564.005 773.292 1358.22> 825 1445 705 1190 0.363037 -0.931775<194.038 776.786 985.71 1427.95> 825 1445 896 639 0.363037 -0.931775<194.038 776.786 985.71 1460.04>
LayerCount: 2
Fore
SplineSet
266 0 m 1
 18 0 l 1
 581 1445 l 1
 825 1445 l 1
 1388 0 l 1
 1138 0 l 1
 971 444 l 1
 432 444 l 1
 266 0 l 1
508 639 m 1
 896 639 l 1
 705 1190 l 1
 508 639 l 1
681 1885 m 1
 980 1885 l 1
 656 1555 l 1
 458 1555 l 1
 681 1885 l 1
EndSplineSet
EndChar

StartChar: Aring
Encoding: 335 197 175
Width: 1382
Flags: W
HStem: 0 21G<18 273.477 1130.48 1388> 444 195<508 896> 1425 20G<573.208 832.792> 1528 136<625.61 781.33> 1774 135<625.647 781.533>
VStem: 479 144<1670.51 1768.54> 783 145<1669.46 1768.76>
DStem2: 18 0 266 0 0.363037 0.931775<90.0333 564.005 773.292 1358.22> 825 1445 705 1190 0.363037 -0.931775<194.038 776.786 985.71 1427.95> 825 1445 896 639 0.363037 -0.931775<194.038 776.786 985.71 1460.04>
LayerCount: 2
Fore
SplineSet
266 0 m 1
 18 0 l 1
 581 1445 l 1
 825 1445 l 1
 1388 0 l 1
 1138 0 l 1
 971 444 l 1
 432 444 l 1
 266 0 l 1
508 639 m 1
 896 639 l 1
 705 1190 l 1
 508 639 l 1
703 1774 m 0
 657 1774 623 1749 623 1719 c 0
 623 1686 651 1664 703 1664 c 0
 749 1664 783 1689 783 1719 c 0
 783 1750 751 1774 703 1774 c 0
704 1909 m 0
 829 1909 928 1831 928 1719 c 0
 928 1608 827 1528 705 1528 c 0
 580 1528 479 1605 479 1718 c 0
 479 1832 580 1909 704 1909 c 0
EndSplineSet
EndChar

StartChar: Atilde
Encoding: 336 195 176
Width: 1382
Flags: W
HStem: 0 21G<18 273.477 1130.48 1388> 444 195<508 896> 1425 20G<573.208 832.792> 1585 181<671.437 918.075> 1643 181<483.866 739.492>
DStem2: 18 0 266 0 0.363037 0.931775<90.0333 564.005 773.292 1358.22> 825 1445 705 1190 0.363037 -0.931775<194.038 776.786 985.71 1427.95> 825 1445 896 639 0.363037 -0.931775<194.038 776.786 985.71 1460.04>
LayerCount: 2
Fore
SplineSet
266 0 m 1xe0
 18 0 l 1
 581 1445 l 1
 825 1445 l 1
 1388 0 l 1
 1138 0 l 1
 971 444 l 1
 432 444 l 1
 266 0 l 1xe0
508 639 m 1
 896 639 l 1
 705 1190 l 1
 508 639 l 1
1091 1824 m 1xe8
 1088 1800 l 1
 1082 1684 1014 1585 863 1585 c 0xf0
 709 1585 637 1643 536 1643 c 0
 495 1643 484 1630 482 1604 c 2
 481 1588 l 1
 315 1588 l 1
 316 1610 l 1
 319 1730 395 1824 545 1824 c 0xe8
 710 1824 765 1766 876 1766 c 0xf0
 908 1766 917 1780 920 1808 c 2
 922 1824 l 1
 1091 1824 l 1xe8
EndSplineSet
EndChar

StartChar: Eacute
Encoding: 338 201 178
Width: 1257
Flags: W
HStem: 0 208<440 1138> 651 208<440 1080> 1237 208<440 1108>
VStem: 172 268<208 651 859 1237>
LayerCount: 2
Fore
SplineSet
440 859 m 1
 1080 859 l 1
 1080 651 l 1
 440 651 l 1
 440 208 l 1
 1156 208 l 1
 1138 0 l 1
 172 0 l 1
 172 1445 l 1
 1126 1445 l 1
 1108 1237 l 1
 440 1237 l 1
 440 859 l 1
719 1885 m 1
 1018 1885 l 1
 694 1555 l 1
 496 1555 l 1
 719 1885 l 1
EndSplineSet
EndChar

StartChar: Edieresis
Encoding: 340 203 180
Width: 1257
Flags: W
HStem: 0 208<440 1138> 651 208<440 1080> 1237 208<440 1108> 1609 215<369 585 743 959>
VStem: 172 268<208 651 859 1237> 369 216<1609 1824> 743 216<1609 1824>
LayerCount: 2
Fore
SplineSet
440 859 m 1xfa
 1080 859 l 1
 1080 651 l 1
 440 651 l 1
 440 208 l 1
 1156 208 l 1
 1138 0 l 1
 172 0 l 1
 172 1445 l 1
 1126 1445 l 1
 1108 1237 l 1
 440 1237 l 1
 440 859 l 1xfa
959 1824 m 1
 959 1609 l 1
 743 1609 l 1
 743 1824 l 1
 959 1824 l 1
585 1824 m 1xf6
 585 1609 l 1
 369 1609 l 1
 369 1824 l 1
 585 1824 l 1xf6
EndSplineSet
EndChar

StartChar: Iacute
Encoding: 342 205 182
Width: 608
Flags: W
HStem: 0 21G<170 438> 1425 20G<170 438>
VStem: 170 268<0 1445>
LayerCount: 2
Fore
SplineSet
170 1445 m 1
 438 1445 l 1
 438 0 l 1
 170 0 l 1
 170 1445 l 1
282 1885 m 1
 581 1885 l 1
 257 1555 l 1
 59 1555 l 1
 282 1885 l 1
EndSplineSet
EndChar

StartChar: Idieresis
Encoding: 344 207 184
Width: 608
Flags: W
HStem: 0 21G<170 438> 1425 20G<170 438> 1609 215<9 225 383 599>
VStem: 9 216<1609 1824> 170 268<0 1445> 383 216<1609 1824>
LayerCount: 2
Fore
SplineSet
170 1445 m 1xe8
 438 1445 l 1
 438 0 l 1
 170 0 l 1
 170 1445 l 1xe8
599 1824 m 1xe4
 599 1609 l 1
 383 1609 l 1
 383 1824 l 1
 599 1824 l 1xe4
225 1824 m 1xf0
 225 1609 l 1
 9 1609 l 1
 9 1824 l 1
 225 1824 l 1xf0
EndSplineSet
EndChar

StartChar: Oacute
Encoding: 347 211 187
Width: 1698
Flags: W
HStem: -23 215<646.424 1051.58> 1258 215<651.487 1046.51>
VStem: 96 275<490.175 951.507> 1327 275<490.175 951.507>
LayerCount: 2
Fore
SplineSet
849 192 m 0
 1164 192 1327 447 1327 717 c 0
 1327 986 1166 1258 849 1258 c 0
 532 1258 371 986 371 717 c 0
 371 447 534 192 849 192 c 0
849 -23 m 0
 405 -23 96 292 96 722 c 0
 96 1157 404 1473 849 1473 c 0
 1294 1473 1602 1157 1602 722 c 0
 1602 292 1293 -23 849 -23 c 0
827 1885 m 1
 1126 1885 l 1
 802 1555 l 1
 604 1555 l 1
 827 1885 l 1
EndSplineSet
EndChar

StartChar: Otilde
Encoding: 351 213 191
Width: 1698
Flags: W
HStem: -23 215<646.424 1051.58> 1258 215<651.487 1046.51> 1585 181<817.437 1064.08> 1643 181<629.866 885.492>
VStem: 96 275<490.175 951.507> 1327 275<490.175 951.507>
LayerCount: 2
Fore
SplineSet
849 192 m 0xcc
 1164 192 1327 447 1327 717 c 0
 1327 986 1166 1258 849 1258 c 0
 532 1258 371 986 371 717 c 0
 371 447 534 192 849 192 c 0xcc
849 -23 m 0
 405 -23 96 292 96 722 c 0
 96 1157 404 1473 849 1473 c 0
 1294 1473 1602 1157 1602 722 c 0
 1602 292 1293 -23 849 -23 c 0
1237 1824 m 1xdc
 1234 1800 l 1
 1228 1684 1160 1585 1009 1585 c 0xec
 855 1585 783 1643 682 1643 c 0
 641 1643 630 1630 628 1604 c 2
 627 1588 l 1
 461 1588 l 1
 462 1610 l 1
 465 1730 541 1824 691 1824 c 0xdc
 856 1824 911 1766 1022 1766 c 0xec
 1054 1766 1063 1780 1066 1808 c 2
 1068 1824 l 1
 1237 1824 l 1xdc
EndSplineSet
EndChar

StartChar: Uacute
Encoding: 353 218 193
Width: 1513
Flags: W
HStem: -23 215<543.404 977.957> 1425 20G<164 405 1109 1350>
VStem: 164 241<329.744 1445> 1109 241<329.744 1445>
LayerCount: 2
Fore
SplineSet
1109 1445 m 1
 1350 1445 l 1
 1350 540 l 2
 1350 176 1164 -23 757 -23 c 0
 349 -23 164 175 164 540 c 2
 164 1445 l 1
 405 1445 l 1
 405 551 l 2
 405 306 492 192 757 192 c 0
 1022 192 1109 306 1109 551 c 2
 1109 1445 l 1
735 1885 m 1
 1034 1885 l 1
 710 1555 l 1
 512 1555 l 1
 735 1885 l 1
EndSplineSet
EndChar

StartChar: Udieresis
Encoding: 355 220 195
Width: 1513
Flags: W
HStem: -23 215<543.404 977.957> 1425 20G<164 405 1109 1350> 1609 215<462 678 836 1052>
VStem: 164 241<329.744 1445> 462 216<1609 1824> 836 216<1609 1824> 1109 241<329.744 1445>
LayerCount: 2
Fore
SplineSet
1109 1445 m 1
 1350 1445 l 1
 1350 540 l 2
 1350 176 1164 -23 757 -23 c 0
 349 -23 164 175 164 540 c 2
 164 1445 l 1
 405 1445 l 1
 405 551 l 2
 405 306 492 192 757 192 c 0
 1022 192 1109 306 1109 551 c 2
 1109 1445 l 1
1052 1824 m 1
 1052 1609 l 1
 836 1609 l 1
 836 1824 l 1
 1052 1824 l 1
678 1824 m 1
 678 1609 l 1
 462 1609 l 1
 462 1824 l 1
 678 1824 l 1
EndSplineSet
EndChar

StartChar: Ydieresis
Encoding: 358 376 198
Width: 1251
Flags: W
HStem: 0 21G<532 788> 1425 20G<-12 261.047 1065.81 1345> 1549 215<356 572 730 946>
VStem: -12 261<1184 1445> 356 216<1549 1764> 532 256<0 571> 730 216<1549 1764> 1078 267<1178 1445>
DStem2: 249 1445 -12 1445 0.528426 -0.848979<0 798.413> 661 761 788 571 0.537437 0.843304<0 800.931>
LayerCount: 2
Fore
SplineSet
1078 1445 m 1xf5
 1345 1445 l 1
 788 571 l 1
 788 0 l 1
 532 0 l 1
 532 571 l 1
 -12 1445 l 1
 249 1445 l 1
 661 761 l 1
 1078 1445 l 1xf5
946 1764 m 1xf3
 946 1549 l 1
 730 1549 l 1
 730 1764 l 1
 946 1764 l 1xf3
572 1764 m 1xf9
 572 1549 l 1
 356 1549 l 1
 356 1764 l 1
 572 1764 l 1xf9
EndSplineSet
EndChar

StartChar: aacute
Encoding: 360 225 200
Width: 1165
Flags: W
HStem: -23 179<393.645 738.144> 0 21G<884.781 1077> 445 152<429.57 828> 905 189<357.24 787.73> 1486 20G<639.485 952>
VStem: 119 240<192.214 387.687> 828 249<209.727 445 597 863.153>
LayerCount: 2
Fore
SplineSet
893 0 m 1x7e
 863 73 l 1
 751 21 634 -23 479 -23 c 0xbe
 270 -23 119 86 119 279 c 0
 119 574 443 597 755 597 c 2
 828 597 l 1
 828 741 l 2
 828 860 772 905 635 905 c 0
 463 905 336 862 238 806 c 1
 185 995 l 1
 297 1051 443 1094 630 1094 c 0
 885 1094 1077 1009 1077 772 c 2
 1077 0 l 1
 893 0 l 1x7e
530 156 m 0
 652 156 734 191 828 226 c 1
 828 445 l 1
 752 445 l 2
 537 445 359 427 359 302 c 0
 359 203 412 156 530 156 c 0
653 1506 m 1
 952 1506 l 1
 628 1176 l 1
 430 1176 l 1
 653 1506 l 1
EndSplineSet
EndChar

StartChar: aring
Encoding: 364 229 204
Width: 1165
Flags: W
HStem: -23 179<393.645 738.144> 0 21G<884.781 1077> 445 152<429.57 828> 905 189<357.24 787.73> 1149 136<520.61 676.33> 1395 135<520.647 676.533>
VStem: 119 240<192.214 387.687> 374 144<1291.51 1389.54> 678 145<1290.46 1389.76> 828 249<209.727 445 597 863.153>
LayerCount: 2
Fore
SplineSet
893 0 m 1x7fc0
 863 73 l 1
 751 21 634 -23 479 -23 c 0xbfc0
 270 -23 119 86 119 279 c 0
 119 574 443 597 755 597 c 2
 828 597 l 1
 828 741 l 2
 828 860 772 905 635 905 c 0
 463 905 336 862 238 806 c 1
 185 995 l 1
 297 1051 443 1094 630 1094 c 0
 885 1094 1077 1009 1077 772 c 2
 1077 0 l 1
 893 0 l 1x7fc0
530 156 m 0
 652 156 734 191 828 226 c 1
 828 445 l 1
 752 445 l 2
 537 445 359 427 359 302 c 0
 359 203 412 156 530 156 c 0
598 1395 m 0
 552 1395 518 1370 518 1340 c 0
 518 1307 546 1285 598 1285 c 0
 644 1285 678 1310 678 1340 c 0
 678 1371 646 1395 598 1395 c 0
599 1530 m 0
 724 1530 823 1452 823 1340 c 0
 823 1229 722 1149 600 1149 c 0
 475 1149 374 1226 374 1339 c 0
 374 1453 475 1530 599 1530 c 0
EndSplineSet
EndChar

StartChar: atilde
Encoding: 365 227 205
Width: 1165
Flags: W
HStem: -23 179<393.645 738.144> 0 21G<884.781 1077> 445 152<429.57 828> 905 189<357.24 787.73> 1206 181<566.437 813.075> 1264 181<378.866 634.492>
VStem: 119 240<192.214 387.687> 828 249<209.727 445 597 863.153>
LayerCount: 2
Fore
SplineSet
893 0 m 1x73
 863 73 l 1
 751 21 634 -23 479 -23 c 0xb3
 270 -23 119 86 119 279 c 0
 119 574 443 597 755 597 c 2
 828 597 l 1
 828 741 l 2
 828 860 772 905 635 905 c 0
 463 905 336 862 238 806 c 1
 185 995 l 1
 297 1051 443 1094 630 1094 c 0
 885 1094 1077 1009 1077 772 c 2
 1077 0 l 1
 893 0 l 1x73
530 156 m 0
 652 156 734 191 828 226 c 1
 828 445 l 1
 752 445 l 2
 537 445 359 427 359 302 c 0
 359 203 412 156 530 156 c 0
986 1445 m 1x37
 983 1421 l 1
 977 1305 909 1206 758 1206 c 0x3b
 604 1206 532 1264 431 1264 c 0
 390 1264 379 1251 377 1225 c 2
 376 1209 l 1
 210 1209 l 1
 211 1231 l 1
 214 1351 290 1445 440 1445 c 0x37
 605 1445 660 1387 771 1387 c 0x3b
 803 1387 812 1401 815 1429 c 2
 817 1445 l 1
 986 1445 l 1x37
EndSplineSet
EndChar

StartChar: eacute
Encoding: 367 233 207
Width: 1178
Flags: W
HStem: -23 191<485.619 885.608> 472 173<337 896> 903 191<478.503 784.578> 1486 20G<645.485 958>
LayerCount: 2
Fore
SplineSet
1134 472 m 1
 328 472 l 1
 356 295 448 168 659 168 c 0
 820 168 930 222 1002 290 c 1
 1103 127 l 1
 999 33 863 -23 636 -23 c 0
 264 -23 74 250 74 536 c 0
 74 837 282 1094 633 1094 c 0
 972 1094 1135 854 1135 558 c 0
 1135 530 1134 501 1134 472 c 1
636 903 m 0
 463 903 363 779 337 645 c 1
 896 645 l 1
 877 797 800 903 636 903 c 0
659 1506 m 1
 958 1506 l 1
 634 1176 l 1
 436 1176 l 1
 659 1506 l 1
EndSplineSet
EndChar

StartChar: edieresis
Encoding: 369 235 209
Width: 1178
Flags: W
HStem: -23 191<485.619 885.608> 472 173<337 896> 903 191<478.503 784.578> 1230 215<309 525 683 899>
VStem: 309 216<1230 1445> 683 216<1230 1445>
LayerCount: 2
Fore
SplineSet
1134 472 m 1
 328 472 l 1
 356 295 448 168 659 168 c 0
 820 168 930 222 1002 290 c 1
 1103 127 l 1
 999 33 863 -23 636 -23 c 0
 264 -23 74 250 74 536 c 0
 74 837 282 1094 633 1094 c 0
 972 1094 1135 854 1135 558 c 0
 1135 530 1134 501 1134 472 c 1
636 903 m 0
 463 903 363 779 337 645 c 1
 896 645 l 1
 877 797 800 903 636 903 c 0
899 1445 m 1
 899 1230 l 1
 683 1230 l 1
 683 1445 l 1
 899 1445 l 1
525 1445 m 1
 525 1230 l 1
 309 1230 l 1
 309 1445 l 1
 525 1445 l 1
EndSplineSet
EndChar

StartChar: iacute
Encoding: 371 237 211
Width: 557
Flags: W
HStem: 0 21G<187 436> 1046 20G<187 436> 1486 20G<275.485 588>
VStem: 187 249<0 1066>
LayerCount: 2
Fore
SplineSet
187 1066 m 1
 436 1066 l 1
 436 0 l 1
 187 0 l 1
 187 1066 l 1
289 1506 m 1
 588 1506 l 1
 264 1176 l 1
 66 1176 l 1
 289 1506 l 1
EndSplineSet
EndChar

StartChar: idieresis
Encoding: 373 239 213
Width: 557
Flags: W
HStem: 0 21G<187 436> 1046 20G<187 436> 1230 215<16 232 390 606>
VStem: 16 216<1230 1445> 187 249<0 1066> 390 216<1230 1445>
LayerCount: 2
Fore
SplineSet
187 1066 m 1xe8
 436 1066 l 1
 436 0 l 1
 187 0 l 1
 187 1066 l 1xe8
606 1445 m 1xe4
 606 1230 l 1
 390 1230 l 1
 390 1445 l 1
 606 1445 l 1xe4
232 1445 m 1xf0
 232 1230 l 1
 16 1230 l 1
 16 1445 l 1
 232 1445 l 1xf0
EndSplineSet
EndChar

StartChar: oacute
Encoding: 376 243 216
Width: 1278
Flags: W
HStem: -23 191<486.36 791.64> 903 191<486.36 791.64> 1486 20G<603.485 916>
VStem: 80 243<338.667 725.115> 955 243<338.667 725.115>
LayerCount: 2
Fore
SplineSet
639 1094 m 0
 1020 1094 1198 810 1198 530 c 0
 1198 252 1020 -23 639 -23 c 0
 258 -23 80 252 80 530 c 0
 80 810 258 1094 639 1094 c 0
323 530 m 0
 323 288 481 168 639 168 c 0
 797 168 955 288 955 530 c 0
 955 778 797 903 639 903 c 0
 481 903 323 778 323 530 c 0
617 1506 m 1
 916 1506 l 1
 592 1176 l 1
 394 1176 l 1
 617 1506 l 1
EndSplineSet
EndChar

StartChar: otilde
Encoding: 380 245 220
Width: 1278
Flags: W
HStem: -23 191<486.36 791.64> 903 191<486.36 791.64> 1206 181<607.437 854.075> 1264 181<419.866 675.492>
VStem: 80 243<338.667 725.115> 955 243<338.667 725.115>
LayerCount: 2
Fore
SplineSet
639 1094 m 0xcc
 1020 1094 1198 810 1198 530 c 0
 1198 252 1020 -23 639 -23 c 0
 258 -23 80 252 80 530 c 0
 80 810 258 1094 639 1094 c 0xcc
323 530 m 0
 323 288 481 168 639 168 c 0
 797 168 955 288 955 530 c 0
 955 778 797 903 639 903 c 0
 481 903 323 778 323 530 c 0
1027 1445 m 1xdc
 1024 1421 l 1
 1018 1305 950 1206 799 1206 c 0xec
 645 1206 573 1264 472 1264 c 0
 431 1264 420 1251 418 1225 c 2
 417 1209 l 1
 251 1209 l 1
 252 1231 l 1
 255 1351 331 1445 481 1445 c 0xdc
 646 1445 701 1387 812 1387 c 0xec
 844 1387 853 1401 856 1429 c 2
 858 1445 l 1
 1027 1445 l 1xdc
EndSplineSet
EndChar

StartChar: scaron
Encoding: 381 353 221
Width: 1067
Flags: W
HStem: -21 198<305.849 717.14> 847 201<386.062 789.977> 1485 20G<166 388.5 694.75 924>
VStem: 132 230<669.541 819.15> 743 232<208.545 366.732>
DStem2: 520 632 447 447 0.976187 -0.21693<-160.186 269.134>
LayerCount: 2
Fore
SplineSet
568 417 m 1
 447 447 l 1
 287 485 132 554 132 747 c 0
 132 954 319 1048 549 1048 c 0
 703 1048 819 1018 910 957 c 1
 926 946 l 1
 860 764 l 1
 834 780 l 2
 773 818 675 847 555 847 c 0
 438 847 362 819 362 745 c 0
 362 668 421 654 520 632 c 2
 664 600 l 1
 825 560 975 494 975 297 c 0
 975 79 799 -21 556 -21 c 0
 370 -21 219 21 128 99 c 2
 115 110 l 1
 184 304 l 1
 212 279 l 2
 277 221 392 177 540 177 c 0
 679 177 743 204 743 293 c 0
 743 362 673 394 568 417 c 1
650 1174 m 1
 440 1174 l 1
 166 1505 l 1
 367 1505 l 1
 539 1345 l 1
 717 1505 l 1
 924 1505 l 1
 650 1174 l 1
EndSplineSet
EndChar

StartChar: uacute
Encoding: 382 250 222
Width: 1208
Flags: W
HStem: -23 211<476.165 773.835> 1046 20G<131 380 870 1119> 1486 20G<589.485 902>
VStem: 131 249<276.95 1066> 870 249<276.95 1066>
LayerCount: 2
Fore
SplineSet
625 -23 m 0
 324 -23 131 150 131 416 c 2
 131 1066 l 1
 380 1066 l 1
 380 420 l 2
 380 282 476 188 625 188 c 0
 774 188 870 282 870 420 c 2
 870 1066 l 1
 1119 1066 l 1
 1119 416 l 2
 1119 150 926 -23 625 -23 c 0
603 1506 m 1
 902 1506 l 1
 578 1176 l 1
 380 1176 l 1
 603 1506 l 1
EndSplineSet
EndChar

StartChar: udieresis
Encoding: 384 252 224
Width: 1208
Flags: W
HStem: -23 211<476.165 773.835> 1046 20G<131 380 870 1119> 1230 215<330 546 704 920>
VStem: 131 249<276.95 1066> 330 216<1230 1445> 704 216<1230 1445> 870 249<276.95 1066>
LayerCount: 2
Fore
SplineSet
625 -23 m 0xf2
 324 -23 131 150 131 416 c 2
 131 1066 l 1
 380 1066 l 1
 380 420 l 2
 380 282 476 188 625 188 c 0
 774 188 870 282 870 420 c 2
 870 1066 l 1
 1119 1066 l 1
 1119 416 l 2
 1119 150 926 -23 625 -23 c 0xf2
920 1445 m 1xe4
 920 1230 l 1
 704 1230 l 1
 704 1445 l 1
 920 1445 l 1xe4
546 1445 m 1xe8
 546 1230 l 1
 330 1230 l 1
 330 1445 l 1
 546 1445 l 1xe8
EndSplineSet
EndChar

StartChar: ydieresis
Encoding: 387 255 227
Width: 1141
Flags: W
HStem: -387 202<122 362.115> 1046 20G<29 299.801 888.795 1153> 1227 215<294 510 668 884>
VStem: 294 216<1227 1442> 668 216<1227 1442>
LayerCount: 2
Fore
SplineSet
292 1066 m 1
 606 261 l 1
 896 1066 l 1
 1153 1066 l 1
 726 6 l 1
 670 -261 494 -387 144 -387 c 2
 122 -387 l 1
 122 -185 l 1
 144 -185 l 2
 350 -185 460 -127 473 36 c 1
 29 1066 l 1
 292 1066 l 1
884 1442 m 1
 884 1227 l 1
 668 1227 l 1
 668 1442 l 1
 884 1442 l 1
510 1442 m 1
 510 1227 l 1
 294 1227 l 1
 294 1442 l 1
 510 1442 l 1
EndSplineSet
EndChar

StartChar: zcaron
Encoding: 388 382 228
Width: 1012
Flags: W
HStem: 0 193<355 952> 872 194<71 629> 1485 20G<119 341.5 647.75 877>
DStem2: 45 155 355 193 0.62693 0.779076<223.953 924.724>
LayerCount: 2
Fore
SplineSet
45 155 m 1
 629 872 l 1
 71 872 l 1
 71 1066 l 1
 936 1066 l 1
 936 915 l 1
 355 193 l 1
 952 193 l 1
 952 0 l 1
 45 0 l 1
 45 155 l 1
603 1174 m 1
 393 1174 l 1
 119 1505 l 1
 320 1505 l 1
 492 1345 l 1
 670 1505 l 1
 877 1505 l 1
 603 1174 l 1
EndSplineSet
EndChar

StartChar: foursuperior
Encoding: 389 8308 229
Width: 901
Flags: W
HStem: 778 157<181 334 502 603>
VStem: 334 168<615 778 935 1160>
DStem2: -23 897 181 935 0.571858 0.820353<147.832 419.906>
LayerCount: 2
Fore
SplineSet
501 778 m 1
 500 615 l 1
 336 615 l 1
 336 778 l 1
 -23 778 l 1
 -23 897 l 1
 336 1412 l 1
 502 1412 l 1
 502 935 l 1
 603 935 l 1
 618 778 l 1
 501 778 l 1
334 1160 m 1
 181 935 l 1
 334 935 l 1
 334 1160 l 1
EndSplineSet
EndChar

StartChar: uni00AF
Encoding: 390 175 232
Width: 907
Flags: W
HStem: 1330 180<-2 911>
LayerCount: 2
Fore
SplineSet
-2 1510 m 1
 911 1510 l 1
 911 1330 l 1
 -2 1330 l 1
 -2 1510 l 1
EndSplineSet
EndChar

StartChar: periodcentered.001
Encoding: 391 183 233
Width: 471
Flags: W
HStem: 463 260<72 328>
VStem: 72 256<463 723>
LayerCount: 2
Fore
SplineSet
72 723 m 1
 328 723 l 1
 328 463 l 1
 72 463 l 1
 72 723 l 1
EndSplineSet
EndChar

StartChar: amacron
Encoding: 393 257 235
Width: 1165
Flags: W
HStem: -23 179<393.645 738.144> 0 21G<884.781 1077> 445 152<429.57 828> 905 189<357.24 787.73> 1258 187<302 895>
VStem: 119 240<192.214 387.687> 828 249<209.727 445 597 863.153>
LayerCount: 2
Fore
SplineSet
893 0 m 1x7e
 863 73 l 1
 751 21 634 -23 479 -23 c 0xbe
 270 -23 119 86 119 279 c 0
 119 574 443 597 755 597 c 2
 828 597 l 1
 828 741 l 2
 828 860 772 905 635 905 c 0
 463 905 336 862 238 806 c 1
 185 995 l 1
 297 1051 443 1094 630 1094 c 0
 885 1094 1077 1009 1077 772 c 2
 1077 0 l 1
 893 0 l 1x7e
530 156 m 0
 652 156 734 191 828 226 c 1
 828 445 l 1
 752 445 l 2
 537 445 359 427 359 302 c 0
 359 203 412 156 530 156 c 0
895 1445 m 1
 895 1258 l 1
 302 1258 l 1
 302 1445 l 1
 895 1445 l 1
EndSplineSet
EndChar

StartChar: abreve
Encoding: 395 259 237
Width: 1165
Flags: W
HStem: -23 179<393.645 738.144> 0 21G<884.781 1077> 445 152<429.57 828> 905 189<357.24 787.73> 1206 158<481.993 714.007> 1425 20G<303 477 719 893>
VStem: 119 240<192.214 387.687> 303 174<1377.93 1445> 719 174<1377.67 1445> 828 249<209.727 445 597 863.153>
LayerCount: 2
Fore
SplineSet
893 0 m 1x7c80
 863 73 l 1
 751 21 634 -23 479 -23 c 0xbc80
 270 -23 119 86 119 279 c 0
 119 574 443 597 755 597 c 2
 828 597 l 1
 828 741 l 2
 828 860 772 905 635 905 c 0
 463 905 336 862 238 806 c 1
 185 995 l 1
 297 1051 443 1094 630 1094 c 0
 885 1094 1077 1009 1077 772 c 2
 1077 0 l 1x7e40
 893 0 l 1x7c80
530 156 m 0
 652 156 734 191 828 226 c 1
 828 445 l 1
 752 445 l 2
 537 445 359 427 359 302 c 0xbe40
 359 203 412 156 530 156 c 0
477 1445 m 1x3d80
 477 1423 l 2
 477 1386 521 1364 598 1364 c 0
 675 1364 719 1386 719 1423 c 2
 719 1445 l 1
 893 1445 l 1
 893 1421 l 2
 893 1282 758 1206 598 1206 c 0
 438 1206 303 1283 303 1421 c 2
 303 1445 l 1
 477 1445 l 1x3d80
EndSplineSet
EndChar

StartChar: aogonek
Encoding: 397 261 239
Width: 1165
Flags: W
HStem: -383 158<929.443 1166.71> -346 164<1006 1170> -23 179<393.645 738.144> 0 21G<884.781 1077> 445 152<429.57 828> 905 189<357.24 787.73>
VStem: 119 240<192.214 387.687> 743 185<-220.8 -116.251> 828 249<209.727 445 597 863.153>
LayerCount: 2
Fore
SplineSet
893 0 m 1x1e80
 863 73 l 1
 751 21 634 -23 479 -23 c 0x2e80
 270 -23 119 86 119 279 c 0
 119 574 443 597 755 597 c 2
 828 597 l 1
 828 741 l 2
 828 860 772 905 635 905 c 0
 463 905 336 862 238 806 c 1
 185 995 l 1
 297 1051 443 1094 630 1094 c 0
 885 1094 1077 1009 1077 772 c 2
 1077 0 l 1
 893 0 l 1x1e80
530 156 m 0
 652 156 734 191 828 226 c 1
 828 445 l 1
 752 445 l 2
 537 445 359 427 359 302 c 0
 359 203 412 156 530 156 c 0
968 19 m 1
 1173 0 l 1
 1040 -70 928 -121 928 -179 c 0
 928 -204 957 -225 998 -225 c 0x9f
 1056 -225 1093 -213 1170 -182 c 1
 1170 -346 l 1x4f
 1106 -373 1039 -383 975 -383 c 0
 856 -383 743 -331 743 -214 c 0x8f
 743 -89 879 -22 968 19 c 1
EndSplineSet
EndChar

StartChar: cacute
Encoding: 399 263 241
Width: 1110
Flags: W
HStem: -23 191<487.056 827.514> 903 191<490.025 831.483> 1486 20G<533.485 846>
VStem: 74 251<333.785 734.422>
LayerCount: 2
Fore
SplineSet
1065 136 m 1
 942 29 787 -23 638 -23 c 0
 347 -23 74 170 74 537 c 0
 74 896 347 1094 639 1094 c 0
 787 1094 939 1043 1063 936 c 1
 942 770 l 1
 872 857 761 903 651 903 c 0
 486 903 325 787 325 539 c 0
 325 285 479 168 643 168 c 0
 752 168 864 213 943 300 c 1
 1065 136 l 1
547 1506 m 1
 846 1506 l 1
 522 1176 l 1
 324 1176 l 1
 547 1506 l 1
EndSplineSet
EndChar

StartChar: ccaron
Encoding: 401 269 243
Width: 1110
Flags: W
HStem: -23 191<487.056 827.514> 903 191<490.025 831.483> 1485 20G<190 412.5 718.75 948>
VStem: 74 251<333.785 734.422>
LayerCount: 2
Fore
SplineSet
1065 136 m 1
 942 29 787 -23 638 -23 c 0
 347 -23 74 170 74 537 c 0
 74 896 347 1094 639 1094 c 0
 787 1094 939 1043 1063 936 c 1
 942 770 l 1
 872 857 761 903 651 903 c 0
 486 903 325 787 325 539 c 0
 325 285 479 168 643 168 c 0
 752 168 864 213 943 300 c 1
 1065 136 l 1
674 1174 m 1
 464 1174 l 1
 190 1505 l 1
 391 1505 l 1
 563 1345 l 1
 741 1505 l 1
 948 1505 l 1
 674 1174 l 1
EndSplineSet
EndChar

StartChar: emacron
Encoding: 403 275 245
Width: 1178
Flags: W
HStem: -23 191<485.619 885.608> 472 173<337 896> 903 191<478.503 784.578> 1258 187<308 901>
LayerCount: 2
Fore
SplineSet
1134 472 m 1
 328 472 l 1
 356 295 448 168 659 168 c 0
 820 168 930 222 1002 290 c 1
 1103 127 l 1
 999 33 863 -23 636 -23 c 0
 264 -23 74 250 74 536 c 0
 74 837 282 1094 633 1094 c 0
 972 1094 1135 854 1135 558 c 0
 1135 530 1134 501 1134 472 c 1
636 903 m 0
 463 903 363 779 337 645 c 1
 896 645 l 1
 877 797 800 903 636 903 c 0
901 1445 m 1
 901 1258 l 1
 308 1258 l 1
 308 1445 l 1
 901 1445 l 1
EndSplineSet
EndChar

StartChar: eogonek
Encoding: 405 281 247
Width: 1178
Flags: W
HStem: -383 158<613.443 850.709> -346 164<690 854> 472 173<337 896> 903 191<478.503 784.578>
VStem: 427 185<-220.8 -116.251>
LayerCount: 2
Fore
SplineSet
1134 472 m 1x38
 328 472 l 1
 356 295 448 168 659 168 c 0
 820 168 930 222 1002 290 c 1
 1103 127 l 1
 999 33 863 -23 636 -23 c 0
 264 -23 74 250 74 536 c 0
 74 837 282 1094 633 1094 c 0
 972 1094 1135 854 1135 558 c 0
 1135 530 1134 501 1134 472 c 1x38
636 903 m 0
 463 903 363 779 337 645 c 1
 896 645 l 1
 877 797 800 903 636 903 c 0
652 19 m 1
 857 0 l 1
 724 -70 612 -121 612 -179 c 0
 612 -204 641 -225 682 -225 c 0xb8
 740 -225 777 -213 854 -182 c 1
 854 -346 l 1x78
 790 -373 723 -383 659 -383 c 0xb8
 540 -383 427 -331 427 -214 c 0
 427 -89 563 -22 652 19 c 1
EndSplineSet
EndChar

StartChar: Gcedilla
Encoding: 406 290 248
Width: 1559
Flags: W
HStem: -23 215<637.601 1106.33> 583 198<795 1156> 1258 215<655.647 1112.69>
VStem: 100 275<479.334 974.34> 1156 215<238.602 583>
LayerCount: 2
Fore
SplineSet
1250 1127 m 1
 1155 1210 1036 1258 894 1258 c 0
 540 1258 375 1037 375 727 c 0
 375 417 530 192 854 192 c 0
 973 192 1080 221 1156 256 c 1
 1156 583 l 1
 795 583 l 1
 795 781 l 1
 1371 781 l 1
 1371 135 l 1
 1225 48 1073 -23 846 -23 c 0
 387 -23 100 299 100 728 c 0
 100 1154 397 1473 867 1473 c 0
 1059 1473 1217 1424 1333 1322 c 1
 1250 1127 l 1
809 -653 m 1
 635 -653 l 1
 748 -140 l 1
 981 -140 l 1
 809 -653 l 1
EndSplineSet
EndChar

StartChar: gcedilla
Encoding: 407 291 249
Width: 1298
Flags: W
HStem: -426 205<330 783.032> -1 191<446.621 760.16> 903 191<447.486 759.378> 1046 20G<912 1161>
VStem: 41 243<361.208 732.993> 912 249<349.519 742.289 941 1066>
LayerCount: 2
Fore
SplineSet
1161 1066 m 1xdc
 1161 132 l 2
 1161 -268 955 -426 508 -426 c 2
 330 -426 l 1
 330 -221 l 1
 513 -221 l 1
 808 -227 943 -135 914 124 c 1
 836 50 728 -1 577 -1 c 0
 208 -1 41 277 41 556 c 0
 41 803 212 1094 557 1094 c 0xec
 712 1094 829 1035 912 941 c 1
 912 1066 l 1
 1161 1066 l 1xdc
915 546 m 0
 915 785 759 903 602 903 c 0
 444 903 284 782 284 546 c 0
 284 310 444 190 603 190 c 0
 760 190 915 306 915 546 c 0
600 1718 m 1
 774 1718 l 1
 661 1205 l 1
 428 1205 l 1
 600 1718 l 1
EndSplineSet
EndChar

StartChar: hbar
Encoding: 408 295 250
Width: 1206
Flags: W
HStem: 0 21G<161 394 894 1127> 844 201<531.392 833.816> 1133 184<2 161 394 595> 1467 20G<161 394>
VStem: 161 233<0 725.479 921 1133 1317 1487> 894 233<0 779.434>
LayerCount: 2
Fore
SplineSet
595 1317 m 1
 595 1133 l 1
 394 1133 l 1
 394 921 l 1
 475 999 583 1045 737 1045 c 0
 1019 1045 1127 859 1127 606 c 2
 1127 0 l 1
 894 0 l 1
 895 508 l 2
 895 701 887 844 702 844 c 0
 552 844 425 747 394 650 c 1
 394 0 l 1
 161 0 l 1
 161 1133 l 1
 2 1133 l 1
 2 1317 l 1
 161 1317 l 1
 161 1487 l 1
 394 1487 l 1
 394 1317 l 1
 595 1317 l 1
EndSplineSet
EndChar

StartChar: Itilde
Encoding: 409 296 251
Width: 610
Flags: W
HStem: 0 21G<186 427> 1425 20G<186 427> 1616 181<309.437 556.075> 1674 181<121.866 377.492>
VStem: 186 241<0 1445>
LayerCount: 2
Fore
SplineSet
186 1445 m 1xc8
 427 1445 l 1
 427 0 l 1
 186 0 l 1
 186 1445 l 1xc8
729 1855 m 1xd8
 726 1831 l 1
 720 1715 652 1616 501 1616 c 0xe8
 347 1616 275 1674 174 1674 c 0
 133 1674 122 1661 120 1635 c 2
 119 1619 l 1
 -47 1619 l 1
 -46 1641 l 1
 -43 1761 33 1855 183 1855 c 0xd8
 348 1855 403 1797 514 1797 c 0xe8
 546 1797 555 1811 558 1839 c 2
 560 1855 l 1
 729 1855 l 1xd8
EndSplineSet
EndChar

StartChar: itilde
Encoding: 410 297 252
Width: 526
Flags: W
HStem: 0 21G<157 365> 1186 181<290.437 537.075> 1244 181<102.866 358.492>
VStem: 157 208<0 1020>
LayerCount: 2
Fore
SplineSet
157 1020 m 1x90
 365 1020 l 1
 365 0 l 1
 157 0 l 1
 157 1020 l 1x90
710 1425 m 1xb0
 707 1401 l 1
 701 1285 633 1186 482 1186 c 0xd0
 328 1186 256 1244 155 1244 c 0
 114 1244 103 1231 101 1205 c 2
 100 1189 l 1
 -66 1189 l 1
 -65 1211 l 1
 -62 1331 14 1425 164 1425 c 0xb0
 329 1425 384 1367 495 1367 c 0xd0
 527 1367 536 1381 539 1409 c 2
 541 1425 l 1
 710 1425 l 1xb0
EndSplineSet
EndChar

StartChar: Imacron
Encoding: 411 298 253
Width: 610
Flags: W
HStem: 0 21G<185 426> 1425 20G<185 426> 1563 184<10 603>
VStem: 185 241<0 1445>
LayerCount: 2
Fore
SplineSet
185 1445 m 1
 426 1445 l 1
 426 0 l 1
 185 0 l 1
 185 1445 l 1
603 1747 m 1
 603 1563 l 1
 10 1563 l 1
 10 1747 l 1
 603 1747 l 1
EndSplineSet
EndChar

StartChar: imacron
Encoding: 412 299 254
Width: 526
Flags: W
HStem: 0 21G<159 367> 1133 184<-6 587>
VStem: 159 208<0 1020>
LayerCount: 2
Fore
SplineSet
159 1020 m 1
 367 1020 l 1
 367 0 l 1
 159 0 l 1
 159 1020 l 1
587 1317 m 1
 587 1133 l 1
 -6 1133 l 1
 -6 1317 l 1
 587 1317 l 1
EndSplineSet
EndChar

StartChar: Iogonek
Encoding: 413 302 255
Width: 610
Flags: W
HStem: -389 158<278.443 518.617> 1425 20G<184 425>
VStem: 92 185<-226.8 -121.25> 184 241<3 1445>
LayerCount: 2
Fore
SplineSet
184 1445 m 1xd0
 425 1445 l 1
 425 3 l 1xd0
 522 -6 l 1
 459 -39 l 2
 389 -76 277 -127 277 -185 c 0
 277 -210 306 -231 347 -231 c 0
 405 -231 442 -219 485 -202 c 2
 519 -188 l 1
 519 -352 l 1
 504 -358 l 1
 455 -379 388 -389 324 -389 c 0
 205 -389 92 -337 92 -220 c 0xe0
 92 -105 206 -39 289 0 c 1
 184 0 l 1
 184 1445 l 1xd0
EndSplineSet
EndChar

StartChar: iogonek
Encoding: 414 303 256
Width: 524
Flags: W
HStem: -389 158<236.295 475.617> 1345 140<165 359>
VStem: 49 185<-224.917 -92.6754> 158 204<-45.985 -29 53 1035 1345 1485>
LayerCount: 2
Fore
SplineSet
475 42 m 1xd0
 416 4 l 1
 363 -29 l 1
 363 -87 l 1
 284 -87 l 1
 254 -114 234 -143 234 -174 c 0
 234 -206 264 -231 304 -231 c 0
 362 -231 399 -219 442 -202 c 2
 476 -188 l 1
 476 -352 l 1
 461 -358 l 1
 412 -379 345 -389 281 -389 c 0
 162 -389 49 -330 49 -199 c 0xe0
 49 -113 101 -51 158 -7 c 1
 158 1035 l 1
 362 1035 l 1
 362 53 l 1
 475 42 l 1xd0
165 1485 m 1
 359 1485 l 1
 359 1345 l 1
 165 1345 l 1
 165 1485 l 1
EndSplineSet
EndChar

StartChar: IJ
Encoding: 415 306 257
Width: 1503
Flags: W
HStem: -23 196<850 1062.74> 0 21G<184 425> 1425 20G<184 425 1106 1347>
VStem: 184 241<0 1445> 1106 241<217.994 1445>
LayerCount: 2
Fore
SplineSet
184 1445 m 1x78
 425 1445 l 1
 425 0 l 1
 184 0 l 1
 184 1445 l 1x78
1106 1445 m 1
 1347 1446 l 1
 1347 439 l 2
 1347 112 1253 -23 905 -23 c 2
 850 -23 l 1
 850 173 l 1xb8
 924 174 l 1
 1078 178 1106 230 1106 389 c 2
 1106 1445 l 1
EndSplineSet
EndChar

StartChar: ij
Encoding: 416 307 258
Width: 1006
Flags: W
HStem: 0 21G<143 376> 1211 234<143 376 619 852>
VStem: 143 233<0 1020 1211 1445> 619 233<-41.9587 1021 1212 1446>
LayerCount: 2
Fore
SplineSet
143 1020 m 1
 376 1020 l 1
 376 0 l 1
 143 0 l 1
 143 1020 l 1
143 1445 m 1
 376 1445 l 1
 376 1211 l 1
 143 1211 l 1
 143 1445 l 1
427 -289 m 1
 426 -84 l 1
 448 -81 l 1
 597 -63 619 -31 619 132 c 2
 619 1021 l 1
 852 1021 l 1
 852 179 l 2
 852 47 853 -64 792 -147 c 1
 723 -244 600 -267 455 -285 c 1
 427 -289 l 1
619 1446 m 1
 852 1446 l 1
 852 1212 l 1
 619 1212 l 1
 619 1446 l 1
EndSplineSet
EndChar

StartChar: Jcircumflex
Encoding: 417 308 259
Width: 942
Flags: W
HStem: -23 196<290 502.74> 1426 20G<546 787>
VStem: 546 241<217.994 1445>
LayerCount: 2
Fore
SplineSet
546 1445 m 1
 787 1446 l 1
 787 439 l 2
 787 112 693 -23 345 -23 c 2
 290 -23 l 1
 290 173 l 1
 364 174 l 1
 518 178 546 230 546 389 c 2
 546 1445 l 1
331 1547 m 1
 154 1547 l 1
 413 1919 l 1
 630 1919 l 1
 889 1547 l 1
 706 1547 l 1
 517 1750 l 1
 331 1547 l 1
EndSplineSet
EndChar

StartChar: jcircumflex
Encoding: 418 309 260
Width: 528
Flags: W
HStem: -430 197<-91.1324 109.656> 1467 20G<220.075 464.925>
VStem: 167 207<-171.357 1019>
LayerCount: 2
Fore
SplineSet
167 1020 m 1
 374 1019 l 1
 374 111 l 2
 374 -142 337 -430 46 -430 c 0
 2 -430 -38 -425 -76 -416 c 2
 -95 -412 l 1
 -96 -218 l 1
 -66 -224 l 2
 -34 -230 -9 -233 9 -233 c 0
 134 -233 167 -124 167 45 c 2
 167 1020 l 1
152 1115 m 1
 -25 1115 l 1
 234 1487 l 1
 451 1487 l 1
 710 1115 l 1
 527 1115 l 1
 338 1318 l 1
 152 1115 l 1
EndSplineSet
EndChar

StartChar: kcommaaccent
Encoding: 419 311 261
Width: 1124
Flags: W
HStem: 0 21G<170 377 854.538 1155> 1473 20G<170 377>
VStem: 170 207<0 465 622 1493> 829 292<735 1027>
DStem2: 377 622 558 541 0.756974 0.653445<84.0833 606.797> 558 541 377 465 0.741006 -0.671498<0 598.92>
LayerCount: 2
Fore
SplineSet
170 0 m 1
 170 1493 l 1
 377 1493 l 1
 377 622 l 1
 829 1027 l 1
 1121 1027 l 1
 558 541 l 1
 751 374 939 207 1112 41 c 2
 1155 0 l 1
 876 0 l 1
 377 465 l 1
 377 0 l 1
 170 0 l 1
605 -602 m 1
 415 -602 l 1
 540 -89 l 1
 796 -89 l 1
 605 -602 l 1
EndSplineSet
EndChar

StartChar: kgreenlandic
Encoding: 420 312 262
Width: 1128
Flags: W
HStem: 0 21G<168.98 376 852.162 1156>
VStem: 169 207<0 437 593 1025> 827 290<735 1025>
DStem2: 375 593 556 512 0.737973 0.674831<78.9118 625.09> 556 512 376 437 0.760687 -0.649119<0 575.008>
LayerCount: 2
Fore
SplineSet
169 0 m 1
 168 1025 l 1
 375 1025 l 1
 375 593 l 1
 827 1025 l 1
 1117 1025 l 1
 556 512 l 1
 749 354 937 198 1110 41 c 1
 1156 0 l 1
 875 0 l 1
 376 437 l 1
 376 0 l 1
 169 0 l 1
EndSplineSet
EndChar

StartChar: Ldotaccent
Encoding: 421 319 263
Width: 1114
Flags: W
HStem: 0 208<430 1112> 463 260<601 857> 1425 20G<190 430>
VStem: 190 240<208 1445> 601 256<463 723>
LayerCount: 2
Fore
SplineSet
190 0 m 1
 190 1445 l 1
 430 1445 l 1
 430 208 l 1
 1112 208 l 1
 1112 0 l 1
 190 0 l 1
601 723 m 1
 857 723 l 1
 857 463 l 1
 601 463 l 1
 601 723 l 1
EndSplineSet
EndChar

StartChar: ldot
Encoding: 422 320 264
Width: 975
Flags: W
HStem: 0 21G<158 363> 488 260<550 806> 1467 20G<158 363>
VStem: 158 205<0 1487> 550 256<488 748>
LayerCount: 2
Fore
SplineSet
158 1487 m 1
 363 1487 l 1
 363 0 l 1
 158 0 l 1
 158 1487 l 1
550 748 m 1
 806 748 l 1
 806 488 l 1
 550 488 l 1
 550 748 l 1
EndSplineSet
EndChar

StartChar: nacute
Encoding: 424 324 266
Width: 1251
Flags: W
HStem: 0 21G<136 385 898 1147> 903 191<541.423 829.169> 1046 20G<133 367.019> 1486 20G<681.485 994>
VStem: 133 233<909 1066> 136 249<0 767.373> 898 249<0 827.583>
LayerCount: 2
Fore
SplineSet
898 0 m 1xda
 898 530 l 1
 899 745 896 903 703 903 c 0
 545 903 417 792 385 681 c 1
 385 0 l 1
 136 0 l 1
 136 795 l 2xd6
 136 876 133 1066 133 1066 c 1
 366 1066 l 1xba
 374 909 l 1
 462 1025 577 1094 748 1094 c 0
 1036 1094 1147 898 1147 634 c 2
 1147 0 l 1
 898 0 l 1xda
695 1506 m 1
 994 1506 l 1
 670 1176 l 1
 472 1176 l 1
 695 1506 l 1
EndSplineSet
EndChar

StartChar: Rcommaaccent
Encoding: 426 342 268
Width: 1425
Flags: W
HStem: 0 19G<172 413 1107.7 1368> 615 205<414 767.938> 1236 207<414 971.498>
VStem: 172 241<0 615 820 1236> 1054 245<909.182 1159.81>
LayerCount: 2
Fore
SplineSet
172 1445 m 1
 647 1443 l 1
 1007 1443 1299 1378 1299 1045 c 0
 1299 843 1184 722 1010 672 c 1
 1061 625 1108 574 1139 509 c 1
 1368 -1 l 1
 1118 -2 l 1
 895 431 l 2
 859 501 819 559 770 607 c 1
 726 613 683 615 632 615 c 2
 413 615 l 1
 413 0 l 1
 172 0 l 1
 172 1445 l 1
414 820 m 1
 690 820 l 2
 914 820 1054 872 1054 1040 c 0
 1054 1185 941 1236 734 1236 c 2
 414 1236 l 1
 414 820 l 1
771 -653 m 1
 597 -653 l 1
 710 -140 l 1
 943 -140 l 1
 771 -653 l 1
EndSplineSet
EndChar

StartChar: rcommaaccent
Encoding: 427 343 269
Width: 750
Flags: W
HStem: 0 21G<150 399> 896 198<507.483 731.19> 1046 20G<147 380.993>
VStem: 147 233<925 1066> 150 249<0 784.806 925 1031.39>
LayerCount: 2
Fore
SplineSet
732 881 m 1xd0
 698 891 666 896 636 896 c 0
 486 896 399 772 399 592 c 2
 399 0 l 1
 150 0 l 1
 150 826 l 2xc8
 150 906 147 988 147 1066 c 1
 380 1066 l 1xb0
 387 925 l 1
 449 1024 537 1094 664 1094 c 0
 693 1094 732 1087 732 1087 c 1
 732 881 l 1xd0
440 -653 m 1
 266 -653 l 1
 379 -140 l 1
 612 -140 l 1
 440 -653 l 1
EndSplineSet
EndChar

StartChar: rcaron
Encoding: 429 345 271
Width: 750
Flags: W
HStem: 0 21G<150 399> 896 198<507.483 731.19> 1046 20G<147 380.993> 1485 20G<60 282.5 588.75 818>
VStem: 147 233<925 1066> 150 249<0 784.806 925 1031.39>
LayerCount: 2
Fore
SplineSet
732 881 m 1xd8
 698 891 666 896 636 896 c 0
 486 896 399 772 399 592 c 2
 399 0 l 1
 150 0 l 1
 150 826 l 2xd4
 150 906 147 988 147 1066 c 1
 380 1066 l 1xb8
 387 925 l 1
 449 1024 537 1094 664 1094 c 0
 693 1094 732 1087 732 1087 c 1
 732 881 l 1xd8
544 1174 m 1
 334 1174 l 1
 60 1505 l 1
 261 1505 l 1
 433 1345 l 1
 611 1505 l 1
 818 1505 l 1
 544 1174 l 1
EndSplineSet
EndChar

StartChar: sacute
Encoding: 431 347 273
Width: 1067
Flags: W
HStem: -21 198<305.849 717.14> 847 201<386.062 789.977> 1486 20G<509.485 822>
VStem: 132 230<669.541 819.15> 743 232<208.545 366.732>
DStem2: 520 632 447 447 0.976187 -0.21693<-160.186 269.134>
LayerCount: 2
Fore
SplineSet
568 417 m 1
 447 447 l 1
 287 485 132 554 132 747 c 0
 132 954 319 1048 549 1048 c 0
 703 1048 819 1018 910 957 c 1
 926 946 l 1
 860 764 l 1
 834 780 l 2
 773 818 675 847 555 847 c 0
 438 847 362 819 362 745 c 0
 362 668 421 654 520 632 c 2
 664 600 l 1
 825 560 975 494 975 297 c 0
 975 79 799 -21 556 -21 c 0
 370 -21 219 21 128 99 c 2
 115 110 l 1
 184 304 l 1
 212 279 l 2
 277 221 392 177 540 177 c 0
 679 177 743 204 743 293 c 0
 743 362 673 394 568 417 c 1
523 1506 m 1
 822 1506 l 1
 498 1176 l 1
 300 1176 l 1
 523 1506 l 1
EndSplineSet
EndChar

StartChar: Tcommaaccent
Encoding: 432 354 274
Width: 1202
Flags: W
HStem: 0 21G<473 741> 1237 208<35 473 741 1179>
VStem: 473 268<0 1237>
LayerCount: 2
Fore
SplineSet
473 1237 m 1
 35 1237 l 1
 35 1445 l 1
 1179 1445 l 1
 1179 1237 l 1
 741 1237 l 1
 741 0 l 1
 473 0 l 1
 473 1237 l 1
604 -653 m 1
 430 -653 l 1
 543 -140 l 1
 776 -140 l 1
 604 -653 l 1
EndSplineSet
EndChar

StartChar: tcommaaccent
Encoding: 433 355 275
Width: 797
Flags: W
HStem: -23 199<485.79 699> 911 155<43 207 456 700> 1432 20G<367.071 456>
VStem: 207 249<199.172 911 1066 1396>
LayerCount: 2
Fore
SplineSet
699 176 m 1
 699 -23 l 1
 588 -23 l 2
 244 -23 207 135 207 416 c 2
 207 911 l 1
 43 911 l 1
 43 1066 l 1
 207 1066 l 1
 207 1396 l 1
 456 1452 l 1
 456 1066 l 1
 700 1066 l 1
 700 911 l 1
 456 911 l 1
 456 401 l 2
 456 251 457 176 588 176 c 2
 699 176 l 1
372 -653 m 1
 198 -653 l 1
 311 -140 l 1
 544 -140 l 1
 372 -653 l 1
EndSplineSet
EndChar

StartChar: zacute
Encoding: 435 378 277
Width: 1012
Flags: W
HStem: 0 193<355 952> 872 194<71 629> 1486 20G<539.485 852>
DStem2: 45 155 355 193 0.62693 0.779076<223.953 924.724>
LayerCount: 2
Fore
SplineSet
45 155 m 1
 629 872 l 1
 71 872 l 1
 71 1066 l 1
 936 1066 l 1
 936 915 l 1
 355 193 l 1
 952 193 l 1
 952 0 l 1
 45 0 l 1
 45 155 l 1
553 1506 m 1
 852 1506 l 1
 528 1176 l 1
 330 1176 l 1
 553 1506 l 1
EndSplineSet
EndChar

StartChar: zdotaccent
Encoding: 437 380 279
Width: 1012
Flags: W
HStem: 0 193<355 952> 872 194<71 629> 1232 213<397 599>
VStem: 397 202<1232 1445>
DStem2: 45 155 355 193 0.62693 0.779076<223.953 924.724>
LayerCount: 2
Fore
SplineSet
45 155 m 1
 629 872 l 1
 71 872 l 1
 71 1066 l 1
 936 1066 l 1
 936 915 l 1
 355 193 l 1
 952 193 l 1
 952 0 l 1
 45 0 l 1
 45 155 l 1
599 1445 m 1
 599 1232 l 1
 397 1232 l 1
 397 1445 l 1
 599 1445 l 1
EndSplineSet
EndChar

StartChar: uni0200
Encoding: 438 512 280
Width: 1382
Flags: W
HStem: 0 21G<18 273.477 1130.48 1388> 444 195<508 896> 1425 20G<573.208 832.792>
DStem2: 18 0 266 0 0.363037 0.931775<90.0333 564.005 773.292 1358.22> 825 1445 705 1190 0.363037 -0.931775<194.038 776.786 985.71 1427.95> 825 1445 896 639 0.363037 -0.931775<194.038 776.786 985.71 1460.04>
LayerCount: 2
Fore
SplineSet
266 0 m 1
 18 0 l 1
 581 1445 l 1
 825 1445 l 1
 1388 0 l 1
 1138 0 l 1
 971 444 l 1
 432 444 l 1
 266 0 l 1
508 639 m 1
 896 639 l 1
 705 1190 l 1
 508 639 l 1
119 1885 m 1
 418 1885 l 1
 641 1555 l 1
 443 1555 l 1
 119 1885 l 1
543 1885 m 1
 842 1885 l 1
 1065 1555 l 1
 867 1555 l 1
 543 1885 l 1
EndSplineSet
EndChar

StartChar: uni0201
Encoding: 439 513 281
Width: 1165
Flags: W
HStem: -23 179<393.645 738.144> 0 21G<884.781 1077> 445 152<429.57 828> 905 189<357.24 787.73> 1486 20G<14 326.515 438 750.515>
VStem: 119 240<192.214 387.687> 828 249<209.727 445 597 863.153>
LayerCount: 2
Fore
SplineSet
893 0 m 1x7e
 863 73 l 1
 751 21 634 -23 479 -23 c 0xbe
 270 -23 119 86 119 279 c 0
 119 574 443 597 755 597 c 2
 828 597 l 1
 828 741 l 2
 828 860 772 905 635 905 c 0
 463 905 336 862 238 806 c 1
 185 995 l 1
 297 1051 443 1094 630 1094 c 0
 885 1094 1077 1009 1077 772 c 2
 1077 0 l 1
 893 0 l 1x7e
530 156 m 0
 652 156 734 191 828 226 c 1
 828 445 l 1
 752 445 l 2
 537 445 359 427 359 302 c 0
 359 203 412 156 530 156 c 0
14 1506 m 1
 313 1506 l 1
 536 1176 l 1
 338 1176 l 1
 14 1506 l 1
438 1506 m 1
 737 1506 l 1
 960 1176 l 1
 762 1176 l 1
 438 1506 l 1
EndSplineSet
EndChar

StartChar: uni0202
Encoding: 440 514 282
Width: 1382
Flags: W
HStem: 0 21G<18 273.477 1130.48 1388> 444 195<508 896> 1425 20G<573.208 832.792> 1666 158<586.993 819.007>
VStem: 408 174<1585 1652.33> 824 174<1585 1652.07>
DStem2: 18 0 266 0 0.363037 0.931775<90.0333 564.005 773.292 1358.22> 825 1445 705 1190 0.363037 -0.931775<194.038 776.786 985.71 1427.95> 825 1445 896 639 0.363037 -0.931775<194.038 776.786 985.71 1460.04>
LayerCount: 2
Fore
SplineSet
266 0 m 1
 18 0 l 1
 581 1445 l 1
 825 1445 l 1
 1388 0 l 1
 1138 0 l 1
 971 444 l 1
 432 444 l 1
 266 0 l 1
508 639 m 1
 896 639 l 1
 705 1190 l 1
 508 639 l 1
824 1585 m 1
 824 1607 l 2
 824 1644 780 1666 703 1666 c 0
 626 1666 582 1644 582 1607 c 2
 582 1585 l 1
 408 1585 l 1
 408 1609 l 2
 408 1748 543 1824 703 1824 c 0
 863 1824 998 1747 998 1609 c 2
 998 1585 l 1
 824 1585 l 1
EndSplineSet
EndChar

StartChar: uni0203
Encoding: 441 515 283
Width: 1165
Flags: W
HStem: -23 179<393.645 738.144> 0 21G<884.781 1077> 445 152<429.57 828> 905 189<357.24 787.73> 1287 158<481.993 714.007>
VStem: 119 240<192.214 387.687> 303 174<1206 1273.33> 719 174<1206 1273.07> 828 249<209.727 445 597 863.153>
LayerCount: 2
Fore
SplineSet
893 0 m 1x79
 863 73 l 1
 751 21 634 -23 479 -23 c 0xb9
 270 -23 119 86 119 279 c 0
 119 574 443 597 755 597 c 2
 828 597 l 1
 828 741 l 2
 828 860 772 905 635 905 c 0
 463 905 336 862 238 806 c 1
 185 995 l 1
 297 1051 443 1094 630 1094 c 0
 885 1094 1077 1009 1077 772 c 2
 1077 0 l 1x7c80
 893 0 l 1x79
530 156 m 0
 652 156 734 191 828 226 c 1
 828 445 l 1
 752 445 l 2
 537 445 359 427 359 302 c 0xbc80
 359 203 412 156 530 156 c 0
719 1206 m 1x3b
 719 1228 l 2
 719 1265 675 1287 598 1287 c 0
 521 1287 477 1265 477 1228 c 2
 477 1206 l 1
 303 1206 l 1
 303 1230 l 2
 303 1369 438 1445 598 1445 c 0
 758 1445 893 1368 893 1230 c 2
 893 1206 l 1
 719 1206 l 1x3b
EndSplineSet
EndChar

StartChar: uni0204
Encoding: 442 516 284
Width: 1257
Flags: W
HStem: 0 208<440 1138> 651 208<440 1080> 1237 208<440 1108>
VStem: 172 268<208 651 859 1237>
LayerCount: 2
Fore
SplineSet
440 859 m 1
 1080 859 l 1
 1080 651 l 1
 440 651 l 1
 440 208 l 1
 1156 208 l 1
 1138 0 l 1
 172 0 l 1
 172 1445 l 1
 1126 1445 l 1
 1108 1237 l 1
 440 1237 l 1
 440 859 l 1
80 1885 m 1
 379 1885 l 1
 602 1555 l 1
 404 1555 l 1
 80 1885 l 1
504 1885 m 1
 803 1885 l 1
 1026 1555 l 1
 828 1555 l 1
 504 1885 l 1
EndSplineSet
EndChar

StartChar: uni0205
Encoding: 443 517 285
Width: 1178
Flags: W
HStem: -23 191<485.619 885.608> 472 173<337 896> 903 191<478.503 784.578> 1486 20G<20 332.515 444 756.515>
LayerCount: 2
Fore
SplineSet
1134 472 m 1
 328 472 l 1
 356 295 448 168 659 168 c 0
 820 168 930 222 1002 290 c 1
 1103 127 l 1
 999 33 863 -23 636 -23 c 0
 264 -23 74 250 74 536 c 0
 74 837 282 1094 633 1094 c 0
 972 1094 1135 854 1135 558 c 0
 1135 530 1134 501 1134 472 c 1
636 903 m 0
 463 903 363 779 337 645 c 1
 896 645 l 1
 877 797 800 903 636 903 c 0
20 1506 m 1
 319 1506 l 1
 542 1176 l 1
 344 1176 l 1
 20 1506 l 1
444 1506 m 1
 743 1506 l 1
 966 1176 l 1
 768 1176 l 1
 444 1506 l 1
EndSplineSet
EndChar

StartChar: uni0206
Encoding: 444 518 286
Width: 1257
Flags: W
HStem: 0 208<440 1138> 651 208<440 1080> 1237 208<440 1108> 1666 158<547.993 780.007>
VStem: 172 268<208 651 859 1237> 369 174<1585 1652.33> 785 174<1585 1652.07>
LayerCount: 2
Fore
SplineSet
440 859 m 1xfa
 1080 859 l 1
 1080 651 l 1
 440 651 l 1
 440 208 l 1
 1156 208 l 1
 1138 0 l 1
 172 0 l 1
 172 1445 l 1
 1126 1445 l 1
 1108 1237 l 1
 440 1237 l 1
 440 859 l 1xfa
785 1585 m 1
 785 1607 l 2
 785 1644 741 1666 664 1666 c 0
 587 1666 543 1644 543 1607 c 2
 543 1585 l 1
 369 1585 l 1
 369 1609 l 2xf6
 369 1748 504 1824 664 1824 c 0
 824 1824 959 1747 959 1609 c 2
 959 1585 l 1
 785 1585 l 1
EndSplineSet
EndChar

StartChar: uni0207
Encoding: 445 519 287
Width: 1178
Flags: W
HStem: -23 191<485.619 885.608> 472 173<337 896> 903 191<478.503 784.578> 1287 158<487.993 720.007>
VStem: 309 174<1206 1273.33> 725 174<1206 1273.07>
LayerCount: 2
Fore
SplineSet
1134 472 m 1
 328 472 l 1
 356 295 448 168 659 168 c 0
 820 168 930 222 1002 290 c 1
 1103 127 l 1
 999 33 863 -23 636 -23 c 0
 264 -23 74 250 74 536 c 0
 74 837 282 1094 633 1094 c 0
 972 1094 1135 854 1135 558 c 0
 1135 530 1134 501 1134 472 c 1
636 903 m 0
 463 903 363 779 337 645 c 1
 896 645 l 1
 877 797 800 903 636 903 c 0
725 1206 m 1
 725 1228 l 2
 725 1265 681 1287 604 1287 c 0
 527 1287 483 1265 483 1228 c 2
 483 1206 l 1
 309 1206 l 1
 309 1230 l 2
 309 1369 444 1445 604 1445 c 0
 764 1445 899 1368 899 1230 c 2
 899 1206 l 1
 725 1206 l 1
EndSplineSet
EndChar

StartChar: uni0208
Encoding: 446 520 288
Width: 608
Flags: W
HStem: 0 21G<170 438> 1425 20G<170 438>
VStem: 170 268<0 1445>
LayerCount: 2
Fore
SplineSet
170 1445 m 1
 438 1445 l 1
 438 0 l 1
 170 0 l 1
 170 1445 l 1
-280 1885 m 1
 19 1885 l 1
 242 1555 l 1
 44 1555 l 1
 -280 1885 l 1
144 1885 m 1
 443 1885 l 1
 666 1555 l 1
 468 1555 l 1
 144 1885 l 1
EndSplineSet
EndChar

StartChar: uni0209
Encoding: 447 521 289
Width: 557
Flags: W
HStem: 0 21G<187 436> 1046 20G<187 436> 1486 20G<-273 39.5152 151 463.515>
VStem: 187 249<0 1066>
LayerCount: 2
Fore
SplineSet
187 1066 m 1
 436 1066 l 1
 436 0 l 1
 187 0 l 1
 187 1066 l 1
-273 1506 m 1
 26 1506 l 1
 249 1176 l 1
 51 1176 l 1
 -273 1506 l 1
151 1506 m 1
 450 1506 l 1
 673 1176 l 1
 475 1176 l 1
 151 1506 l 1
EndSplineSet
EndChar

StartChar: uni020A
Encoding: 448 522 290
Width: 608
Flags: W
HStem: 0 21G<170 438> 1425 20G<170 438> 1666 158<187.993 420.007>
VStem: 9 174<1585 1652.33> 170 268<0 1445> 425 174<1585 1652.07>
LayerCount: 2
Fore
SplineSet
170 1445 m 1xe8
 438 1445 l 1
 438 0 l 1
 170 0 l 1
 170 1445 l 1xe8
425 1585 m 1xf4
 425 1607 l 2
 425 1644 381 1666 304 1666 c 0
 227 1666 183 1644 183 1607 c 2
 183 1585 l 1
 9 1585 l 1
 9 1609 l 2
 9 1748 144 1824 304 1824 c 0
 464 1824 599 1747 599 1609 c 2
 599 1585 l 1
 425 1585 l 1xf4
EndSplineSet
EndChar

StartChar: uni020B
Encoding: 449 523 291
Width: 557
Flags: W
HStem: 0 21G<187 436> 1046 20G<187 436> 1287 158<194.993 427.007>
VStem: 16 174<1206 1273.33> 187 249<0 1066> 432 174<1206 1273.07>
LayerCount: 2
Fore
SplineSet
187 1066 m 1xe8
 436 1066 l 1
 436 0 l 1
 187 0 l 1
 187 1066 l 1xe8
432 1206 m 1xf4
 432 1228 l 2
 432 1265 388 1287 311 1287 c 0
 234 1287 190 1265 190 1228 c 2
 190 1206 l 1
 16 1206 l 1
 16 1230 l 2
 16 1369 151 1445 311 1445 c 0
 471 1445 606 1368 606 1230 c 2
 606 1206 l 1
 432 1206 l 1xf4
EndSplineSet
EndChar

StartChar: uni020C
Encoding: 450 524 292
Width: 1698
Flags: W
HStem: -23 215<646.424 1051.58> 1258 215<651.487 1046.51>
VStem: 96 275<490.175 951.507> 1327 275<490.175 951.507>
LayerCount: 2
Fore
SplineSet
849 192 m 0
 1164 192 1327 447 1327 717 c 0
 1327 986 1166 1258 849 1258 c 0
 532 1258 371 986 371 717 c 0
 371 447 534 192 849 192 c 0
849 -23 m 0
 405 -23 96 292 96 722 c 0
 96 1157 404 1473 849 1473 c 0
 1294 1473 1602 1157 1602 722 c 0
 1602 292 1293 -23 849 -23 c 0
265 1885 m 1
 564 1885 l 1
 787 1555 l 1
 589 1555 l 1
 265 1885 l 1
689 1885 m 1
 988 1885 l 1
 1211 1555 l 1
 1013 1555 l 1
 689 1885 l 1
EndSplineSet
EndChar

StartChar: uni020D
Encoding: 451 525 293
Width: 1278
Flags: W
HStem: -23 191<486.36 791.64> 903 191<486.36 791.64> 1486 20G<55 367.515 479 791.515>
VStem: 80 243<338.667 725.115> 955 243<338.667 725.115>
LayerCount: 2
Fore
SplineSet
639 1094 m 0
 1020 1094 1198 810 1198 530 c 0
 1198 252 1020 -23 639 -23 c 0
 258 -23 80 252 80 530 c 0
 80 810 258 1094 639 1094 c 0
323 530 m 0
 323 288 481 168 639 168 c 0
 797 168 955 288 955 530 c 0
 955 778 797 903 639 903 c 0
 481 903 323 778 323 530 c 0
55 1506 m 1
 354 1506 l 1
 577 1176 l 1
 379 1176 l 1
 55 1506 l 1
479 1506 m 1
 778 1506 l 1
 1001 1176 l 1
 803 1176 l 1
 479 1506 l 1
EndSplineSet
EndChar

StartChar: uni020E
Encoding: 452 526 294
Width: 1698
Flags: W
HStem: -23 215<646.424 1051.58> 1258 215<651.487 1046.51> 1666 158<732.993 965.007>
VStem: 96 275<490.175 951.507> 554 174<1585 1652.33> 970 174<1585 1652.07> 1327 275<490.175 951.507>
LayerCount: 2
Fore
SplineSet
849 192 m 0
 1164 192 1327 447 1327 717 c 0
 1327 986 1166 1258 849 1258 c 0
 532 1258 371 986 371 717 c 0
 371 447 534 192 849 192 c 0
849 -23 m 0
 405 -23 96 292 96 722 c 0
 96 1157 404 1473 849 1473 c 0
 1294 1473 1602 1157 1602 722 c 0
 1602 292 1293 -23 849 -23 c 0
970 1585 m 1
 970 1607 l 2
 970 1644 926 1666 849 1666 c 0
 772 1666 728 1644 728 1607 c 2
 728 1585 l 1
 554 1585 l 1
 554 1609 l 2
 554 1748 689 1824 849 1824 c 0
 1009 1824 1144 1747 1144 1609 c 2
 1144 1585 l 1
 970 1585 l 1
EndSplineSet
EndChar

StartChar: uni020F
Encoding: 453 527 295
Width: 1278
Flags: W
HStem: -23 191<486.36 791.64> 903 191<486.36 791.64> 1287 158<522.993 755.007>
VStem: 80 243<338.667 725.115> 344 174<1206 1273.33> 760 174<1206 1273.07> 955 243<338.667 725.115>
LayerCount: 2
Fore
SplineSet
639 1094 m 0
 1020 1094 1198 810 1198 530 c 0
 1198 252 1020 -23 639 -23 c 0
 258 -23 80 252 80 530 c 0
 80 810 258 1094 639 1094 c 0
323 530 m 0
 323 288 481 168 639 168 c 0
 797 168 955 288 955 530 c 0
 955 778 797 903 639 903 c 0
 481 903 323 778 323 530 c 0
760 1206 m 1
 760 1228 l 2
 760 1265 716 1287 639 1287 c 0
 562 1287 518 1265 518 1228 c 2
 518 1206 l 1
 344 1206 l 1
 344 1230 l 2
 344 1369 479 1445 639 1445 c 0
 799 1445 934 1368 934 1230 c 2
 934 1206 l 1
 760 1206 l 1
EndSplineSet
EndChar

StartChar: uni0210
Encoding: 454 528 296
Width: 1425
Flags: W
HStem: 0 19G<172 413 1107.7 1368> 615 205<414 767.938> 1236 207<414 971.498>
VStem: 172 241<0 615 820 1236> 1054 245<909.182 1159.81>
LayerCount: 2
Fore
SplineSet
172 1445 m 1
 647 1443 l 1
 1007 1443 1299 1378 1299 1045 c 0
 1299 843 1184 722 1010 672 c 1
 1061 625 1108 574 1139 509 c 1
 1368 -1 l 1
 1118 -2 l 1
 895 431 l 2
 859 501 819 559 770 607 c 1
 726 613 683 615 632 615 c 2
 413 615 l 1
 413 0 l 1
 172 0 l 1
 172 1445 l 1
414 820 m 1
 690 820 l 2
 914 820 1054 872 1054 1040 c 0
 1054 1185 941 1236 734 1236 c 2
 414 1236 l 1
 414 820 l 1
186 1885 m 1
 485 1885 l 1
 708 1555 l 1
 510 1555 l 1
 186 1885 l 1
610 1885 m 1
 909 1885 l 1
 1132 1555 l 1
 934 1555 l 1
 610 1885 l 1
EndSplineSet
EndChar

StartChar: uni0211
Encoding: 455 529 297
Width: 750
Flags: W
HStem: 0 21G<150 399> 896 198<507.483 731.19> 1046 20G<147 380.993> 1486 20G<-145 167.515 279 591.515>
VStem: 147 233<925 1066> 150 249<0 784.806 925 1031.39>
LayerCount: 2
Fore
SplineSet
732 881 m 1xd8
 698 891 666 896 636 896 c 0
 486 896 399 772 399 592 c 2
 399 0 l 1
 150 0 l 1
 150 826 l 2xd4
 150 906 147 988 147 1066 c 1
 380 1066 l 1xb8
 387 925 l 1
 449 1024 537 1094 664 1094 c 0
 693 1094 732 1087 732 1087 c 1
 732 881 l 1xd8
-145 1506 m 1
 154 1506 l 1
 377 1176 l 1
 179 1176 l 1
 -145 1506 l 1
279 1506 m 1
 578 1506 l 1
 801 1176 l 1
 603 1176 l 1
 279 1506 l 1
EndSplineSet
EndChar

StartChar: uni0212
Encoding: 456 530 298
Width: 1425
Flags: W
HStem: 0 19G<172 413 1107.7 1368> 615 205<414 767.938> 1236 207<414 971.498> 1666 158<653.993 886.007>
VStem: 172 241<0 615 820 1236> 475 174<1585 1652.33> 891 174<1585 1652.07> 1054 245<909.182 1159.81>
LayerCount: 2
Fore
SplineSet
172 1445 m 1xfd
 647 1443 l 1
 1007 1443 1299 1378 1299 1045 c 0
 1299 843 1184 722 1010 672 c 1
 1061 625 1108 574 1139 509 c 1
 1368 -1 l 1
 1118 -2 l 1
 895 431 l 2
 859 501 819 559 770 607 c 1
 726 613 683 615 632 615 c 2
 413 615 l 1
 413 0 l 1
 172 0 l 1
 172 1445 l 1xfd
414 820 m 1
 690 820 l 2
 914 820 1054 872 1054 1040 c 0
 1054 1185 941 1236 734 1236 c 2
 414 1236 l 1
 414 820 l 1
891 1585 m 1xfe
 891 1607 l 2
 891 1644 847 1666 770 1666 c 0
 693 1666 649 1644 649 1607 c 2
 649 1585 l 1
 475 1585 l 1
 475 1609 l 2
 475 1748 610 1824 770 1824 c 0
 930 1824 1065 1747 1065 1609 c 2
 1065 1585 l 1
 891 1585 l 1xfe
EndSplineSet
EndChar

StartChar: uni0213
Encoding: 457 531 299
Width: 750
Flags: W
HStem: 0 21G<150 399> 896 198<507.483 731.19> 1046 20G<147 380.993> 1287 158<322.993 555.007>
VStem: 144 174<1206 1273.33> 147 233<925 1066> 150 249<0 784.806 925 1031.39> 560 174<1206 1273.07>
LayerCount: 2
Fore
SplineSet
732 881 m 1xd5
 698 891 666 896 636 896 c 0
 486 896 399 772 399 592 c 2
 399 0 l 1
 150 0 l 1
 150 826 l 2xd3
 150 906 147 988 147 1066 c 1
 380 1066 l 1xb5
 387 925 l 1
 449 1024 537 1094 664 1094 c 0
 693 1094 732 1087 732 1087 c 1
 732 881 l 1xd5
560 1206 m 1
 560 1228 l 2
 560 1265 516 1287 439 1287 c 0
 362 1287 318 1265 318 1228 c 2
 318 1206 l 1
 144 1206 l 1
 144 1230 l 2x99
 144 1369 279 1445 439 1445 c 0
 599 1445 734 1368 734 1230 c 2
 734 1206 l 1
 560 1206 l 1
EndSplineSet
EndChar

StartChar: uni0214
Encoding: 458 532 300
Width: 1513
Flags: W
HStem: -23 215<543.404 977.957> 1425 20G<164 405 1109 1350>
VStem: 164 241<329.744 1445> 1109 241<329.744 1445>
LayerCount: 2
Fore
SplineSet
1109 1445 m 1
 1350 1445 l 1
 1350 540 l 2
 1350 176 1164 -23 757 -23 c 0
 349 -23 164 175 164 540 c 2
 164 1445 l 1
 405 1445 l 1
 405 551 l 2
 405 306 492 192 757 192 c 0
 1022 192 1109 306 1109 551 c 2
 1109 1445 l 1
173 1885 m 1
 472 1885 l 1
 695 1555 l 1
 497 1555 l 1
 173 1885 l 1
597 1885 m 1
 896 1885 l 1
 1119 1555 l 1
 921 1555 l 1
 597 1885 l 1
EndSplineSet
EndChar

StartChar: uni0215
Encoding: 459 533 301
Width: 1208
Flags: W
HStem: -23 211<476.165 773.835> 1046 20G<131 380 870 1119> 1486 20G<41 353.515 465 777.515>
VStem: 131 249<276.95 1066> 870 249<276.95 1066>
LayerCount: 2
Fore
SplineSet
625 -23 m 0
 324 -23 131 150 131 416 c 2
 131 1066 l 1
 380 1066 l 1
 380 420 l 2
 380 282 476 188 625 188 c 0
 774 188 870 282 870 420 c 2
 870 1066 l 1
 1119 1066 l 1
 1119 416 l 2
 1119 150 926 -23 625 -23 c 0
41 1506 m 1
 340 1506 l 1
 563 1176 l 1
 365 1176 l 1
 41 1506 l 1
465 1506 m 1
 764 1506 l 1
 987 1176 l 1
 789 1176 l 1
 465 1506 l 1
EndSplineSet
EndChar

StartChar: uni0216
Encoding: 460 534 302
Width: 1513
Flags: W
HStem: -23 215<543.404 977.957> 1425 20G<164 405 1109 1350> 1666 158<640.993 873.007>
VStem: 164 241<329.744 1445> 462 174<1585 1652.33> 878 174<1585 1652.07> 1109 241<329.744 1445>
LayerCount: 2
Fore
SplineSet
1109 1445 m 1
 1350 1445 l 1
 1350 540 l 2
 1350 176 1164 -23 757 -23 c 0
 349 -23 164 175 164 540 c 2
 164 1445 l 1
 405 1445 l 1
 405 551 l 2
 405 306 492 192 757 192 c 0
 1022 192 1109 306 1109 551 c 2
 1109 1445 l 1
878 1585 m 1
 878 1607 l 2
 878 1644 834 1666 757 1666 c 0
 680 1666 636 1644 636 1607 c 2
 636 1585 l 1
 462 1585 l 1
 462 1609 l 2
 462 1748 597 1824 757 1824 c 0
 917 1824 1052 1747 1052 1609 c 2
 1052 1585 l 1
 878 1585 l 1
EndSplineSet
EndChar

StartChar: uni0217
Encoding: 461 535 303
Width: 1208
Flags: W
HStem: -23 211<476.165 773.835> 1046 20G<131 380 870 1119> 1287 158<508.993 741.007>
VStem: 131 249<276.95 1066> 330 174<1206 1273.33> 746 174<1206 1273.07> 870 249<276.95 1066>
LayerCount: 2
Fore
SplineSet
625 -23 m 0xf2
 324 -23 131 150 131 416 c 2
 131 1066 l 1
 380 1066 l 1
 380 420 l 2
 380 282 476 188 625 188 c 0
 774 188 870 282 870 420 c 2
 870 1066 l 1
 1119 1066 l 1
 1119 416 l 2
 1119 150 926 -23 625 -23 c 0xf2
746 1206 m 1xec
 746 1228 l 2
 746 1265 702 1287 625 1287 c 0
 548 1287 504 1265 504 1228 c 2
 504 1206 l 1
 330 1206 l 1
 330 1230 l 2
 330 1369 465 1445 625 1445 c 0
 785 1445 920 1368 920 1230 c 2
 920 1206 l 1
 746 1206 l 1xec
EndSplineSet
EndChar

StartChar: uni021A
Encoding: 464 538 306
Width: 1202
Flags: W
HStem: 0 21G<473 741> 1237 208<35 473 741 1179>
VStem: 473 268<0 1237>
LayerCount: 2
Fore
SplineSet
473 1237 m 1
 35 1237 l 1
 35 1445 l 1
 1179 1445 l 1
 1179 1237 l 1
 741 1237 l 1
 741 0 l 1
 473 0 l 1
 473 1237 l 1
604 -675 m 1
 431 -675 l 1
 543 -162 l 1
 776 -162 l 1
 604 -675 l 1
EndSplineSet
EndChar

StartChar: uni021B
Encoding: 465 539 307
Width: 797
Flags: W
HStem: -23 199<485.79 699> 911 155<43 207 456 700> 1432 20G<367.071 456>
VStem: 207 249<199.172 911 1066 1396>
LayerCount: 2
Fore
SplineSet
699 176 m 1
 699 -23 l 1
 588 -23 l 2
 244 -23 207 135 207 416 c 2
 207 911 l 1
 43 911 l 1
 43 1066 l 1
 207 1066 l 1
 207 1396 l 1
 456 1452 l 1
 456 1066 l 1
 700 1066 l 1
 700 911 l 1
 456 911 l 1
 456 401 l 2
 456 251 457 176 588 176 c 2
 699 176 l 1
372 -675 m 1
 199 -675 l 1
 311 -162 l 1
 544 -162 l 1
 372 -675 l 1
EndSplineSet
EndChar

StartChar: dotlessj
Encoding: 466 567 308
Width: 518
Flags: W
HStem: -323 203<-41 120.383> 1046 20G<161 410>
VStem: 161 249<-82.1265 1066>
LayerCount: 2
Fore
SplineSet
-41 -323 m 1
 -41 -120 l 1
 -17 -120 l 2
 139 -120 161 -68 161 102 c 2
 161 1066 l 1
 410 1066 l 1
 410 166 l 2
 410 -162 336 -323 -10 -323 c 2
 -41 -323 l 1
EndSplineSet
EndChar

StartChar: dotaccentcmb
Encoding: 467 775 309
Width: 549
Flags: W
HStem: 1196 213<174 376>
VStem: 174 202<1196 1409>
LayerCount: 2
Fore
SplineSet
376 1409 m 1
 376 1196 l 1
 174 1196 l 1
 174 1409 l 1
 376 1409 l 1
EndSplineSet
EndChar

StartChar: uni030F
Encoding: 468 783 310
Width: 1044
Flags: W
HStem: 1176 330
LayerCount: 2
Fore
SplineSet
-21 1506 m 1
 278 1506 l 1
 501 1176 l 1
 303 1176 l 1
 -21 1506 l 1
403 1506 m 1
 702 1506 l 1
 925 1176 l 1
 727 1176 l 1
 403 1506 l 1
EndSplineSet
EndChar

StartChar: uni0311
Encoding: 469 785 311
Width: 688
Flags: W
HStem: 1287 158<221.993 454.007>
VStem: 43 174<1206 1273.33> 459 174<1206 1273.07>
LayerCount: 2
Fore
SplineSet
459 1206 m 1
 459 1228 l 2
 459 1265 415 1287 338 1287 c 0
 261 1287 217 1265 217 1228 c 2
 217 1206 l 1
 43 1206 l 1
 43 1230 l 2
 43 1369 178 1445 338 1445 c 0
 498 1445 633 1368 633 1230 c 2
 633 1206 l 1
 459 1206 l 1
EndSplineSet
EndChar

StartChar: uni0326
Encoding: 470 806 312
Width: 563
Flags: W
HStem: -675 513<186 247>
VStem: 74 345
LayerCount: 2
Fore
SplineSet
247 -675 m 1
 74 -675 l 1
 186 -162 l 1
 419 -162 l 1
 247 -675 l 1
EndSplineSet
EndChar

StartChar: Omega
Encoding: 471 937 313
Width: 1622
Flags: W
HStem: 1 182<103 371 1240 1500> 1 160<963 1020.39> 1260 189<592.975 1033.11>
VStem: 110 220<504.917 988.759> 1290 219<513.319 991.962>
LayerCount: 2
Fore
SplineSet
963 161 m 1x78
 964 161 l 1
 1139 279 1290 471 1290 751 c 0
 1290 1043 1136 1260 817 1260 c 0
 495 1260 330 1047 330 755 c 0
 330 471 474 279 651 162 c 1
 662 155 l 1
 666 1 l 1x78
 103 1 l 1
 88 183 l 1
 371 182 l 1
 220 314 110 509 110 775 c 0
 110 1178 380 1449 822 1449 c 0
 1257 1449 1509 1166 1509 771 c 0
 1509 505 1386 315 1240 182 c 1
 1512 183 l 1
 1500 1 l 1xb8
 957 1 l 1
 951 154 l 1
 963 161 l 1x78
EndSplineSet
EndChar

StartChar: pi
Encoding: 472 960 314
Width: 1323
Flags: W
HStem: -7 202<1062.92 1223.7> 858 180<78.7254 298 518.552 848 1057 1251>
VStem: 846 211<200.619 855>
LayerCount: 2
Fore
SplineSet
38 793 m 1
 12 965 l 1
 23 973 l 1
 107 1039 228 1038 381 1038 c 2
 1251 1038 l 1
 1251 855 l 1
 1057 855 l 1
 1057 303 l 2
 1057 227 1066 195 1125 195 c 0
 1149 195 1170 200 1194 207 c 2
 1229 218 l 1
 1225 152 l 2
 1224 143 1224 134 1224 125 c 0
 1224 91 1227 64 1235 39 c 2
 1244 12 l 1
 1216 7 l 2
 1172 -1 1130 -7 1082 -7 c 0
 885 -7 846 126 846 288 c 2
 848 858 l 1
 522 858 l 1
 504 626 480 428 437 222 c 0
 422 150 405 69 372 14 c 1
 365 1 l 1
 147 1 l 1
 167 37 l 1
 277 229 289 573 298 865 c 1
 198 860 134 844 70 810 c 2
 38 793 l 1
EndSplineSet
EndChar

StartChar: uni0403
Encoding: 163 1027 317
Width: 1571
Flags: W
HStem: 0 21G<178 419> 1245 200<419 1130>
VStem: 178 241<0 1245>
LayerCount: 2
Fore
SplineSet
1130 1445 m 1
 1130 1245 l 1
 419 1245 l 1
 419 0 l 1
 178 0 l 1
 178 1445 l 1
 1130 1445 l 1
EndSplineSet
EndChar

StartChar: uni0405
Encoding: 165 1029 318
Width: 1294
Flags: W
HStem: -23 219<376.242 865.024> 1258 216<457.414 948.302>
VStem: 135 239<965.231 1184.06> 962 243<279.395 520.639>
DStem2: 587 888 500 681 0.962254 -0.272153<-206.425 419.873>
LayerCount: 2
Fore
SplineSet
587 888 m 1
 785 832 l 1
 998 769 1205 674 1205 406 c 0
 1205 114 970 -23 653 -23 c 0
 432 -23 267 30 141 106 c 2
 123 117 l 1
 207 329 l 1
 233 310 l 1
 330 241 477 196 661 196 c 0
 843 196 962 258 962 405 c 0
 962 543 837 588 694 627 c 2
 500 681 l 2
 313 734 135 832 135 1064 c 0
 135 1340 368 1474 669 1474 c 0
 863 1474 1027 1433 1137 1358 c 1
 1154 1346 l 1
 1071 1152 l 1
 1046 1168 l 1
 964 1222 821 1258 669 1258 c 0
 495 1258 374 1205 374 1070 c 0
 374 957 471 922 587 888 c 1
EndSplineSet
EndChar

StartChar: uni0406
Encoding: 166 1030 319
Width: 608
Flags: W
HStem: 0 21G<184 425> 1425 20G<184 425>
VStem: 184 241<0 1445>
LayerCount: 2
Fore
SplineSet
184 1445 m 1
 425 1445 l 1
 425 0 l 1
 184 0 l 1
 184 1445 l 1
EndSplineSet
EndChar

StartChar: uni0408
Encoding: 168 1032 321
Width: 725
Flags: W
HStem: -23 196<55 267.74> 1426 20G<311 552>
VStem: 311 241<217.994 1445>
LayerCount: 2
Fore
SplineSet
311 1445 m 1
 552 1446 l 1
 552 439 l 2
 552 112 458 -23 110 -23 c 2
 55 -23 l 1
 55 173 l 1
 129 174 l 1
 283 178 311 230 311 389 c 2
 311 1445 l 1
EndSplineSet
EndChar

StartChar: uni0409
Encoding: 169 1033 322
Width: 1858
Flags: W
HStem: -23 196<55 263.247> 1 207<1145 1550.25> 663 208<1145 1555.19> 1238 207<564 876>
VStem: 314 262<216.772 1238> 876 250<871 1238> 904 241<208 634.344> 1676 232<311.311 561.235>
LayerCount: 2
Fore
SplineSet
1126 1445 m 1xbd
 1126 871 l 1xbd
 1276 871 l 2
 1598 871 1858 748 1908 436 c 1
 1908 123 1646 1 1289 1 c 2
 904 1 l 1x7b
 876 1238 l 1
 564 1238 l 1
 576 437 l 1
 576 111 474 -23 112 -23 c 2
 55 -23 l 1
 55 173 l 1
 131 174 l 1
 285 178 314 230 314 389 c 2
 313 1445 l 1
 1126 1445 l 1xbd
1145 208 m 1x7b
 1311 208 l 2
 1531 208 1676 275 1676 438 c 0
 1676 598 1528 663 1311 663 c 2
 1145 663 l 1
 1145 208 l 1x7b
EndSplineSet
EndChar

StartChar: uni040A
Encoding: 170 1034 323
Width: 1806
Flags: W
HStem: 0 207<1145 1520.91> 663 208<554 904 1145 1520.73> 1425 20G<313 554 904 1145>
VStem: 313 241<1 663 871 1445> 904 241<207 662 871 1445> 1626 232<301.525 568.6>
LayerCount: 2
Fore
SplineSet
1145 1445 m 1
 1145 870 l 1
 1289 870 l 2
 1598 870 1858 747 1858 435 c 0
 1858 122 1598 0 1289 0 c 2
 904 0 l 1
 904 663 l 1
 554 663 l 1
 554 1 l 1
 313 1 l 1
 313 1445 l 1
 554 1445 l 1
 554 871 l 1
 904 871 l 1
 904 1445 l 1
 1145 1445 l 1
1145 207 m 1
 1308 206 l 1
 1497 206 1626 273 1626 437 c 0
 1626 597 1495 662 1308 662 c 2
 1145 662 l 1
 1145 207 l 1
EndSplineSet
EndChar

StartChar: uni0410
Encoding: 176 1040 324
Width: 1382
Flags: W
HStem: 0 21G<18 273.477 1130.48 1388> 444 195<508 896> 1425 20G<573.208 832.792>
DStem2: 18 0 266 0 0.363037 0.931775<90.0333 564.005 773.292 1358.22> 825 1445 705 1190 0.363037 -0.931775<194.038 776.786 985.71 1427.95> 825 1445 896 639 0.363037 -0.931775<194.038 776.786 985.71 1460.04>
LayerCount: 2
Fore
SplineSet
266 0 m 1
 18 0 l 1
 581 1445 l 1
 825 1445 l 1
 1388 0 l 1
 1138 0 l 1
 971 444 l 1
 432 444 l 1
 266 0 l 1
508 639 m 1
 896 639 l 1
 705 1190 l 1
 508 639 l 1
EndSplineSet
EndChar

StartChar: uni0411
Encoding: 177 1041 325
Width: 1325
Flags: W
HStem: 0 207<412 936.389> 662 208<412 935.993> 1237 208<413 1207>
VStem: 172 240<207 662 870 1237> 1052 233<310.311 560.235>
LayerCount: 2
Fore
SplineSet
413 1237 m 1
 412 870 l 1
 687 870 l 2
 1024 870 1285 747 1285 435 c 0
 1285 122 1024 0 688 0 c 2
 172 0 l 1
 172 1445 l 1
 1207 1445 l 1
 1207 1237 l 1
 413 1237 l 1
412 207 m 1
 708 207 l 2
 914 207 1052 274 1052 437 c 0
 1052 597 911 662 707 662 c 2
 412 662 l 1
 412 207 l 1
EndSplineSet
EndChar

StartChar: uni0412
Encoding: 178 1042 326
Width: 1325
Flags: W
HStem: 0 210<413 938.716> 645 208<413 932.077> 1239 208<413 935.777>
VStem: 172 241<210 645 853 1239> 1037 232<938.036 1155.16> 1053 232<304.759 549.893>
LayerCount: 2
Fore
SplineSet
172 0 m 1xf4
 172 1447 l 1
 660 1447 l 2
 993 1447 1269 1346 1269 1052 c 0xf8
 1269 902 1188 807 1084 747 c 1
 1198 684 1285 584 1285 424 c 0
 1285 116 1017 0 667 0 c 2
 172 0 l 1xf4
413 645 m 1
 413 210 l 1
 689 210 l 2
 905 210 1053 272 1053 430 c 0xf4
 1053 585 902 645 689 645 c 2
 413 645 l 1
413 853 m 1
 689 854 l 2
 897 854 1037 910 1037 1049 c 0xf8
 1037 1184 888 1239 682 1239 c 2
 413 1239 l 1
 413 853 l 1
EndSplineSet
EndChar

StartChar: uni0413
Encoding: 179 1043 327
Width: 1571
Flags: W
HStem: 0 21G<178 419> 1245 200<419 1130>
VStem: 178 241<0 1245>
LayerCount: 2
Fore
SplineSet
1130 1445 m 1
 1130 1245 l 1
 419 1245 l 1
 419 0 l 1
 178 0 l 1
 178 1445 l 1
 1130 1445 l 1
EndSplineSet
EndChar

StartChar: uni0414
Encoding: 180 1044 328
Width: 1571
Flags: W
HStem: -182 382<92 314.719 1337 1424> 0 200<333 371 585 1092> 1241 204<920 1092>
VStem: 92 241<-182 0> 1092 245<200 1241> 1183 241<-182 0>
DStem2: 487 546 748 580 0.258933 0.965895<-275.285 783.415>
LayerCount: 2
Fore
SplineSet
728 1445 m 1xb4
 1337 1445 l 1
 1337 200 l 5xb8
 1424 200 l 5
 1424 -182 l 1
 1183 -182 l 1xb4
 1183 0 l 5
 333 0 l 5x74
 333 -182 l 1
 92 -182 l 1
 92 200 l 5
 146 200 l 6
 371 200 437 356 487 546 c 2
 728 1445 l 1xb4
1092 1241 m 1
 920 1241 l 1
 748 580 l 1
 711 457 681 293 585 200 c 5
 1092 200 l 5x78
 1092 1241 l 1
EndSplineSet
EndChar

StartChar: uni0415
Encoding: 181 1045 329
Width: 1257
Flags: W
HStem: 0 208<440 1138> 651 208<440 1080> 1237 208<440 1108>
VStem: 172 268<208 651 859 1237>
LayerCount: 2
Fore
SplineSet
440 859 m 1
 1080 859 l 1
 1080 651 l 1
 440 651 l 1
 440 208 l 1
 1156 208 l 1
 1138 0 l 1
 172 0 l 1
 172 1445 l 1
 1126 1445 l 1
 1108 1237 l 1
 440 1237 l 1
 440 859 l 1
EndSplineSet
EndChar

StartChar: uni041B
Encoding: 187 1051 330
Width: 1571
Flags: W
HStem: -23 196<-84 132.589> 0 21G<1157 1398> 1246 199<426 1157>
VStem: 172 254<216.772 1246> 1157 241<0 1245>
LayerCount: 2
Fore
SplineSet
1157 1245 m 1x78
 426 1246 l 1
 426 437 l 2
 426 111 327 -23 -29 -23 c 2
 -84 -23 l 1
 -84 173 l 1xb8
 -9 174 l 2
 146 176 172 230 172 389 c 2
 172 1445 l 1
 1398 1445 l 1
 1398 0 l 1
 1157 0 l 1
 1157 1245 l 1x78
EndSplineSet
EndChar

StartChar: uni041C
Encoding: 188 1052 331
Width: 1860
Flags: W
HStem: 0 21G<172 402 1456 1688> 1425 20G<172 443.757 1423.34 1688>
VStem: 172 230<0 1025> 1456 232<0 1017>
DStem2: 434 1445 402 1025 0.438458 -0.898752<363.445 1144.92> 936 416 1047 161 0.43492 0.900469<0 767.34>
LayerCount: 2
Fore
SplineSet
821 161 m 1
 402 1025 l 1
 402 0 l 1
 172 0 l 1
 172 1445 l 1
 434 1445 l 1
 936 416 l 1
 1433 1445 l 1
 1688 1445 l 1
 1688 0 l 1
 1456 0 l 1
 1456 1017 l 1
 1047 161 l 1
 821 161 l 1
EndSplineSet
EndChar

StartChar: uni041D
Encoding: 189 1053 332
Width: 1571
Flags: W
HStem: 0 21G<174 442 1126 1394> 645 200<442 1126> 1432 20G<174 442 1126 1394>
VStem: 174 268<0 645 845 1452> 1126 268<0 645 845 1452>
LayerCount: 2
Fore
SplineSet
1126 0 m 1
 1126 645 l 1
 442 645 l 1
 442 0 l 1
 174 0 l 1
 174 1452 l 1
 442 1452 l 1
 442 845 l 1
 1126 845 l 1
 1126 1452 l 1
 1394 1452 l 1
 1394 0 l 1
 1126 0 l 1
EndSplineSet
EndChar

StartChar: uni041E
Encoding: 190 1054 333
Width: 1698
Flags: W
HStem: -23 215<646.424 1051.58> 1258 215<651.487 1046.51>
VStem: 96 275<490.175 951.507> 1327 275<490.175 951.507>
LayerCount: 2
Fore
SplineSet
849 192 m 0
 1164 192 1327 447 1327 717 c 0
 1327 986 1166 1258 849 1258 c 0
 532 1258 371 986 371 717 c 0
 371 447 534 192 849 192 c 0
849 -23 m 0
 405 -23 96 292 96 722 c 0
 96 1157 404 1473 849 1473 c 0
 1294 1473 1602 1157 1602 722 c 0
 1602 292 1293 -23 849 -23 c 0
EndSplineSet
EndChar

StartChar: uni041F
Encoding: 191 1055 334
Width: 1571
Flags: W
HStem: 0 21G<172 413 1157 1398> 1245 200<413 1157>
VStem: 172 241<0 1245> 1157 241<0 1245>
LayerCount: 2
Fore
SplineSet
1157 0 m 1
 1157 1245 l 1
 413 1245 l 1
 413 0 l 1
 172 0 l 1
 172 1445 l 1
 1398 1445 l 1
 1398 0 l 1
 1157 0 l 1
EndSplineSet
EndChar

StartChar: uni0420
Encoding: 192 1056 335
Width: 1325
Flags: W
HStem: 0 21G<172 412> 563 202<413 929.544> 1237 208<412 927.676>
VStem: 172 240<0 563 765 1237> 1053 232<878.968 1133.56>
LayerCount: 2
Fore
SplineSet
172 1445 m 1
 666 1445 l 2
 1024 1445 1285 1322 1285 1009 c 0
 1285 715 1034 563 694 563 c 2
 412 563 l 1
 412 0 l 1
 172 0 l 1
 172 1445 l 1
412 1237 m 1
 413 765 l 1
 714 765 l 2
 916 765 1053 851 1053 1006 c 0
 1053 1170 908 1237 688 1237 c 2
 412 1237 l 1
EndSplineSet
EndChar

StartChar: uni0421
Encoding: 193 1057 336
Width: 1430
Flags: W
HStem: -23 215<652.294 1091.99> 1258 215<661.961 1084.74>
VStem: 96 275<486.535 954.496>
LayerCount: 2
Fore
SplineSet
1238 1130 m 1
 1118 1218 985 1258 860 1258 c 0
 600 1258 371 1052 371 727 c 0
 371 376 598 192 863 192 c 0
 986 192 1119 231 1237 311 c 1
 1320 108 l 1
 1158 17 991 -23 836 -23 c 0
 430 -23 96 274 96 728 c 0
 96 1190 444 1473 843 1473 c 0
 1000 1473 1166 1433 1321 1336 c 1
 1238 1130 l 1
EndSplineSet
EndChar

StartChar: uni0422
Encoding: 194 1058 337
Width: 1202
Flags: W
HStem: 0 21G<473 741> 1237 208<35 473 741 1179>
VStem: 473 268<0 1237>
LayerCount: 2
Fore
SplineSet
473 1237 m 1
 35 1237 l 1
 35 1445 l 1
 1179 1445 l 1
 1179 1237 l 1
 741 1237 l 1
 741 0 l 1
 473 0 l 1
 473 1237 l 1
EndSplineSet
EndChar

StartChar: uni0424
Encoding: 196 1060 338
Width: 1440
Flags: W
HStem: 0 21G<604 837> 116 180<837 992.134> 853 228<820 952.448>
VStem: 76 239<425.542 727.804> 571 249<1081 1197> 604 233<0 115> 604 216<383.285 537.974> 1126 239<425.74 677.259>
LayerCount: 2
Fore
SplineSet
604 0 m 5xf5
 604 115 l 5xf5
 271 129 76 309 76 600 c 4
 76 891 277 1067 571 1081 c 5
 571 1197 l 5
 820 1197 l 5
 820 1081 l 5xf9
 1119 1067 1315 889 1365 601 c 5
 1365 308 1166 130 837 116 c 5
 837 0 l 5
 604 0 l 5xf5
1126 573 m 6
 1126 574 l 5
 1076 735 977 838 820 853 c 5xf3
 837 296 l 5
 1022 309 1126 417 1126 573 c 6
315 575 m 5
 316 575 l 5
 316 416 425 309 604 296 c 5xf3
 571 853 l 5xf9
 410 838 315 734 315 575 c 5
EndSplineSet
EndChar

StartChar: uni0425
Encoding: 197 1061 339
Width: 1337
Flags: W
HStem: 0 21G<-6 280.054 1079.11 1375> 1425 20G<31 328.63 1086.66 1367>
VStem: -6 272<0 272> 31 284<1161 1445> 1093 282<0 282 1163 1445>
DStem2: -6 0 266 0 0.595983 0.802997<162.107 885.411> 315 1445 31 1445 0.592209 -0.805784<0 679.667 1510.07 1625.1> 698 883 845 737 0.593432 0.804884<0 691.498>
LayerCount: 2
Fore
SplineSet
266 0 m 1xe8
 -6 0 l 1xe8
 541 737 l 1
 31 1445 l 1
 315 1445 l 1xd8
 698 883 l 1
 1101 1445 l 1
 1367 1445 l 1
 845 737 l 1
 1375 0 l 1
 1093 0 l 1
 682 592 l 1
 266 0 l 1xe8
EndSplineSet
EndChar

StartChar: uni0428
Encoding: 200 1064 340
Width: 1620
Flags: W
HStem: 0 200<413 695 936 1207> 1425 20G<172 413 695 936 1207 1448>
VStem: 172 241<200 1445> 695 241<200 1445> 1207 241<200 1445>
LayerCount: 2
Fore
SplineSet
413 1445 m 1
 413 200 l 1
 695 200 l 1
 695 1445 l 1
 936 1445 l 1
 936 200 l 1
 1207 200 l 1
 1207 1445 l 1
 1448 1445 l 1
 1448 0 l 1
 172 0 l 1
 172 1445 l 1
 413 1445 l 1
EndSplineSet
EndChar

StartChar: uni042A
Encoding: 202 1066 341
Width: 1858
Flags: W
HStem: 0 207<1146 1550.25> 662 208<1146 1553.57> 1237 208<438 864>
VStem: 864 255<870 1237> 904 242<207 443.341> 1677 231<310.311 560.235>
LayerCount: 2
Fore
SplineSet
1118 1445 m 1xf4
 1119 870 l 1xf4
 1271 870 l 2
 1598 870 1858 747 1908 435 c 1
 1908 122 1646 0 1289 0 c 2
 904 0 l 1xec
 864 1237 l 1
 438 1237 l 1
 438 1445 l 1
 1118 1445 l 1xf4
1146 207 m 1xec
 1312 207 l 2
 1532 207 1677 274 1677 437 c 0
 1677 597 1529 662 1312 662 c 2
 1146 662 l 1
 1146 207 l 1xec
EndSplineSet
EndChar

StartChar: uni042B
Encoding: 203 1067 342
Width: 1806
Flags: W
HStem: 0 208<1094 1442.12> 663 208<1095 1442.47> 1425 20G<854 1095>
VStem: 854 241<208 663 871 1445> 1555 247<310.811 566.967>
LayerCount: 2
Fore
SplineSet
1094 208 m 1
 1216 208 l 2
 1418 208 1555 275 1555 438 c 0
 1555 598 1415 663 1215 663 c 2
 1094 663 l 1
 1094 208 l 1
1095 1445 m 1
 1095 871 l 1
 1195 871 l 2
 1525 871 1802 748 1802 435 c 0
 1802 122 1524 0 1195 0 c 2
 854 0 l 1
 854 1445 l 1
 1095 1445 l 1
1999 5 m 1
 2140 5 l 1
 2140 1400 l 1
 1999 1400 l 1
 1999 5 l 1
EndSplineSet
EndChar

StartChar: uni042C
Encoding: 204 1068 343
Width: 1806
Flags: W
HStem: 0 208<1095 1507.19> 663 207<1096 1508.01> 1425 20G<854 1095.03>
VStem: 854 241<208 663 870 1445> 1626 233<310.811 566.767>
LayerCount: 2
Fore
SplineSet
1095 208 m 1
 1276 208 l 2
 1486 208 1626 275 1626 438 c 0
 1626 598 1483 663 1276 663 c 2
 1095 663 l 1
 1095 208 l 1
1095 1445 m 1
 1096 870 l 1
 1256 870 l 2
 1598 870 1859 747 1859 435 c 0
 1859 122 1597 0 1255 0 c 2
 854 0 l 1
 854 1445 l 1
 1095 1445 l 1
EndSplineSet
EndChar

StartChar: uni042E
Encoding: 206 1070 344
Width: 1571
Flags: W
HStem: -23 215<1146.46 1517.83> 0 21G<172 413> 645 200<413 662.091> 1258 215<1150.34 1517.51> 1425 20G<172 413>
VStem: 172 241<0 645 845 1445> 659 261<460.686 645> 1748 256<458.464 1000.67>
LayerCount: 2
Fore
SplineSet
663 845 m 1x6f
 702 1198 920 1473 1335 1473 c 0
 1790 1473 2004 1140 2004 722 c 0
 2004 305 1788 -23 1335 -23 c 0xb7
 904 -23 686 272 659 645 c 1
 413 645 l 1
 413 0 l 1
 172 0 l 1
 172 1445 l 1
 413 1445 l 1
 413 845 l 1
 663 845 l 1x6f
921 730 m 1
 920 730 l 1
 920 437 1038 192 1334 192 c 0
 1630 192 1748 438 1748 730 c 0
 1748 1019 1627 1258 1334 1258 c 0
 1041 1258 921 1018 921 730 c 1
EndSplineSet
EndChar

StartChar: uni042F
Encoding: 207 1071 345
Width: 1325
Flags: W
HStem: 0 20G<102 366.055 1060 1301> 574 209<704.503 1060> 1239 206<550.052 1060>
VStem: 102 252<1 253> 188 240<880.984 1135.83> 1060 241<0 574 783 1238>
LayerCount: 2
Fore
SplineSet
354 -1 m 1xf4
 102 1 l 1xf4
 444 638 l 1
 292 701 188 821 188 1012 c 0xec
 188 1324 460 1445 807 1445 c 2
 1301 1445 l 1
 1301 0 l 1
 1060 0 l 1
 1060 574 l 1
 807 574 l 2
 771 574 735 576 703 578 c 1
 354 -1 l 1xf4
1060 1238 m 1
 786 1239 l 2
 572 1239 428 1172 428 1008 c 0xec
 428 848 575 783 786 783 c 2
 1060 783 l 1
 1060 1238 l 1
EndSplineSet
EndChar

StartChar: uni0430
Encoding: 208 1072 346
Width: 1165
Flags: W
HStem: -23 179<393.645 738.144> 0 21G<884.781 1077> 445 152<429.57 828> 905 189<357.24 787.73>
VStem: 119 240<192.214 387.687> 828 249<209.727 445 597 863.153>
LayerCount: 2
Fore
SplineSet
893 0 m 1x7c
 863 73 l 1
 751 21 634 -23 479 -23 c 0xbc
 270 -23 119 86 119 279 c 0
 119 574 443 597 755 597 c 2
 828 597 l 1
 828 741 l 2
 828 860 772 905 635 905 c 0
 463 905 336 862 238 806 c 1
 185 995 l 1
 297 1051 443 1094 630 1094 c 0
 885 1094 1077 1009 1077 772 c 2
 1077 0 l 1
 893 0 l 1x7c
530 156 m 0
 652 156 734 191 828 226 c 1
 828 445 l 1
 752 445 l 2
 537 445 359 427 359 302 c 0
 359 203 412 156 530 156 c 0
EndSplineSet
EndChar

StartChar: uni0432
Encoding: 210 1074 347
Width: 1159
Flags: W
HStem: 0 198<383 817.223> 437 186<383 801.768> 821 199<383 799.619>
VStem: 150 233<198 437 623 821> 831 225<657.534 786.752> 861 225<244.511 390.273>
LayerCount: 2
Fore
SplineSet
150 0 m 1xf4
 150 1020 l 1
 617 1020 l 2
 864 1020 1056 936 1056 739 c 0xf8
 1056 645 1010 577 947 531 c 1
 1023 481 1086 408 1086 304 c 0
 1086 95 876 0 617 0 c 2
 150 0 l 1xf4
383 198 m 1
 629 197 l 2
 765 197 861 241 861 316 c 0xf4
 861 391 763 437 629 437 c 2
 383 437 l 1
 383 198 l 1
383 821 m 1
 383 623 l 1
 629 623 l 2
 751 623 831 660 831 726 c 0xf8
 831 788 749 821 629 821 c 2
 383 821 l 1
EndSplineSet
EndChar

StartChar: uni0433
Encoding: 211 1075 348
Width: 877
Flags: W
HStem: 0 21G<190 422> 822 198<422 732>
VStem: 190 232<0 822>
LayerCount: 2
Fore
SplineSet
190 0 m 1
 190 1020 l 1
 732 1020 l 1
 732 822 l 1
 422 822 l 1
 422 0 l 1
 190 0 l 1
EndSplineSet
EndChar

StartChar: uni0434
Encoding: 212 1076 349
Width: 1157
Flags: W
HStem: -322 513<-104 116.517 964 1053> 0 191<117 137 356 725> 818 203<540 725>
VStem: -104 221<-322 0> 725 239<191 818> 817 236<-322 0>
DStem2: 218 391 472 409 0.194619 0.980879<-129.744 481.503>
LayerCount: 2
Fore
SplineSet
343 1021 m 1xb4
 964 1022 l 1
 964 191 l 5xb8
 1053 191 l 5
 1053 -322 l 1
 817 -322 l 1xb4
 817 0 l 5
 117 0 l 5x74
 117 -322 l 1
 -104 -322 l 1
 -104 191 l 5
 -50 191 l 6
 137 191 182 288.058823529 218 391 c 1
 343 1021 l 1xb4
725 818 m 1
 540 818 l 1
 472 409 l 2
 453 342.016759777 428 245.195530726 356 191 c 5
 725 191 l 5x78
 725 818 l 1
EndSplineSet
EndChar

StartChar: uni0435
Encoding: 213 1077 350
Width: 1178
Flags: W
HStem: -23 191<485.619 885.608> 472 173<337 896> 903 191<478.503 784.578>
LayerCount: 2
Fore
SplineSet
1134 472 m 1
 328 472 l 1
 356 295 448 168 659 168 c 0
 820 168 930 222 1002 290 c 1
 1103 127 l 1
 999 33 863 -23 636 -23 c 0
 264 -23 74 250 74 536 c 0
 74 837 282 1094 633 1094 c 0
 972 1094 1135 854 1135 558 c 0
 1135 530 1134 501 1134 472 c 1
636 903 m 0
 463 903 363 779 337 645 c 1
 896 645 l 1
 877 797 800 903 636 903 c 0
EndSplineSet
EndChar

StartChar: uni0437
Encoding: 215 1079 351
Width: 1159
Flags: W
HStem: -23 198<342.865 805.678> 430 188<415 794.125> 846 199<338.214 783.373>
VStem: 825 224<650.937 803.64> 855 225<222.082 385.546>
LayerCount: 2
Fore
SplineSet
177 922 m 1xf0
 189 935 l 1
 275 1013 418 1045 588 1045 c 0
 825 1045 1049 973 1049 762 c 0xf0
 1049 655 1010 580 944 532 c 1
 1028 482 1080 407 1080 294 c 0
 1080 60 846 -23 585 -23 c 0
 418 -23 275 9 190 86 c 1
 176 99 l 1
 185 116 l 2
 207 158 227 199 249 242 c 2
 262 268 l 1
 286 251 l 1
 349 205 458 175 587 175 c 0
 751 175 855 214 855 306 c 0xe8
 855 383 762 430 647 430 c 2
 415 430 l 1
 415 618 l 1
 647 618 l 2
 754 618 825 659 825 729 c 0
 825 813 729 846 576 846 c 0
 445 846 344 819 288 770 c 2
 264 749 l 1
 177 922 l 1xf0
EndSplineSet
EndChar

StartChar: uni0438
Encoding: 216 1080 352
Width: 1251
Flags: W
HStem: 0 21G<152 372 895 1119>
VStem: 152 228<0 137 398 1020> 895 224<0 726>
DStem2: 380 398 372 137 0.647862 0.761758<0 583.505>
LayerCount: 2
Fore
SplineSet
152 0 m 1
 152 1020 l 1
 380 1020 l 1
 380 398 l 1
 909 1020 l 1
 1119 1020 l 1
 1119 0 l 1
 895 0 l 1
 895 726 l 1
 372 137 l 1
 372 0 l 1
 152 0 l 1
EndSplineSet
EndChar

StartChar: uni0439
Encoding: 217 1081 353
Width: 1251
Flags: W
HStem: 0 21G<152 372 895 1119> 1287 158<551.993 784.007>
VStem: 152 228<0 137 398 1020> 373 174<1206 1273.33> 789 174<1206 1273.07> 895 224<0 726>
DStem2: 380 398 372 137 0.647862 0.761758<0 583.505>
LayerCount: 2
Fore
SplineSet
152 0 m 1xe4
 152 1020 l 1
 380 1020 l 1
 380 398 l 1
 909 1020 l 1
 1119 1020 l 1
 1119 0 l 1
 895 0 l 1
 895 726 l 1
 372 137 l 1
 372 0 l 1
 152 0 l 1xe4
789 1206 m 1xd8
 789 1228 l 2
 789 1265 745 1287 668 1287 c 0
 591 1287 547 1265 547 1228 c 2
 547 1206 l 1
 373 1206 l 1
 373 1230 l 2
 373 1369 508 1445 668 1445 c 0
 828 1445 963 1368 963 1230 c 2
 963 1206 l 1
 789 1206 l 1xd8
EndSplineSet
EndChar

StartChar: uni043A
Encoding: 218 1082 354
Width: 1186
Flags: W
HStem: 2 21G<162 395 829.093 1164> 826 205<889.442 1076.78>
VStem: 162 233<2 401 608 1022> 852 312<2 314>
DStem2: 595 500 395 401 0.752495 -0.658598<0 521.373> 530 733 679 570 0.736255 0.676705<-109.816 0 0.736255 390.311>
LayerCount: 2
Fore
SplineSet
1078 1016 m 1
 1077 813 l 1
 1048 818 l 2
 1023 823 1002 826 977 826 c 0
 927 826 900 795 866 756 c 1
 809 696 754 632 679 570 c 2
 595 500 l 1
 1164 2 l 1
 852 2 l 1
 395 401 l 1
 395 2 l 1
 162 2 l 1
 162 1022 l 1
 395 1022 l 1
 395 608 l 1
 530 733 l 1
 531 733 l 1
 607 796 660 868 729 939 c 0
 782 994 850 1031 952 1031 c 0
 984 1031 1019 1027 1057 1020 c 2
 1078 1016 l 1
EndSplineSet
EndChar

StartChar: uni043B
Encoding: 219 1083 355
Width: 1268
Flags: W
HStem: 1 21G<887 1120> 820 201<431 887>
VStem: 183 248<211.568 820> 887 233<1 820>
LayerCount: 2
Fore
SplineSet
-10 -26 m 1
 -10 169 l 1
 12 172 l 1
 161 190 183 222 183 385 c 2
 183 1021 l 1
 1120 1021 l 1
 1120 1 l 1
 887 1 l 1
 887 820 l 1
 431 820 l 1
 431 429 l 2
 431 299 432 190 365 109 c 0
 290 17 163 -5 18 -22 c 1
 -10 -26 l 1
EndSplineSet
EndChar

StartChar: uni043C
Encoding: 220 1084 356
Width: 1294
Flags: W
HStem: 0 21G<150 364 932 1146>
VStem: 150 214<0 660> 932 214<0 661>
LayerCount: 2
Fore
SplineSet
932 661 m 1
 698 314 l 1
 596 314 l 1
 364 660 l 1
 364 0 l 1
 150 0 l 1
 150 1020 l 1
 350 1020 l 1
 647 566 l 1
 946 1020 l 1
 1146 1020 l 1
 1146 0 l 1
 932 0 l 1
 932 661 l 1
EndSplineSet
EndChar

StartChar: uni043D
Encoding: 221 1085 357
Width: 1251
Flags: W
HStem: 0 21G<152 385 886 1119> 475 199<385 886> 1046 20G<152 385 886 1119>
VStem: 152 233<0 475 674 1066> 886 233<0 475 674 1066>
LayerCount: 2
Fore
SplineSet
152 0 m 1
 152 1066 l 1
 385 1066 l 1
 385 674 l 1
 886 674 l 1
 886 1066 l 1
 1119 1066 l 1
 1119 0 l 1
 886 0 l 1
 886 475 l 1
 385 475 l 1
 385 0 l 1
 152 0 l 1
EndSplineSet
EndChar

StartChar: uni043E
Encoding: 222 1086 358
Width: 1278
Flags: W
HStem: -23 191<486.36 791.64> 903 191<486.36 791.64>
VStem: 80 243<338.667 725.115> 955 243<338.667 725.115>
LayerCount: 2
Fore
SplineSet
639 1094 m 0
 1020 1094 1198 810 1198 530 c 0
 1198 252 1020 -23 639 -23 c 0
 258 -23 80 252 80 530 c 0
 80 810 258 1094 639 1094 c 0
323 530 m 0
 323 288 481 168 639 168 c 0
 797 168 955 288 955 530 c 0
 955 778 797 903 639 903 c 0
 481 903 323 778 323 530 c 0
EndSplineSet
EndChar

StartChar: uni043F
Encoding: 223 1087 359
Width: 1251
Flags: W
HStem: 0 21G<152 385 886 1119> 865 201<385 886>
VStem: 152 233<0 865> 886 233<0 865>
LayerCount: 2
Fore
SplineSet
152 0 m 1
 152 1066 l 1
 1119 1066 l 1
 1119 0 l 1
 886 0 l 1
 886 865 l 1
 385 865 l 1
 385 0 l 1
 152 0 l 1
EndSplineSet
EndChar

StartChar: uni0440
Encoding: 224 1088 360
Width: 1298
Flags: W
HStem: -410 21G<102 348.075> -23 191<505.607 817.674> 903 191<507.401 816.514> 1046 20G<102.986 352>
VStem: 103 249<-410 124 333.38 737.923 941 1066> 980 243<340.126 727.429>
LayerCount: 2
Fore
SplineSet
352 941 m 1xdc
 435 1035 552 1094 707 1094 c 0xec
 1052 1094 1223 798 1223 546 c 0
 1223 262 1062 -23 707 -23 c 0
 548 -23 432 38 350 124 c 1
 348 -410 l 1
 102 -410 l 1
 103 1066 l 1
 352 1066 l 1
 352 941 l 1xdc
349 536 m 0
 349 289 504 168 661 168 c 0
 820 168 980 293 980 536 c 0
 980 779 820 903 662 903 c 0
 505 903 349 782 349 536 c 0
EndSplineSet
EndChar

StartChar: uni0441
Encoding: 225 1089 361
Width: 1110
Flags: W
HStem: -23 191<487.056 827.514> 903 191<490.025 831.483>
VStem: 74 251<333.785 734.422>
LayerCount: 2
Fore
SplineSet
1065 136 m 1
 942 29 787 -23 638 -23 c 0
 347 -23 74 170 74 537 c 0
 74 896 347 1094 639 1094 c 0
 787 1094 939 1043 1063 936 c 1
 942 770 l 1
 872 857 761 903 651 903 c 0
 486 903 325 787 325 539 c 0
 325 285 479 168 643 168 c 0
 752 168 864 213 943 300 c 1
 1065 136 l 1
EndSplineSet
EndChar

StartChar: uni0442
Encoding: 226 1090 362
Width: 926
Flags: W
LayerCount: 2
Fore
SplineSet
10 1066 m 1
 10 868 l 1
 342 868 l 1
 342 0 l 1
 591 0 l 1
 591 868 l 1
 914 868 l 1
 914 1066 l 1
 10 1066 l 1
EndSplineSet
EndChar

StartChar: uni0443
Encoding: 227 1091 363
Width: 1141
Flags: W
HStem: -385 207<120 362.576>
DStem2: 592 261 727 23 0.383034 0.923734<0 814.718>
LayerCount: 2
Fore
SplineSet
281 1020 m 1
 592 261 l 1
 891 1019 l 1
 1140 1019 l 1
 727 23 l 1
 670 -244 494 -385 145 -385 c 2
 120 -385 l 1
 120 -178 l 1
 145 -178 l 2
 348 -178 456 -121 469 38 c 1
 25 1020 l 1
 281 1020 l 1
EndSplineSet
EndChar

StartChar: uni0444
Encoding: 228 1092 364
Width: 1470
Flags: W
HStem: 21 159<400.661 608.789 859.781 1069.2> 822 195<400.784 609.428 860.211 1069.36>
VStem: 74 240<291.211 720.347> 611 248<-180 35 204 813.426 1000 1220> 1156 240<288.093 720.129>
CounterMasks: 1 38
LayerCount: 2
Fore
SplineSet
611 35 m 1
 610 36 l 1
 575 26 539 21 499 21 c 0
 222 21 74 270 74 516 c 0
 74 766 222 1017 501 1017 c 0
 540 1017 580 1009 611 1000 c 1
 611 1220 l 1
 859 1220 l 1
 859 1000 l 1
 894 1010 929 1016 969 1016 c 0
 1249 1016 1396 764 1396 515 c 0
 1396 267 1247 20 971 20 c 0
 931 20 892 26 859 35 c 1
 859 -180 l 1
 611 -180 l 1
 611 35 l 1
858 204 m 1
 859 204 l 1
 898 188 933 181 966 181 c 0
 1101 181 1156 340 1156 498 c 0
 1156 657 1102 823 968 823 c 0
 935 823 896 814 858 798 c 1
 858 204 l 1
504 180 m 0
 536 180 573 188 611 203 c 1
 611 798 l 1
 575 813 544 822 502 822 c 0
 368 822 314 656 314 497 c 0
 314 338 369 180 504 180 c 0
EndSplineSet
EndChar

StartChar: uni0445
Encoding: 229 1093 365
Width: 1149
Flags: W
HStem: 0 21G<39 325.772 868.736 1158> 1046 20G<58 349.747 870.375 1146>
VStem: 39 272<0 272> 58 278<788 1066> 883 275<0 275 791 1066>
DStem2: 39 0 311 0 0.604289 0.796766<164.366 654.14> 336 1066 58 1066 0.587267 -0.809393<0 469.448> 602 679 762 538 0.588172 0.808736<0 479.433> 762 538 602 394 0.59279 -0.805357<21.1249 505.01>
LayerCount: 2
Fore
SplineSet
311 0 m 1xe8
 39 0 l 1xe8
 444 534 l 1
 58 1066 l 1
 336 1066 l 1xd8
 602 679 l 1
 885 1066 l 1
 1146 1066 l 1
 762 538 l 1
 1158 0 l 1
 883 0 l 1
 602 394 l 1
 311 0 l 1xe8
EndSplineSet
EndChar

StartChar: uni0447
Encoding: 231 1095 366
Width: 1135
Flags: W
HStem: -1 21G<769 1002> 349 201<370.256 648.778>
VStem: 76 232<613.378 1020> 769 233<-1 467 662.349 1019>
LayerCount: 2
Fore
SplineSet
309 1020 m 1
 308 859 l 1
 308 674 321 550 503 550 c 0
 637 550 743 652 769 744 c 1
 769 1019 l 1
 1002 1019 l 1
 1002 -1 l 1
 769 -1 l 1
 769 467 l 1
 699 395 606 349 468 349 c 0
 191 349 76 515 76 764 c 2
 76 1020 l 1
 309 1020 l 1
EndSplineSet
EndChar

StartChar: uni0448
Encoding: 232 1096 367
Width: 1300
Flags: W
HStem: 0 201<385 555 771 936> 1044 20G<152 385 555 771 936 1169>
VStem: 152 233<201 1064> 555 216<201 1064> 936 233<201 1064>
LayerCount: 2
Fore
SplineSet
385 1064 m 1
 385 201 l 1
 555 201 l 1
 555 1064 l 1
 771 1064 l 1
 771 201 l 1
 936 201 l 1
 936 1064 l 1
 1169 1064 l 1
 1169 0 l 1
 152 0 l 1
 152 1064 l 1
 385 1064 l 1
EndSplineSet
EndChar

StartChar: uni044A
Encoding: 234 1098 368
Width: 1219
Flags: W
HStem: 0 197<465 875.391> 483 198<465 879.582> 869 197<-78 223>
VStem: 223 241<197 483 681 869> 923 224<244.786 437.562>
LayerCount: 2
Fore
SplineSet
-78 1066 m 1
 464 1066 l 1
 464 681 l 1
 744 681 l 2
 937 681 1147 576 1147 346 c 3
 1147 118 983 0 758 0 c 2
 223 0 l 1
 223 869 l 1
 -78 869 l 1
 -78 935 -78 1000 -78 1066 c 1
923 346 m 0
 923 431 848 483 734 483 c 2
 465 483 l 1
 465 197 l 1
 734 197 l 2
 851 197 923 255 923 346 c 0
EndSplineSet
EndChar

StartChar: uni044C
Encoding: 236 1100 369
Width: 1219
Flags: W
HStem: 0 197<465 875.391> 483 198<465 879.582> 1046 20G<223 464>
VStem: 223 241<197 483 681 1066> 923 224<244.786 437.562>
LayerCount: 2
Fore
SplineSet
464 1066 m 5
 464 681 l 5
 744 681 l 6
 937 681 1147 576 1147 346 c 7
 1147 118 983 0 758 0 c 6
 223 0 l 5
 223 1066 l 5
 464 1066 l 5
923 346 m 4
 923 431 848 483 734 483 c 6
 465 483 l 5
 465 197 l 5
 734 197 l 6
 851 197 923 255 923 346 c 4
EndSplineSet
EndChar

StartChar: uni044E
Encoding: 238 1102 370
Width: 1569
Flags: W
HStem: -23 201<893.446 1145.08> 0 21G<150 383> 436 186<383 535.319> 892 202<891.272 1147.32> 1046 20G<150 383>
VStem: 150 233<0 436 622 1066> 530 247<310.873 436 622 751.683> 1257 238<302.915 763.223>
LayerCount: 2
Fore
SplineSet
1014 892 m 0xb7
 851 892 777 717 777 527 c 0
 777 339 852 178 1019 178 c 0
 1190 178 1257 341 1257 528 c 0
 1257 726 1191 892 1014 892 c 0xb7
383 622 m 1
 531 622 l 1
 564 884 724 1094 1019 1094 c 0
 1344 1094 1495 840 1495 530 c 0
 1495 229 1334 -23 1015 -23 c 0xb7
 718 -23 562 184 530 436 c 1
 383 436 l 1
 383 0 l 1
 150 0 l 1
 150 1066 l 1
 383 1066 l 1x6f
 383 622 l 1
EndSplineSet
EndChar

StartChar: uni044F
Encoding: 239 1103 371
Width: 1184
Flags: W
HStem: 0 21G<111 378.977 833 1066> 429 187<583 832> 867 199<393.96 832>
VStem: 128 225<658.226 826.551> 833 233<0 429 616 868>
DStem2: 111 0 369 0 0.466219 0.884669<120.284 523.359>
LayerCount: 2
Fore
SplineSet
111 0 m 1
 355 463 l 1
 234 505 128 595 128 744 c 0
 128 956 304 1066 519 1066 c 2
 1066 1066 l 1
 1066 0 l 1
 833 0 l 1
 833 429 l 1
 583 429 l 1
 369 0 l 1
 111 0 l 1
832 868 m 1
 537 867 l 2
 428 867 353 817 353 739 c 0
 353 665 432 616 537 616 c 2
 832 616 l 1
 832 868 l 1
EndSplineSet
EndChar

StartChar: uni0455
Encoding: 245 1109 375
Width: 1067
Flags: W
HStem: -21 198<305.849 717.14> 847 201<386.062 789.977>
VStem: 132 230<669.541 819.15> 743 232<208.545 366.732>
DStem2: 520 632 447 447 0.976187 -0.21693<-160.186 269.134>
LayerCount: 2
Fore
SplineSet
568 417 m 1
 447 447 l 1
 287 485 132 554 132 747 c 0
 132 954 319 1048 549 1048 c 0
 703 1048 819 1018 910 957 c 1
 926 946 l 1
 860 764 l 1
 834 780 l 2
 773 818 675 847 555 847 c 0
 438 847 362 819 362 745 c 0
 362 668 421 654 520 632 c 2
 664 600 l 1
 825 560 975 494 975 297 c 0
 975 79 799 -21 556 -21 c 0
 370 -21 219 21 128 99 c 2
 115 110 l 1
 184 304 l 1
 212 279 l 2
 277 221 392 177 540 177 c 0
 679 177 743 204 743 293 c 0
 743 362 673 394 568 417 c 1
EndSplineSet
EndChar

StartChar: uni0456
Encoding: 246 1110 376
Width: 557
Flags: W
HStem: 0 21G<184 433> 1046 20G<184 433> 1258 248<184 433>
VStem: 184 249<0 1066 1258 1506>
LayerCount: 2
Fore
SplineSet
184 1066 m 5
 433 1066 l 5
 433 0 l 5
 184 0 l 5
 184 1066 l 5
184 1506 m 1
 433 1506 l 1
 433 1258 l 1
 184 1258 l 1
 184 1506 l 1
EndSplineSet
EndChar

StartChar: Euro
Encoding: 475 8364 377
Width: 1231
Flags: W
HStem: -19 196<608.584 982.608> 493 188<102 194 442 990> 760 188<100 193 447 1021> 1254 194<630.171 971.674>
VStem: 193 227<681 759>
LayerCount: 2
Fore
SplineSet
72 759 m 1
 100 947 l 1
 216 947 l 1
 271 1215 448 1448 816 1448 c 0
 956 1448 1066 1406 1149 1322 c 2
 1158 1313 l 1
 1110 1049 l 1
 1076 1103 l 2
 1021 1189 941 1254 809 1254 c 0
 593 1254 493 1109 447 948 c 1
 1047 948 l 1
 1021 760 l 1
 420 760 l 1
 420 710 l 2
 420 700 421 689 422 681 c 1
 1015 681 l 1
 990 493 l 1
 442 493 l 1
 476 310 570 177 801 177 c 0
 929 177 1014 231 1095 299 c 2
 1136 334 l 1
 1135 89 l 1
 1125 82 l 1
 1037 19 932 -19 783 -19 c 0
 409 -19 253 214 211 493 c 1
 76 493 l 1
 102 681 l 1
 194 681 l 1
 193 697 193 709 193 725 c 2
 193 759 l 1
 72 759 l 1
EndSplineSet
EndChar

StartChar: partialdiff
Encoding: 476 8706 378
Width: 1208
Flags: W
HStem: -24 185<381.309 660.132> 844 183<472.122 608 609 783.534> 1349 184<400.362 751.737>
VStem: 80 210<252.82 640.623> 909 212<905 1161.98>
LayerCount: 2
Fore
SplineSet
608 1027 m 1
 609 1028 l 1
 743 1028 842 974 909 905 c 1
 909 911 l 2
 909 1147 829 1349 587 1349 c 0
 483 1349 382 1302 316 1259 c 1
 280 1233 l 1
 266 1429 l 1
 278 1437 l 1
 355 1490 475 1533 611 1533 c 0
 1015 1533 1121 1206 1121 849 c 0
 1121 540 1037 271 870 110 c 1
 786 36 670 -24 510 -24 c 0
 218 -24 80 174 80 434 c 0
 80 742 263 1027 608 1027 c 1
891 659 m 1
 854 758 772 844 632 844 c 0
 413 844 290 642 290 432 c 0
 290 278 357 161 513 161 c 0
 629 161 707 230 762 305 c 0
 829 395 874 523 891 659 c 1
EndSplineSet
EndChar

StartChar: uni2206
Encoding: 477 8710 379
Width: 1348
Flags: W
HStem: 0 212<317 1020>
DStem2: 39 106 317 212 0.366414 0.930452<200.491 733.434>
LayerCount: 2
Fore
SplineSet
782 1429 m 1
 1301 106 l 1
 1301 0 l 1
 39 0 l 1
 39 106 l 1
 560 1429 l 1
 782 1429 l 1
665 1159 m 1
 556 834 431 527 317 212 c 1
 1020 212 l 1
 675 1128 l 1
 665 1159 l 1
EndSplineSet
EndChar

StartChar: product
Encoding: 478 8719 380
Width: 1589
Flags: W
HStem: -329 21G<241 463 1139 1363> 1228 195<124 241 463 1139 1363 1469>
VStem: 241 222<-329 1228> 1139 224<-329 1228>
LayerCount: 2
Fore
SplineSet
104 1423 m 1
 1489 1423 l 1
 1469 1228 l 1
 1363 1228 l 1
 1363 -329 l 1
 1139 -329 l 1
 1139 1228 l 1
 463 1228 l 1
 463 -329 l 1
 241 -329 l 1
 241 1228 l 1
 124 1228 l 1
 104 1423 l 1
EndSplineSet
EndChar

StartChar: summation
Encoding: 479 8721 381
Width: 1300
Flags: W
HStem: -329 198<359 1260> 1231 192<390 1217>
DStem2: 55 -209 359 -131 0.637091 0.770789<253.797 987.3> 390 1231 76 1298 0.631765 -0.77516<0 712.072>
LayerCount: 2
Fore
SplineSet
359 -131 m 1
 1260 -131 l 1
 1260 -329 l 1
 55 -329 l 1
 55 -209 l 1
 684 552 l 1
 76 1298 l 1
 76 1423 l 1
 1217 1423 l 1
 1217 1231 l 1
 390 1231 l 1
 956 560 l 1
 359 -131 l 1
EndSplineSet
EndChar

StartChar: radical
Encoding: 480 8730 382
Width: 1348
Flags: W
VStem: 1083 179<1417 1596>
DStem2: 414 854 277 663 0.380179 -0.924913<124.574 761.022> 686 143 789 -152 0.261201 0.965284<0 1506.26>
LayerCount: 2
Fore
SplineSet
1262 1596 m 1
 789 -152 l 1
 612 -152 l 1
 277 663 l 1
 109 634 l 1
 82 795 l 1
 414 854 l 1
 656 231 l 1
 686 143 l 1
 812 638 957 1110 1083 1596 c 1
 1262 1596 l 1
EndSplineSet
EndChar

StartChar: infinity
Encoding: 481 8734 383
Width: 1739
Flags: W
HStem: 236 170<334.864 619.739 1115.37 1396.72> 780 164<326.546 613.767 1117.91 1399.36>
VStem: 92 173<472.817 721.221> 1456 185<469.269 615 616 721.107>
LayerCount: 2
Fore
SplineSet
1456 615 m 1
 1458 616 l 1
 1458 713 1381 780 1265 780 c 0
 1126 780 1034 677 968 593 c 1
 1044 503 1124 405 1268 405 c 0
 1402 405 1456 490 1456 615 c 1
265 593 m 0
 265 486 346 406 471 406 c 0
 611 406 698 506 767 590 c 1
 697 681 610 780 462 780 c 0
 335 780 265 703 265 593 c 0
464 945 m 1
 463 944 l 1
 663 944 783 818 868 709 c 1
 954 819 1068 944 1268 944 c 0
 1498 944 1641 803 1641 595 c 0
 1641 391 1490 236 1267 236 c 0
 1075 236 962 354 868 472 c 1
 781 363 666 236 469 236 c 0
 235 236 92 403 92 611 c 0
 92 803 256 945 464 945 c 1
EndSplineSet
EndChar

StartChar: integral
Encoding: 482 8747 384
Width: 768
Flags: W
HStem: -399 185<120.047 348.869> 1447 184<654.004 887.984>
VStem: 379 249<-185.588 1418.38>
LayerCount: 2
Fore
SplineSet
117 -186 m 1
 153 -201 l 2
 172 -209 214 -214 248 -214 c 0
 359 -214 379 -154 379 -27 c 2
 379 1241 l 2
 379 1456 468 1631 735 1631 c 0
 791 1631 829 1619 869 1610 c 2
 888 1606 l 1
 891 1419 l 1
 856 1434 l 2
 837 1442 795 1447 761 1447 c 0
 649 1447 628 1388 628 1260 c 2
 628 -8 l 2
 628 -223 541 -399 274 -399 c 0
 220 -399 179 -389 138 -377 c 2
 120 -372 l 1
 117 -186 l 1
EndSplineSet
EndChar

StartChar: approxequal
Encoding: 483 8776 385
Width: 1384
Flags: W
HStem: 259 168<800.322 1024.15> 403 168<354.131 605.108> 611 167<769.959 1030.13> 751 167<356.173 602.609>
VStem: 148 159<291.727 359.101 617.62 701.915>
LayerCount: 2
Fore
SplineSet
464 571 m 1x48
 464 573 l 1
 626 573 750 490 848 447 c 0
 880 433 909 427 934 427 c 0
 1016 427 1049 493 1079 576 c 2
 1087 598 l 1
 1237 558 l 1
 1232 535 l 2
 1201 389 1115 259 927 259 c 0x88
 765 259 650 348 540 388 c 0
 512 398 486 403 460 403 c 0
 368 403 330 350 307 280 c 1
 300 257 l 1
 145 294 l 1
 151 316 l 1
 185 449 276 571 464 571 c 1x48
143 620 m 1
 148 642 l 1
 180 788 273 918 461 918 c 0x18
 671 918 773 778 931 778 c 0
 1015 778 1049 832 1076 903 c 1
 1083 925 l 1
 1234 888 l 1
 1229 866 l 2
 1199 731 1113 611 925 611 c 0x28
 761 611 647 696 536 736 c 0
 509 746 483 751 458 751 c 0x18
 367 751 329 689 307 605 c 2
 301 581 l 1
 143 620 l 1
EndSplineSet
EndChar

StartChar: notequal
Encoding: 484 8800 386
Width: 1382
Flags: W
HStem: 299 170<165 431 718 1215> 703 171<165 646 932 1214>
DStem2: 309 67 483 43 0.474943 0.880017<61.5197 262.987 548.018 719.746 1005.18 1199.47>
LayerCount: 2
Fore
SplineSet
731 874 m 1
 876 1124 l 1
 1054 1101 l 1
 932 873 l 1
 1214 873 l 1
 1228 702 l 1
 845 702 l 1
 718 469 l 1
 1215 469 l 1
 1228 299 l 1
 630 299 l 1
 483 43 l 1
 309 67 l 1
 431 300 l 1
 165 300 l 1
 154 470 l 1
 521 470 l 1
 646 703 l 1
 165 703 l 1
 152 874 l 1
 731 874 l 1
EndSplineSet
EndChar

StartChar: lessequal
Encoding: 485 8804 387
Width: 1382
Flags: W
HStem: 10 172<154 1148 1190 1217>
DStem2: 438 691 188 632 0.905459 -0.424434<0 823.09>
LayerCount: 2
Fore
SplineSet
1190 181 m 1
 1217 182 l 1
 1217 10 l 1
 154 10 l 1
 154 182 l 1
 1148 182 l 1
 188 632 l 1
 188 743 l 1
 1190 1236 l 1
 1190 1041 l 1
 438 691 l 1
 1190 356 l 1
 1190 181 l 1
EndSplineSet
EndChar

StartChar: greaterequal
Encoding: 486 8805 388
Width: 1382
Flags: W
HStem: 9 172<154 183 221 1213>
LayerCount: 2
Fore
SplineSet
942 688 m 1
 187 1042 l 1
 187 1237 l 1
 1195 743 l 1
 1195 633 l 1
 221 181 l 1
 1213 181 l 1
 1213 9 l 1
 154 9 l 1
 154 181 l 1
 183 181 l 1
 183 358 l 1
 942 688 l 1
EndSplineSet
EndChar

StartChar: lozenge
Encoding: 487 9674 389
Width: 1284
Flags: W
HStem: 1449 20G<560.642 728.216>
DStem2: 304 712 104 710 0.520628 -0.853784<-23.3835 652.675> 104 710 304 712 0.52566 0.850695<82.5707 761.297> 636 150 706 -46 0.529898 0.848061<0 676.689> 716 1469 648 1271 0.521268 -0.853393<133.526 802.832>
LayerCount: 2
Fore
SplineSet
648 1271 m 1
 646 1270 l 1
 534 1078 413 896 304 712 c 1
 412 523 526 338 636 150 c 1
 750 343 870 526 979 711 c 1
 872 899 756 1083 648 1271 c 1
573 1469 m 1
 716 1469 l 1
 1179 711 l 1
 706 -46 l 1
 565 -46 l 1
 104 710 l 1
 573 1469 l 1
EndSplineSet
EndChar

StartChar: commaaccent
Encoding: 488 63171 390
Width: 657
Flags: W
HStem: -653 513<217 278>
VStem: 104 346
LayerCount: 2
Fore
SplineSet
278 -653 m 1
 104 -653 l 1
 217 -140 l 1
 450 -140 l 1
 278 -653 l 1
EndSplineSet
EndChar

StartChar: scommaaccent
Encoding: 489 -1 391
Width: 1055
Flags: W
HStem: -48 181<279.47 703.42> 861 184<359.381 780.345>
VStem: 113 210<675.243 822.169> 748 209<178.359 343.344>
LayerCount: 2
Fore
SplineSet
323 748 m 0
 323 647 504 621 638 583 c 1
 786 537 957 472 957 273 c 0
 957 50 743 -48 501 -48 c 0
 333 -48 201 -18 123 68 c 2
 114 78 l 1
 166 277 l 1
 197 240 l 2
 254 173 357 133 509 133 c 0
 648 133 748 170 748 266 c 0
 748 318 716 344 664 367 c 0
 467 452 113 457 113 750 c 0
 113 954 301 1045 515 1045 c 0
 672 1045 796 1026 881 964 c 1
 895 953 l 1
 841 780 l 1
 813 798 l 1
 750 840 652 861 525 861 c 0
 411 861 323 823 323 748 c 0
530 -625 m 1
 333 -625 l 1
 460 -112 l 1
 728 -112 l 1
 530 -625 l 1
EndSplineSet
EndChar

StartChar: Scommaaccent
Encoding: 490 -1 392
Width: 1233
Flags: W
HStem: -23 219<376.242 865.024> 1258 216<457.414 948.302>
VStem: 135 239<965.231 1184.06> 962 243<279.395 520.639>
DStem2: 587 888 500 681 0.962254 -0.272153<-206.425 419.873>
LayerCount: 2
Fore
SplineSet
587 888 m 1
 785 832 l 1
 998 769 1205 674 1205 406 c 0
 1205 114 970 -23 653 -23 c 0
 432 -23 267 30 141 106 c 2
 123 117 l 1
 207 329 l 1
 233 310 l 1
 330 241 477 196 661 196 c 0
 843 196 962 258 962 405 c 0
 962 543 837 588 694 627 c 2
 500 681 l 2
 313 734 135 832 135 1064 c 0
 135 1340 368 1474 669 1474 c 0
 863 1474 1027 1433 1137 1358 c 1
 1154 1346 l 1
 1071 1152 l 1
 1046 1168 l 1
 964 1222 821 1258 669 1258 c 0
 495 1258 374 1205 374 1070 c 0
 374 957 471 922 587 888 c 1
624 -674 m 1
 451 -674 l 1
 563 -161 l 1
 796 -161 l 1
 624 -674 l 1
EndSplineSet
EndChar

StartChar: R.alt.001
Encoding: 491 -1 393
Width: 1403
Flags: W
HStem: 0 21G<195 422 1060.55 1120> 615 208<423 737.031> 1243 207<422 920.879>
VStem: 195 227<0 615 823 1243> 1015 235<915.933 1161.74>
DStem2: 1305 35 897 366 0.427343 -0.90409<-563.023 -68.7824>
LayerCount: 2
Fore
SplineSet
195 0 m 1
 195 1450 l 1
 649 1450 l 2
 977 1450 1250 1361 1250 1054 c 0
 1250 849 1130 724 953 673 c 1
 1124 503 1205 254 1305 35 c 1
 1321 1 l 1
 1283 1 l 2
 1218 1 1153 0 1087 0 c 2
 1070 0 l 1
 897 366 l 2
 851 464 804 541 739 608 c 1
 697 613 655 615 604 615 c 2
 422 615 l 1
 422 0 l 1
 195 0 l 1
422 1243 m 1
 423 823 l 1
 705 823 l 2
 891 823 1015 894 1015 1043 c 0
 1015 1184 892 1243 704 1243 c 2
 422 1243 l 1
EndSplineSet
EndChar

StartChar: u.alt
Encoding: 492 -1 394
Width: 1251
Flags: W
HStem: -23 205<424.519 727.844> -1 21G<879.692 1100>
VStem: 131 232<250.683 1020> 864 233<298.473 1021> 881 219<-1 106>
LayerCount: 2
Fore
SplineSet
364 1020 m 1xa8
 363 515 l 2
 363 323 371 182 556 182 c 0
 707 182 834 277 864 373 c 1
 864 1021 l 1
 1097 1021 l 1
 1097 261 l 2xb0
 1097 182 1100 100 1100 23 c 2
 1100 -1 l 1
 881 -1 l 1x68
 874 106 l 1
 792 25 681 -23 522 -23 c 0
 239 -23 131 163 131 416 c 2
 131 1020 l 1
 364 1020 l 1xa8
EndSplineSet
EndChar

StartChar: a.alt
Encoding: 493 -1 395
Width: 1161
Flags: W
HStem: -24 187<331.381 641.094> -2 21G<795 1028> 498 149<648.567 794> 841 202<315.916 762.341>
VStem: 88 223<182.911 353.478> 795 233<-2 87 303.505 498 628.167 804.33>
LayerCount: 2
Fore
SplineSet
431 163 m 1xbc
 431 162 l 1
 647 162 795 275 795 463 c 2
 795 498 l 1
 603 428 311 429 311 263 c 0
 311 203 358 163 431 163 c 1xbc
794 647 m 1
 793 705 l 1
 793 804 736 841 606 841 c 0
 455 841 324 810 235 763 c 2
 207 748 l 1
 156 948 l 1
 175 957 l 2
 281 1007 429 1043 602 1043 c 0
 844 1043 1028 962 1028 735 c 2
 1028 -2 l 1
 795 -2 l 1x7c
 795 87 l 1
 709 18 577 -24 430 -24 c 0
 227 -24 88 76 88 265 c 0
 88 524 383 550 598 594 c 0
 680 610 755 623 794 647 c 1
EndSplineSet
EndChar

StartChar: y.alt
Encoding: 494 -1 396
Width: 1145
Flags: W
DStem2: 281 1020 25 1020 0.40863 -0.9127<0 795.18> 592 288 698 -43 0.384554 0.923103<0 788.846>
LayerCount: 2
Fore
SplineSet
281 1020 m 1
 592 288 l 1
 891 1018 l 1
 1140 1018 l 1
 698 -43 l 1
 618 -224 447 -344 277 -436 c 1
 258 -447 l 1
 122 -281 l 1
 148 -267 l 2
 265 -203 392 -109 450 5 c 1
 466 35 l 1
 25 1020 l 1
 281 1020 l 1
EndSplineSet
EndChar

StartChar: R.alt
Encoding: 495 -1 397
Width: 1403
Flags: W
HStem: 0 21G<195 422 1060.55 1120> 615 208<423 737.031> 1243 207<422 920.879>
VStem: 195 227<0 615 823 1243> 1015 235<915.933 1161.74>
DStem2: 1305 35 897 366 0.427343 -0.90409<-563.023 -68.7824>
LayerCount: 2
Fore
SplineSet
195 0 m 1
 195 1450 l 1
 649 1450 l 2
 977 1450 1250 1361 1250 1054 c 0
 1250 849 1130 724 953 673 c 1
 1124 503 1205 254 1305 35 c 1
 1321 1 l 1
 1283 1 l 2
 1218 1 1153 0 1087 0 c 2
 1070 0 l 1
 897 366 l 2
 851 464 804 541 739 608 c 1
 697 613 655 615 604 615 c 2
 422 615 l 1
 422 0 l 1
 195 0 l 1
422 1243 m 1
 423 823 l 1
 705 823 l 2
 891 823 1015 894 1015 1043 c 0
 1015 1184 892 1243 704 1243 c 2
 422 1243 l 1
EndSplineSet
EndChar

StartChar: six.alt
Encoding: 496 -1 398
Width: 1217
Flags: W
HStem: -23 215<456.373 803.941> 716 210<446.322 815.728> 1257 216<519.294 937.255>
VStem: 57 275<355.675 846.523> 928 255<314.098 604.298>
LayerCount: 2
Fore
SplineSet
1183 455 m 1
 1184 456 l 1
 1184 161 966 -23 642 -23 c 0
 211 -23 57 279 57 682 c 0
 57 1087 221 1473 680 1473 c 0
 861 1473 1017 1436 1119 1364 c 1
 1135 1352 l 1
 1054 1155 l 1
 1029 1171 l 1
 953 1218 823 1257 687 1257 c 0
 433 1257 341 1044 318 806 c 1
 402 886 521 926 678 926 c 0
 992 926 1183 740 1183 455 c 1
928 451 m 0
 928 618 824 715 631 716 c 1
 434 716 332 614 332 441 c 0
 332 291 455 192 630 192 c 0
 809 192 928 297 928 451 c 0
EndSplineSet
EndChar

StartChar: afii10145
Encoding: 175 1039 402
Width: 1571
Flags: W
LayerCount: 2
Fore
SplineSet
673 84 m 5
 673 -312 l 5
 859 -312 l 5
 859 84 l 5
 673 84 l 5
1157 1445 m 1
 1157 200 l 1
 413 200 l 1
 413 1445 l 1
 172 1445 l 1
 172 0 l 1
 1398 0 l 1
 1398 1445 l 1
 1157 1445 l 1
EndSplineSet
EndChar

StartChar: afii10026
Encoding: 184 1048 403
Width: 1589
Flags: W
DStem2: 398 443 398 120 0.613286 0.789861<0 952.154>
LayerCount: 2
Fore
SplineSet
173 1445 m 1
 172 0 l 1
 398 0 l 1
 398 120 l 1
 1153 1052 l 1
 1192 1115 l 1
 1192 0 l 1
 1417 0 l 1
 1417 1445 l 1
 1176 1445 l 1
 398 443 l 1
 398 1445 l 1
 173 1445 l 1
EndSplineSet
EndChar

StartChar: afii10028
Encoding: 186 1050 405
Width: 1321
Flags: W
HStem: 0 21G<172 413 1062.47 1386> 1425 20G<172 413 1001 1313>
VStem: 172 241<0 590 802 1444> 1080 306<0 306>
DStem2: 413 802 681 769 0.682934 0.73048<158.92 876.727> 681 769 499 663 0.675768 -0.737114<0 836.472>
LayerCount: 2
Fore
SplineSet
172 1445 m 1
 413 1444 l 1
 413 802 l 1
 1001 1436 l 1
 1009 1445 l 1
 1313 1445 l 1
 681 769 l 1
 1386 0 l 1
 1080 0 l 1
 499 663 l 1
 413 590 l 1
 413 0 l 1
 172 0 l 1
 172 1445 l 1
EndSplineSet
EndChar

StartChar: afii10060
Encoding: 171 1035 407
Width: 1858
Flags: W
HStem: 1 21G<604 858 1377 1608> 662 208<859 1294.36> 1237 208<178 604 858 1284>
VStem: 604 254<1 662 870 1236> 1377 231<1 581.767>
LayerCount: 2
Fore
SplineSet
1608 1 m 5
 1377 1 l 5
 1377 437 l 1
 1377 635 1269 662 1052 662 c 2
 858 662 l 1
 858 1 l 2
 604 1 l 1
 604 1237 l 1
 178 1237 l 1
 178 1445 l 1
 1284 1445 l 1
 1284 1236 l 1
 858 1236 l 1
 859 870 l 1
 1011 870 l 2
 1338 870 1608 831 1608 435 c 1
 1608 1 l 5
EndSplineSet
EndChar

StartChar: afii10051
Encoding: 162 1026 408
Width: 1858
Flags: W
HStem: -208 208<1191 1342.54> 1 21G<604 858> 662 208<859 1294.36> 1237 208<178 604 858 1284>
VStem: 604 254<1 662 870 1236> 1377 231<38.8984 581.767>
LayerCount: 2
Fore
SplineSet
1191 -208 m 1
 1191 0 l 1
 1349 0 1377 26 1377 224 c 2
 1377 437 l 2
 1377 635 1269 662 1052 662 c 2
 858 662 l 1
 858 1 l 1
 604 1 l 1
 604 1237 l 1
 178 1237 l 1
 178 1445 l 1
 1284 1445 l 1
 1284 1236 l 1
 858 1236 l 1
 859 870 l 1
 1011 870 l 2
 1338 870 1608 831 1608 435 c 2
 1608 226 l 2
 1608 -170 1418 -208 1191 -208 c 1
EndSplineSet
EndChar

StartChar: afii10053
Encoding: 164 1028 409
Width: 1430
Flags: W
HStem: -23 215<650.811 1091.99> 641 208<382 1090> 1258 215<659.849 1084.74>
LayerCount: 2
Fore
SplineSet
1238 1130 m 1
 1118 1218 985 1258 860 1258 c 0
 634 1258 431 1103 382 849 c 1
 1090 849 l 1
 1090 641 l 1
 376 641 l 1
 410 346 621 192 863 192 c 0
 986 192 1119 231 1237 311 c 1
 1320 108 l 1
 1158 17 991 -23 836 -23 c 0
 430 -23 96 274 96 728 c 0
 96 1190 444 1473 843 1473 c 0
 1000 1473 1166 1433 1321 1336 c 1
 1238 1130 l 1
EndSplineSet
EndChar

StartChar: afii10041
Encoding: 199 1063 410
Width: 1858
Flags: W
HStem: 0 21G<997.965 1252> 576 208<491.637 997> 1425 20G<178 409 998 1252>
VStem: 178 231<864.233 1445> 998 254<0 576 784 1445>
LayerCount: 2
Fore
SplineSet
998 0 m 1
 997 576 l 1
 775 576 l 2
 448 576 178 615 178 1011 c 2
 178 1445 l 1
 409 1445 l 1
 409 1009 l 2
 409 811 517 784 734 784 c 2
 998 784 l 1
 998 1445 l 1
 1252 1445 l 1
 1252 0 l 1
 998 0 l 1
EndSplineSet
EndChar

StartChar: afii10037
Encoding: 195 1059 411
Width: 1311
Flags: W
HStem: -393 202<212 395.678>
VStem: 537 257<-33.7 221>
LayerCount: 2
Fore
SplineSet
537 221 m 1
 536 -99 416 -191 212 -191 c 2
 190 -191 l 1
 190 -393 l 1
 212 -393 l 2
 562 -393 794 -218 794 180 c 2
 794 321 l 1
 1351 1445 l 1
 1084 1445 l 1
 667 511 l 1
 255 1445 l 1
 -6 1445 l 1
 538 321 l 1
 537 221 l 1
EndSplineSet
EndChar

StartChar: afii10043
Encoding: 201 1065 413
Width: 1620
Flags: W
HStem: 0 200<413 695 936 1207> 1425 20G<172 413 695 936 1207 1448>
VStem: 172 241<200 1445> 695 241<200 1445> 1207 241<200 1445>
LayerCount: 2
Fore
SplineSet
1434 84 m 1
 1434 -312 l 1
 1620 -312 l 1
 1620 84 l 1
 1434 84 l 1
413 1445 m 1
 413 200 l 1
 695 200 l 1
 695 1445 l 1
 936 1445 l 1
 936 200 l 1
 1207 200 l 1
 1207 1445 l 1
 1448 1445 l 1
 1448 0 l 1
 172 0 l 1
 172 1445 l 1
 413 1445 l 1
EndSplineSet
EndChar

StartChar: afii10047
Encoding: 205 1069 414
Width: 1430
Flags: W
HStem: -23 215<325.008 766.189> 1258 215<332.264 757.151>
LayerCount: 2
Fore
SplineSet
179 1130 m 1
 299 1218 432 1258 557 1258 c 0
 783 1258 986 1103 1035 849 c 1
 327 849 l 1
 327 641 l 1
 1041 641 l 1
 1007 346 796 192 554 192 c 0
 431 192 298 231 180 311 c 1
 97 108 l 1
 259 17 426 -23 581 -23 c 0
 987 -23 1321 274 1321 728 c 0
 1321 1190 973 1473 574 1473 c 0
 417 1473 251 1433 96 1336 c 1
 179 1130 l 1
EndSplineSet
EndChar

StartChar: afii10024
Encoding: 182 1046 415
Width: 1337
Flags: W
HStem: 0 21G<-6 281.646 690 920 1346.62 1635> 1425 20G<31 328.993 690 920 1299.46 1598>
VStem: -6 272<0 272> 31 284<1161 1445> 690 230<0 541 909 1445> 1314 284<1161 1445> 1363 272<0 272>
DStem2: -6 0 266 0 0.609763 0.792584<165.855 853.975> 315 1445 31 1445 0.599276 -0.800542<0 653.819> 920 903 1058 737 0.606449 0.795122<0 669.897>
LayerCount: 2
Fore
SplineSet
690 1445 m 1xd8
 920 1445 l 1
 920 903 l 1
 1314 1445 l 1
 1598 1445 l 1xdc
 1058 737 l 1
 1635 0 l 1
 1363 0 l 1
 920 541 l 1
 920 0 l 1
 690 0 l 1
 690 542 l 1
 266 0 l 1
 -6 0 l 1xea
 561 737 l 1
 31 1445 l 1
 315 1445 l 1
 690 909 l 1
 690 1445 l 1xd8
EndSplineSet
EndChar

StartChar: afii10040
Encoding: 198 1062 416
Width: 1571
Flags: W
VStem: 1385 13<0 84>
LayerCount: 2
Fore
SplineSet
1385 84 m 5
 1385 -312 l 5
 1571 -312 l 5
 1571 84 l 5
 1385 84 l 5
1157 1445 m 1
 1157 200 l 1
 413 200 l 1
 413 1445 l 1
 172 1445 l 1
 172 0 l 1
 1398 0 l 1
 1398 1445 l 1
 1157 1445 l 1
EndSplineSet
EndChar

StartChar: afii10072
Encoding: 214 1078 417
Width: 1373
Flags: W
HStem: 0 21G<39 325.486 579 788 1047.11 1334> 1046 18G<58 349.065 579 788 1023.54 1315>
VStem: 39 272<0 272> 579 209<0 368 694 1066> 1062 272<0 272>
LayerCount: 2
Fore
SplineSet
579 1066 m 1
 788 1066 l 1
 788 694 l 1
 1037 1064 l 1
 1315 1064 l 1
 909 533 l 1
 1334 0 l 1
 1062 0 l 1
 788 368 l 1
 788 0 l 1
 579 0 l 1
 579 370 l 1
 311 0 l 1
 39 0 l 1
 464 533 l 1
 58 1064 l 1
 336 1064 l 1
 579 692 l 1
 579 1066 l 1
EndSplineSet
EndChar

StartChar: afii10088
Encoding: 230 1094 418
Width: 1300
Flags: W
LayerCount: 2
Fore
SplineSet
1114 84 m 5
 1114 -312 l 5
 1300 -312 l 5
 1300 84 l 5
 1114 84 l 5
936 201 m 1
 425 201 l 1
 425 1064 l 1
 192 1064 l 1
 192 0 l 1
 1169 0 l 1
 1169 1064 l 1
 936 1064 l 1
 936 201 l 1
EndSplineSet
EndChar

StartChar: afii10091
Encoding: 233 1097 419
Width: 1619
Flags: W
LayerCount: 2
Fore
SplineSet
1433 84 m 1
 1433 -312 l 1
 1619 -312 l 1
 1619 84 l 1
 1433 84 l 1
132 0 m 1
 592 0 1053 0 1513 0 c 1
 1513 1064 l 1
 1280 1064 l 1
 1280 201 l 1
 939 201 l 1
 939 1064 l 1
 706 1064 l 1
 706 201 l 1
 365 201 l 1
 365 1064 l 1
 132 1064 l 1
 132 0 l 1
EndSplineSet
EndChar

StartChar: afii10107
Encoding: 250 1114 420
Width: 1765
Flags: W
HStem: 0 197<1108 1446.39> 475 199<385 875 1108 1459.28> 1046 20G<152 385 875 1108>
VStem: 152 233<0 475 674 1066> 875 233<197 475 681 1066> 1494 224<244.786 437.562>
LayerCount: 2
Fore
SplineSet
152 0 m 1
 152 1066 l 1
 385 1066 l 1
 385 674 l 1
 875 674 l 1
 875 1066 l 1
 954 1066 l 1
 1105 1066 l 1
 1108 1066 l 1
 1108 681 l 1
 1315 681 l 2
 1508 681 1718 576 1718 346 c 0
 1718 118 1554 0 1329 0 c 0
 1178 0 1026 0 875 0 c 1
 875 475 l 1
 385 475 l 1
 385 0 l 1
 152 0 l 1
1494 346 m 0
 1494 431 1419 483 1305 483 c 2
 1108 483 l 1
 1108 197 l 1
 1305 197 l 2
 1422 197 1494 255 1494 346 c 0
EndSplineSet
EndChar

StartChar: afii10193
Encoding: 255 1119 421
Width: 1251
Flags: W
LayerCount: 2
Fore
SplineSet
555 84 m 5
 555 -312 l 5
 741 -312 l 5
 741 84 l 5
 555 84 l 5
152 1066 m 1
 152 0 l 1
 1119 0 l 1
 1119 1066 l 1
 886 1066 l 1
 886 201 l 1
 385 201 l 1
 385 1066 l 1
 152 1066 l 1
EndSplineSet
EndChar

StartChar: afii10093
Encoding: 235 1099 422
Width: 1633
Flags: W
HStem: 0 197<465 875.391> 483 198<465 879.582> 1046 20G<223 464 1287 1536>
VStem: 223 241<197 483 681 1066> 923 224<244.786 437.562> 1287 249<0 1066>
LayerCount: 2
Fore
SplineSet
1287 1066 m 1
 1536 1066 l 1
 1536 0 l 1
 1287 0 l 1
 1287 1066 l 1
464 1066 m 1
 464 681 l 1
 744 681 l 2
 937 681 1147 576 1147 346 c 3
 1147 118 983 0 758 0 c 2
 223 0 l 1
 223 1066 l 1
 464 1066 l 1
923 346 m 0
 923 431 848 483 734 483 c 2
 465 483 l 1
 465 197 l 1
 734 197 l 2
 851 197 923 255 923 346 c 0
EndSplineSet
EndChar

StartChar: afii10101
Encoding: 244 1108 423
Width: 1110
Flags: W
HStem: -23 191<487.056 827.514> 449 178<204 802> 903 191<490.025 831.483>
VStem: 74 251<333.785 734.422>
LayerCount: 2
Fore
SplineSet
204 627 m 1
 802 627 l 1
 802 449 l 1
 204 449 l 1
 204 627 l 1
EndSplineSet
Refer: 361 1089 N 1 0 0 1 0 0 2
EndChar

StartChar: afii10095
Encoding: 237 1101 424
Width: 1110
Flags: W
HStem: -23 191<311.486 651.944> 903 191<307.517 648.975>
VStem: 814 251<333.785 734.422>
LayerCount: 2
Fore
SplineSet
936 627 m 1
 338 627 l 1
 338 449 l 1
 936 449 l 1
 936 627 l 1
EndSplineSet
Refer: 361 1089 N -1 0 0 1 1139 0 2
EndChar

